<mxfile host="app.diagrams.net" agent="Mozilla/5.0 (Windows NT 10.0; Win64; x64) AppleWebKit/537.36 (KHTML, like Gecko) Chrome/127.0.0.0 Safari/537.36" version="24.7.6">
  <diagram name="第 1 页" id="BBAQFmfSTag5oSbMWZ_H">
    <mxGraphModel dx="1014" dy="658" grid="0" gridSize="10" guides="1" tooltips="1" connect="1" arrows="1" fold="1" page="1" pageScale="1" pageWidth="827" pageHeight="1169" math="0" shadow="0">
      <root>
        <mxCell id="0" />
        <mxCell id="1" parent="0" />
        <mxCell id="0uOWNtAEGyTlKklBFvYf-2" value="&lt;b style=&quot;font-size: 14px;&quot;&gt;LLM&lt;/b&gt;" style="rounded=1;whiteSpace=wrap;html=1;fillColor=#d5e8d4;strokeColor=#82b366;fontSize=14;" vertex="1" parent="1">
          <mxGeometry x="206" y="126" width="458" height="60" as="geometry" />
        </mxCell>
        <mxCell id="0uOWNtAEGyTlKklBFvYf-9" style="edgeStyle=orthogonalEdgeStyle;rounded=0;orthogonalLoop=1;jettySize=auto;html=1;exitX=0.5;exitY=0;exitDx=0;exitDy=0;" edge="1" parent="1" source="0uOWNtAEGyTlKklBFvYf-3">
          <mxGeometry relative="1" as="geometry">
            <mxPoint x="266" y="188" as="targetPoint" />
          </mxGeometry>
        </mxCell>
        <mxCell id="0uOWNtAEGyTlKklBFvYf-3" value="Projector" style="rounded=1;whiteSpace=wrap;html=1;fontStyle=1;fillColor=#fff2cc;strokeColor=#d6b656;fontSize=14;" vertex="1" parent="1">
          <mxGeometry x="206" y="215" width="120" height="31" as="geometry" />
        </mxCell>
        <mxCell id="0uOWNtAEGyTlKklBFvYf-18" style="edgeStyle=orthogonalEdgeStyle;rounded=0;orthogonalLoop=1;jettySize=auto;html=1;" edge="1" parent="1" source="0uOWNtAEGyTlKklBFvYf-16">
          <mxGeometry relative="1" as="geometry">
            <mxPoint x="494" y="193.5" as="targetPoint" />
          </mxGeometry>
        </mxCell>
        <mxCell id="0uOWNtAEGyTlKklBFvYf-16" value="&lt;font style=&quot;font-size: 14px;&quot;&gt;&lt;font style=&quot;font-size: 14px;&quot; color=&quot;#ea6b66&quot;&gt;User&lt;/font&gt;: &lt;span style=&quot;font-weight: normal;&quot;&gt;Transcribe the speech.&lt;/span&gt; &lt;font style=&quot;font-size: 14px;&quot; color=&quot;#ea6b66&quot;&gt;Assistant&lt;/font&gt;: &lt;span style=&quot;font-weight: normal;&quot;&gt;Hello world&lt;/span&gt;&lt;/font&gt;" style="text;html=1;align=center;verticalAlign=middle;whiteSpace=wrap;rounded=0;fontStyle=1;labelBorderColor=none;textShadow=1;" vertex="1" parent="1">
          <mxGeometry x="326" y="334.75" width="336" height="32.5" as="geometry" />
        </mxCell>
        <mxCell id="0uOWNtAEGyTlKklBFvYf-22" style="edgeStyle=orthogonalEdgeStyle;rounded=0;orthogonalLoop=1;jettySize=auto;html=1;exitX=0.5;exitY=0;exitDx=0;exitDy=0;entryX=0.5;entryY=1;entryDx=0;entryDy=0;" edge="1" parent="1" source="0uOWNtAEGyTlKklBFvYf-17" target="0uOWNtAEGyTlKklBFvYf-20">
          <mxGeometry relative="1" as="geometry" />
        </mxCell>
        <mxCell id="0uOWNtAEGyTlKklBFvYf-17" value="" style="shape=image;verticalLabelPosition=bottom;labelBackgroundColor=default;verticalAlign=top;aspect=fixed;imageAspect=0;image=data:image/png,iVBORw0KGgoAAAANSUhEUgAAA80AAAIZCAIAAAATDEovAAAgAElEQVR4Aey9h7dm11UnqOJTVkmyVMrBJSunkmS5pJJLOTwb7DHg7HHCOBvaeBmwDQ44yAGDDUZWuZjVwQt6gCY13TSh281AE7oXMB2nMc2btUZ/y6z7ne/+vn3PPffsfcK+4Xtbq9bTvufss/Pe5/duffXeGasTh+xPNAKr1YlF/9HO76KDs4qmvkroLD5VwmhCFhoBq/944iw+Fp94BGx38RE4Y7U6xPw5wTGwEpbNsFr4f7L05Wd54eFRL845xedEhjGy+lEPo5khjkB+L4tVJKQ7o+RmdUQjJlRmrrM5vZyrK3aO+qJBx3QvYa8sJvPq5TJfEobGrikynM1mdAm9HLORdXDNkN/PMd1L2JPFJ39GzCkGOXezdnxMfu0I5PdybUuarln6fxoxoTJz45PTy7m6YueoLxp0TPcS9spiMq9eLvMl/w5dvF7D2WwKl9DLMRtZB9cM+f0c072EPVl88mfEnGKQczdrx8fk145Afi/XtsRwNj83cudDTi/n6oqd06gZKjOmewl71Jd0el69nG4/X/8HQqbhbDbNS+jlmI2sg2uG/H6O6V7Cniw++fNiTjHIuZu142Pya0cgv5drW2I4m58bufMhp5dzdcXOadQMlRnTvYQ96ks6Pa9eTrefr/8DIdNwNpvmJfRyzEbWwTVDfj/HdC9hTxaf/Hkxpxjk3M3a8TH5tSOQ38u1LTGczc+N3PmQ08u5umLnNGqGyozpXsIe9SWdnlcvp9vP1/+BkGk4m03zEno5ZiPr4Johv59jupewJ4tP/ryYUwxy7mbt+Jj82hHI7+XalhjO5udG7nzI6eVcXbFzGjVDZcZ0L2GP+pJOz6uX0+3n6/9AyDSczaZ5Cb0cs5F1cM2Q388x3UvYk8Unf17MKQY5d7N2fEx+7Qjk93JtSwxn83Mjdz7k9HKurtg5jZqhMmO6l7BHfUmn59XL6fbz9X8gZBrOZtO8hF6O2cg6uGbI7+eY7iXsyeKTPy/mFIOcu1k7Pia/dgTye7m2JYaz+bmROx9yejlXV+ycRs1QmTHdS9ijvqTT8+rldPv5+j8QMg1ns2leQi/HbGQdXDPk93NM9xL2ZPHJnxdzikHO3awdH5NfOwL5vVzbEsPZ/NzInQ85vZyrK3ZOo2aozJjuJexRX9LpefVyuv18/R8ImYaz2TQvoZdjNrIOrhny+zmmewl7svjkz4s5xSDnbtaOj8mvHYH8Xq5tieFsfm7kzoecXs7VFTunUTNUZkz3EvaoL+n0vHo53X6+/g+ETMPZbJqX0MsxG1kH1wz5/RzTvYQ9WXzy58WcYpBzN2vHx+TXjkB+L9e2xHA2Pzdy50NOL+fqip3TqBkqM6Z7CXvUl3R6Xr2cbj9f/wdCpuFsNs1L6OWYjayDa4b8fo7pXsKeLD7582JOMci5m7XjY/JrRyC/l2tbYjibnxu58yGnl3N1xc5p1AyVGdO9hD3qSzo9r15Ot5+v/wMh03A2m+Yl9HLMRtbBNUN+P8d0L2FPFp/8eTGnGOTczdrxMfm1I5Dfy7UtMZzNz43c+ZDTy7m6Yuc0aobKjOlewh71JZ2eVy+n28/X/4GQaTibTfMSejlmI+vgmiG/n2O6l7Ani0/+vJhTDHLuZu34mPzaEcjv5dqWGM7m50bufMjp5VxdsXMaNUNlxnQvYY/6kk7Pq5fT7efr/0DINJzNpnkJvRyzkXVwzZDfzzHdS9iTxSd/XswpBjl3s3Z8TH7tCOT3cm1LDGfzcyN3PuT0cq6u2DmNmqEyY7qXsEd9Safn1cvp9vP1fyBkGs5m07yEXo7ZyDq4Zsjv55juJezJ4pM/L+YUg5y7WTs+Jr92BPJ7ubYlhrP5uZE7H3J6OVdX7JxGzVCZMd1L2KO+pNPz6uV0+/n6PxAyDWezaV5CL8dsZB1cM+T3c0z3EvZk8cmfF3OKQc7drB0fk187Avm9XNsSw9n83MidDzm9nKsrdk6jZqjMmO4l7FFf0ul59XK6/Xz9HwiZhrPZNC+hl2M2sg6uGfL7OaZ7CXuy+OTPiznFIOdu1o6Pya8dgfxerm2J4Wx+buTOh5xeztUVO6dRM1RmTPcS9qgv6fS8ejndfr7+D4RMw9lsmpfQyzEbWQfXDPn9HNO9hD1ZfPLnxZxikHM3a8fH5NeOQH4v17bEcDY/N3LnQ04v5+qKndOoGSozpnsJe9SXdHpevZxuP1//B0LmGXylzqWfhyzVztOQ3lrr87B/7lmuFe3x5WjnN0V+ztTWjliK/TlTW9v++clP6+Wlx3/p9ufWT1qWc7VMf047v9ryyyLIZ3ne9pd5v4TTovgbzmbDpJ1r1oBCBpn9fD/L5BiXH4HC9FU9bjjbz84uPqf1ctUCC3wjpB3hpdufG5+0LOdqmf6cdn615ZdFkM/yvO0v834Jp0XxN5zNhkk716wBhQwy+/l+lskxLj8Chemretxwtp+dXXxO6+WqBWY4e7SCSsvyaGZVV6Rdn9ryywLCZ3ne9pd5v4TTovgbzmbDpJ1r1oBCBpn9fD/L5BiXH4HC9FU9bjjbz84uPqf1ctUCM5w9WkGlZXk0s6or0q5PbfllAeGzPG/7y7xfwmlR/A1ns2HSzjVrQCGDzH6+n2VyjMuPQGH6qh43nO1nZxef03q5aoEZzh6toNKyPJpZ1RVp16e2/LKA8Fmet/1l3i/htCj+hrPZMGnnmjWgkEFmP9/PMjnG5UegMH1VjxvO9rOzi89pvVy1wAxnj1ZQaVkezazqirTrU1t+WUD4LM/b/jLvl3BaFH/D2WyYtHPNGlDIILOf72eZHOPyI1CYvqrHDWf72dnF57RerlpghrNHK6i0LI9mVnVF2vWpLb8sIHyW521/mfdLOC2Kv+FsNkzauWYNKGSQ2c/3s0yOcfkRKExf1eOGs/3s7OJzWi9XLTDD2aMVVFqWRzOruiLt+tSWXxYQPsvztr/M+yWcFsXfcDYbJu1cswYUMsjs5/tZJse4/AgUpq/qccPZfnZ28Tmtl6sWmOHs0QoqLcujmVVdkXZ9assvCwif5XnbX+b9Ek6L4m84mw2Tdq5ZAwoZZPbz/SyTY1x+BArTV/W44Ww/O7v4nNbLVQvMcPZoBZWW5dHMqq5Iuz615ZcFhM/yvO0v834Jp0XxN5zNhkk716wBhQwy+/l+lskxLj8Chemretxwtp+dXXxO6+WqBWY4e7SCSsvyaGZVV6Rdn9ryywLCZ3ne9pd5v4TTovgbzmbDpJ1r1oBCBpn9fD/L5BiXH4HC9FU9bjjbz84uPqf1ctUCM5w9WkGlZXk0s6or0q5PbfllAeGzPG/7y7xfwmlR/A1ns2HSzjVrQCGDzH6+n2VyjMuPQGH6qh43nO1nZxef03q5aoEZzh6toNKyPJpZ1RVp16e2/LKA8Fmet/1l3i/htCj+hrPZMGnnmjWgkEFmP9/PMjnG5UegMH1VjxvO9rOzi89pvVy1wAxnj1ZQaVkezazqirTrU1t+WUD4LM/b/jLvl3BaFH/D2WyYtHPNGlDIILOf72eZHOPyI1CYvqrHDWf72dnF57RerlpghrNHK6i0LI9mVnVF2vWpLb8sIHyW521/mfdLOC2Kv+FsNkzauWYNKGSQ2c/3s0yOcfkRKExf1eOGs/3s7OJzWi9XLTDD2aMVVFqWRzOruiLt+tSWXxYQPsvztr/M+yWcFsXfcDYbJu1cswYUMsjs5/tZJse4/AgUpq/qccPZfnZ28Tmtl6sWmOHs0QoqLcujmVVdkXZ9assvCwif5XnbX+b9Ek6L4m84mw2Tdq5ZAwoZZPbz/SyTY1x+BArTV/W44Ww/O7v4nNbLVQvMcPZoBZWW5dHMqq5Iuz615ZcFhM/yvO0v834Jp0XxN5zNhkk716wBhQwy+/l+lskxLj8Chemretxwtp+dXXxO6+WqBWY4e7SCSsvyaGZVV6Rdn9ryywLCZ3ne9pd5v4TTovgbzmbDpJ1r1oBCBpn9fD/L5BiXH4HC9FU9bjjbz84uPqf1ctUCM5w9WkGlZXk0s6or0q5PbfllAeGzPG/7y7xfwmlR/A1ns2HSzjVrQCGDzH6+n2VyjMuPQGH6qh43nO1nZxef03q5aoEZzh6toNKyPJpZ1RVp16e2/LKA8Fmet/1l3i/htCj+hrPZMGnnmjWgkEFmP9/PMjnG5UegMH1VjxvO9rOzi89pvVy1wAxnj1ZQaVkezazqirTrU1t+WUD4LM/b/jLvl3BaFH/D2WyYtHPNGlDIILOf72eZHOPyI1CYvqrHDWf72dnF57RerlpghrNHK6i0LI9mVnVF2vWpLb8sIHyW521/mfdLOC2Kv+FsNkzauWYNKGSQ2c/3s0yOcfkRKExf1eOGs/3s7OJzWi9XLTDD2aMVVFqWRzOruiLt+tSWXxYQPsvztr/M+yWcFsXfcDYbJu1cswYUMsjs5/tZJse4/AgUpq/qccPZfnZ28Tmtl6sWmOHs0QoqLcujmVVdkXZ9assvCwif5XnbX+b9Ek6L4m84mw2Tdq5ZAwoZZPbz/SyTY1x+BArTV/W44Ww/O7v4nNbLVQvMcPZoBZWW5dHMqq5Iuz615ZcFhM/yvO0v834Jp0XxN5zNhkk716wBhQwy+/l+lskxLj8Chemretxwtp+dXXxO6+WqBWY4e7SCSsvyaGZVV6Rdn9ryywLCZ3ne9pd5v4TTovgbzmbDpJ1r1oBCBpn9fD/L5BiXH4HC9FU9bjjbz84uPqf1ctUCM5w9WkGlZXk0s+ooeua732wFadentvzWj7z/81met/15Xi/plCj+hrPZMGnnnDWgkEFmP9/PMjnG5UegMH1VjxvO9rOzi89pvVy1wAxnj1ZQaVkezaw6ivb2T7eCtOtTW37rR97/+SzP2/48r5d0ShR/w9lsmLRzzhpQyCCzn+9nmRzj8iNQmL6qxw1n+9nZxee0Xq5aYIazRyuotCyPZlYdRYazN3Hks7z0/q1TMNNJEcXfcDYbJu0MsgYUMsjs5/tZJse4/AgUpq/qccPZfnZ28Tmtl6sWmOHs0QoqLcujmVVHkeHsTRz5LC+9f+sUzHRSRPE3nM2GSTuDrAGFDDL7+X6WyTEuPwKF6at63HC2n51dfE7r5aoFZjh7tIJKy/JoZtVRZDh7E0c+y0vv3zoFM50UUfzPWAUmY/dkzt3clcCqKGLQjrC2L/OwPz/L87C/qIRUU6wdnxT5/NTuS1MNzqG+vtor2vbPT35aL9eOty9POz6+vtrPc7Vf2sva9qvI39s/1SKT2vkcW15ZfPhe1vanzP753su1/BLF33A2G6Za+RiSwxpQyDCkt7vO93OXf9s/heaxx4f0LmWddXBEBundTE3axvmC6y5tL7/tYvEK1aVBVzR1IaLSelkj5lSmdtCoLg16rvZLe1nbfhX5hrM3c5XvZY2apzJV8lt8a8zHKhqrQdpw9mBo2g3tjLZ6tP4vs5/v5yE5Wna3cof0LmW99WMO/5fezdTWbZzJ5bddLJ6YVJcGXdHUhYhK62WNmFOZ2kGjujToudov7WVt+1Xkk1GjkdMxZZbFh+9lbV/K7N++j9tVOaL4G85mw6RdH6wBhQwy+/l+HpJTaB57fEjvUtZZB0dkkN7N1KRtnMnlt100nF0cgYrBXItK62Waaw26tnf+za1hM5U5V/ulvaxtv4p8MmpoLpZIl8WH72XtmJTZ73fr7kkTxd9wNhsm7cpgDWgYbvnoD4j4Akwy+/l+HpITUFl1aUjvUtarBqNQmPRupmq2cSaX33axGGVSXRp0RVMXIiqtlzViTmVqB43q0qDnar+0l7XtV5FPRo1GTseUWRYfvpe1fSmz33D2Oj+Gs9ky1a4z1oCGgfz7axE/YZLZz/fzkByiSoUc0ruUdZWgZAqV3s1U/DbO5PLbLhrOLo5AxWCuRaX1Ms21Bl3bO//m1rCZypyr/dJe1rZfRT4ZNTQXS6TL4sP3snZMyuz3u3X3pInibzibDZN2ZbAGNAyGs2eHZqQTRJTfkZikdzM1Z1v/5PLbLhbnherSoCuauhBR/N1MHdGIOZVJdWnQVJcGrWEzlZlrs7SXqa7F0GTU5MZnLufKYs73srafZfZLb8nlahHF33A2GybtCmANaBgczr7i8WMi7g6TzH6+n4fkdJQpPAzpXcq6QkiyRUrvZqpgG2dy+W0XDWcXR6BiMNei0nqZ5lqDru2df3Nr2ExlztV+aS9r268in4wamosl0mXx4XtZOyZl9vvdunvSRPE3nM2GSbsyWAMaBoezs95qy+zn+3lIjsj+AqYhvUtZL3C9+lHp3UwVb+NMLr/tYjHKpLo06IqmLkRUWi9rxJzK1A4a1aVBz9V+aS9r268in4wajZyOKbMsPnwva/tSZr/h7HV+DGezZapdZ6wBDYPh7GI8p53HIfmi/I7EJL2bqTlbv8jlt10szgvVpUFXNHUhovi7mTqiEXMqk+rSoKkuDVrDZioz12ZpL1Ndi6HJqMmNz1zOlcWc72VtP8vsN5y9zo/hbLZMteuMNaBhMJxdjOe08zgkX5TfkZikdzM1Z+sXufy2i8V5obo06IqmLkQUfzdTRzRiTmVSXRo01aVBa9hMZebaLO1lqmsxNBk1ufGZy7mymPO9rO1nmf2Gs9f5MZzNlql2nbEGNAyGs4vxnHYeh+SL8jsSk/RupuZs/SKX33axOC9UlwZd0dSFiOLvZuqIRsypTKpLg6a6NGgNm6nMXJulvUx1LYYmoyY3PnM5VxZzvpe1/Syz33D2Oj+Gs9ky1a4z1oCGwXB2MZ7TzuOQfFF+R2KS3s3UnK1f5PLbLhbnherSoCuauhBR/N1MHdGIOZVJdWnQVJcGrWEzlZlrs7SXqa7F0GTU5MZnLufKYs73srafZfYbzl7nx3A2W6badcYa0DAYzi7Gc9p5HJIvyu9ITNK7mZqz9YtcftvF4rxQXRp0RVMXIoq/m6kjGjGnMqkuDZrq0qA1bKYyc22W9jLVtRiajJrc+MzlXFnM+V7W9rPMfsPZ6/wYzmbLVLvOWAMaBsPZxXhOO49D8kX5HYlJejdTc7Z+uctv7x+er5oLqkuD3tpf1ewZi+XvZmq8RsypTKpLg6a6NGgNm6nMXJulvUx1LYY2nL0ZVnwv59aP9Nxiamai8S6Ko+FsNkzadcYa0DAYzp6oi8qzL8rvSEzSu5ma00TgyPGbV6tDG5y9f6pqLqguDbo8g0uTwN/N1CONmFOZVJcGTXVp0Bo2U5m5Nkt7mepaDG0423B21VtGr/JF/Ws4mw2TXoacZNaAhsFw9kK6rl8tovyOxCS9m6k5jUcUYZMrsO9sxgrVpUFnmLTwI4aza9aRdjHk2irtZW37VeSTIZMbn7mcK4sP38vafpbZb58bWefHcDZbptp1xhrQMBjONpwtKpQ4k/RuplKa+jecvaTy4+9mOtNorjVoqkuD1rCZytSwmcqkulJoaS9TXYuhDWdvBg7fyyk1k8O7mJqZaESLYmo4mw2Tdp2xBjQMhrMn6qLy7IvyOxKT9G6m5jQRMJy9pPLj72Za1TTXGjTVpUFr2ExlathMZVJdKbS0l6muxdCGsw1nL2TkinrWcDYbJu3ZxBrQMBjOXkjX9atFlN+RmKR3MzWn8chw9pLKz3A2rd9Sut/RdVdy7ZP2cl1rR5JGcfbFd1yfG6M5nCuLGN/L2j6W2W+fG1nnx3A2W6badcYa0DAYzl4S0OkMF1F+R2KS3s3UnKb+DWcvqfz4u5nONJprDZrq0qA1bKYyNWymMqmuFFray1TXYmiKs93dlxKaWfGWxZzvZW1ny+zvXIU7KUoUf8PZbJi0i4M1oGEwnL0koNMZLqL8jsQkvZupOU39G85eUvnxdzOdaTTXGjTVpUFr2ExlathMZVJdKbS0l6muxdCGszcDh+/llJrJ4V1MzUw0okUxNZzNhkm7zlgDGgbD2RN1UXn2RfkdiUl6N1NzmggYzl5S+fF3M61qmmsNmurSoDVspjI1bKYyqa4UWtrLVNdiaMPZhrMXMnJFPWs4mw2T9mxiDWgYDGcvpOv61SLK70hM0ruZmtN4ZDh7SeVnOJvWbynd7+i6K7n2SXu5rrUjSTOcbTh7ISNX1L+Gs9kwaU8W1oCGwXD2QrquXy2i/I7EJL2bqTmNR4azl1R+hrNp/ZbS/Y6uu5Jrn7SX61o7kjTD2YazFzJyRf1rOJsNk/ZkYQ1oGAxnL6Tr+tUiyu9ITNK7mZrTeGQ4e0nlZzib1m8p3e/ouiu59kl7ua61I0kznG04eyEjV9S/Z6xOHFr4n9XqhOof7fiIjN974fTqxMp9TfR3FvYn2kxjom2/tnzqyxLpJj57L5zyvtYbGtox0c7v0uUvPf5mfzwCi6xPN3Cu/sj9ubdePCZj7mrHX9sXbfuXLl8Uf3ufzX47ov0dPGtAw2Dvsxfy3W2/WkT5HYlJ+g6MmtN4ZO+zl1R+9j6b1m8p3e/ouiu59kl7ua61I0kjA2dz9+WGafJzZRHje1nbwTL7Oz96aydFieJvOJsNk3ZxsAY0DIazlwR0OsNFlN+RmKR3MzWnqX9y7W3oeumgujRo7f6dn3z+bqY2a8ScyqS6NGiqS4PWsJnKzLVZ2stU12JoMnAMZ8ezlls/0nNx7bYriqPhbDZM2pXEGtAwGM6uB+y0E+rJF+V3JCbp3UzNadwh157hbC+/83s0nE3rt5TWzm+ufdJe1rZfRT4ZOIaz4xHOrR/pubh22xXF0XA2GybtSmINaBg8nH3xXUdFxxommf1pdzOVKTYkk5HqWiKd6bbKMendTJU3MSfXXkPf8pFXS+uKLz+qS4NeYs2U2ZzWyxoxpzLLfKlXPw9/5/PULDE9F/t9g6W9rG2/inwycAxnxyPs10Xt57h22xXF23A2GybtSmINaBg8nO0eRSf5i2rtYNrdTGMisyKfi+paIp3vef2T0ruZam5iTq69hnaPlaA21aVBL7FmymxO62WNmFOZZb7w44vqitEpM5PKmYv91KaGlvaytv0q8snAMZwdj7BfF7Wf49ptVxTvM3guaT8PSbJMxCMwFLfOegHO7sgZfCjN8qDgA78Rz/64u2kIbGsbufaq4+ytlkrA3RO49AL03BE85mZZJ/4Cg3kwHREizW8uzpbKH5tvpyc2ue823+QvszgjdSvbmr6Xx67r2vpkcS4aQbwKw9l8jJQ7XFRXZO40/PXvjJ2e2qIQazFNXmDEgNypbThbqzp4uSR9wssgN8vKgy7dEZG/fAQdR/2ZKdWsw7fTE5vcd4azlRpHKFaneseTKnRTl81wtm58BVeXqOLI3Gn4698ZOz21RSHWYpq8wIgBuQjMcLZWdfBySfpEuHP982iFnLvAxkfQcdSfmVLNOnw7PbHJfWc4O30C1OxrneodT+q00dtoN5w9eRpEFUfmTsNf/87Y6aktCrEW0+QFRgwwnK2VZT25JH3C6zM3y4KXAunGCG3OZ5NGvv7MlGrW4dvpiU3uO8PZ0zadTvWOJ3Xa6G20G86ePA2iiiNzp+Gvf2fs9NQWhViLafICIwbkIjB7n61VHbxckj4hGM3NsuFsPhvz4djpiU3uuy3OvuS+G5ZZouktjE6fvpfnU/F5lhQEH1koJgxnT54GUfWQudPwG84WRW0WTJMXGDEgd2obzp6ulEj6hOM+N8vLBDHSzNSfmVLNOnwHD2e7KbTMKk3vYtfs0/eyTvWOJzU38sJhK2MznD15GkQVF8HZx776LpGIONNOT+2468q7kxcYMSB3ahvOVi6SiHiSPtlMX+VmeZkIJhK6zpbh7E445v1A7rvt+2zD2VN06LwLhbcufX4Kx2wKm+HsydPAVwpeYOOqAIEtkZQIk+HsSHCKtiYvMGJALgIznF1UAkWHSfqEkz03y1Pc4une+UGQBpfOTOmZOfPt9MQ2nL1pxul7ec49ILGtfMJUkGA4u0IQy+4nSa1sPiiCqwKE4WxR+KZkmrzAiAG5U9tw9nQVRNLnQ8yBrdwsl82xAWOENuezSTNDZ6b0zJz5DGfn18xUtZqud/pennMPSGxLj7lCXRnOnjwNklrp4Oyj73iS3hmUFskKMu301A56PNbi5AVGDMid2oazx6qWvh6SPuEFkJtlw9n96M93ZacntrvU1l/tcyPpE0A4KERs8+0AmWXTRm+j3XD25GkQVQuZOw3mptia0iJZQaadntpBj8danLzAiAG5CMxw9ljV0tdD0ie6F+3nZ/dj2KykzslLXnpTWNBMVnd6YpP7znB2+gQQDgoR20zKPduMaaO30W44e/I0iAqIzB3D2aKIzYZp8gIjBhjOnk1ZiA0h6RPdi4azw6FNxdmp/GGtequGs4XtsGi23Ild7++m9Cp4HMnp81OhYAxnT54GUbUFcfZT/+0XM97ThPXt9NQOuzzS6uQFRgzIndr2PnukYgmoIekTXgC5Wa53N6fbLHQtwBYIWXApFTen8geVKi7u9MQm9529zx6zm/q6FEt4FNF9jyZYMZw9QdC795mo2Mjc2b7PposiKRGmnZ7aEb/1tyYvMGJALgIznK1fJ0MaSPoCKDO0m5vl7lwKSRYaMCrbUNz89VTcnMrv69N+3umJTa42w9nTdqJ2HWvLnzZ6G+2GsydPg6jOyNwxnC2K2GyYJi8wYkAuAgvi7Je89+klILPZFEKmISR9Qvyam+UlZLMfDWlYU3FzKr/Ujlp8hrOF7bBotul7uVa9TiWnPzEmWDGcPUHQu/eZqP4MZ4vCNEemyQuMGJA7tYM42y12i5nomsv1NseaSLEpPaS5WZ59KoOhkMYyFTen8kvtqMVnOHsuEyZYlpUWp+/lWvU6lZxKiSgrNsPZk6dBVH+Gs0VhmiPT5AVGDMid2oazp6sskj7hrM/NsuFsmmXD2TQaI9PkvrPPjaRPAOGgELGNnPnq6qaN3ka74ezJ0yAqLMydGz/wSvxcPyyKRMSZdvrtSNx15d3JC4wYkI1zGngAACAASURBVI7A7vr8W1arzVUHtA1iCchMOb3q4kn6RPei/byRcEpScXMqf1ir3upOT2xytRnOTp8AwkEhYtOr4HEkTxu9jXbD2ZOnQVRtmDsOZOPRft6IKHxTMk1eYMSAdJxNITVoEIaz9SuLpE90LxrODuckFTen8oe16q0azha2w6LZ0id27ZmsV8HjSE6fnwoFYzh78jSIqg3A2nC2KF4zYpq8wIgB6VObQuq9/VP3/5Mf3ds/RRdrj3VibZ15N6NSyDIlPSDpWZ59EiNBkAY1FTen8kvtqMVnOLvOfIiU1gy2pu/lWvU6lZwZJHF1yHD25GkQ1Z/hbFGY5sg0eYERA9KnNoXUDmEbzh63ykj6hMAiPcuGs/s5NZzdj8loK7jv8KE1Siy5XBPbefpeHi3nSooSAy6csYlshrMnT4OovDB37H22KF4zYpq8wIgB6VNbD2dfdvL2Ue7LGZVClikkfcLhnp7lURKR7ojIX2lQU3FzKr/Ujlp89j5bVB5KVTeW2Ol7uVa9TiVnrExFq9Fw9uRpENWf4WxRmObINHmBEQPSpzaLs4//ykfyUJqTnHc25dQcayLFJpK+6CjfxiQ9y9uzQhUzYpPGMhU3p/JL7ajFZzh7RkWY3qRC46fv5Vr1OpUctdQIM7hmM5w9eRpE9Wc4WxSmOTJNXmDEgPSpzeLsbLicfTARFM6xJlJsIukTTvb0LCeGNN0koeU5bNJYpuLmVH6pHbX4DGfnVMusSldgzPS9XKtep5IjCLJ+IRnOnjwNovoznC0K0xyZJi8wYkD61K6Ls+/71gcA6Qxny6qVpE94H6RnGUlZICGL4qr5Nbqr1erB3/rEg7/1CckZw9mSKCnx4L6jH8sea2Kkd5ywMTPYpu9lpQyPJnYW2TScPXkaRAWHuWOfzxbFa0ZMkxcYMSB9atfF2fSmdPSJ3/m4MrabUSlkmULSJ7yn07OsnIJ0F4SeNmzS/+gIlZwxnC2JkhIPkmU4e+reVMrwaGJVh49UuOFsaaTUyl1UcJg7hrNF8ZoR0+QFRgxIR2AaOPv2T74e1ydF3jotNqNSyDKFpE+IPtOzrBP5dMuFDnbYpEGlIzR+5uQffbba7yWIayrZtc+NdMpgnGIbXcv0vVxSo3M4O3rKQmVpOHvyNIhqkV4SDmrjJnBbIikRpp2e2hG/9bcmLzBiQPrU1sDZnkxlkKefYV0NJH2hCR6IXnqWA0KEuqZn46N/zWsepNOSHZgYtrzoCTl2emKTFNjvg0yfADW7csISr6J62uhttBvOnjwNomLC3LH32aJ4zYhp8gIjBqQjMA8T40do572Q9qRBiCbOm1EpZJlC0ie8PtOzrBn/dPuFbm7Y+KBieDq07R4jxyh/hG3iLcPZaXWiXYc68qfv5YnLvFi9Tl4Sa89w9uRpEBUSRr/hbFG8ZsQ0eYERA9KntoeMDWePXlkkfcLhnp5lw9k0rRi2dHF2tOFsYTssmm36Xp5d4ScalD4/FQrGcPbkaRCVDUa/4WxRvGbENHmBEQPSp7bh7KlLiaRPeAGkZ9lwNs0yhi1dnB1tOFvYDotmm76XZ1f4iQalz0+FgjGcPXkaRGWD0W84WxSvGTFNXmDEgPSpbTh76lIi6RNeAOlZNpxNs4xhSxdnRxvOFrbDotmm7+XZFX6iQenzU6FgzuAnbGmmE8Ny4NhFdQC4U/gX94PpLs2yyItB7QqVPRtdcyro9LuZYg58j+ctyj3sH3QrcgnpnEuvzHSP07OcrmM+J/j8Yni6fw/gHiPzgfJH2Cbe2umJTVKw+cHn+Jes86m8MSyZvpf5/pq4ERjwMEaWWB2Gs9kQaTOI6hhzZwhnX/vaB4vKfaendlFkmDZm06ddPyny06e2h4wBtXHtJQFlTxqEpPiQyssmaOYMqf6uVulZTtcxnxN8+jA8DWdPOgn5TME8kjLD2dP2WkLWkL45EdNGb6PdcPbkaRDVMebOEM52DPn1bTi7FE8P5XHyAiMGpCOwvf3Tt33i9cDHQZx97WsfIjpiJOQAYSfB9Jjowb2hvCxlfdCxwY30LA+KWsAGn0cMT8PZ+ReE1ngMp4+kzHD2tE0YTtBSCmna2EG74WyEYipCVMeYO4azl9PhLrNT1VVIbzoC84C19+jgsgQrP/ydz3vYmmLukK211kT9NeOiSo9DepbTdcznBJ9fDE/D2TOu804eScoMZ0/ba528LKV+iJ3TRm+j3XD25GkQ1THmjuFs0kKi0E3NP3mBEQPSERiA9V3Pvh00hchukegIk94RD3Pf/ZV3ho9VWF1EkUSMTA9BepbTdcznRCR0my0MT8PZUw9DPlnOQpIyw9nT9po0ZXMtrWmjt9FuOHvyNIjqGHPHcPZc+3koj5MXGDEgHYFRbE1pCpQdhr7xfa8gmnwyjrPdrn+mzvNQXpaynh6F9Cyn65jPCT6PGJ6Gs5cyPEnKDGdP22t8f827qKaN3ka74ezJ0yCqY8wdw9nz7up+NicvMGJAOgKj2JrSfZwdwcovec+e4ezcuiXpE5LpWRYKniVbv+P8FQxPw9m5ReiHVFsOSZnh7GnbbuzU1y6taaO30W44e/I0iOoYc8dwdu0+FMW/QOnkBUYMSEdgFFtTeghnX/Pq40TfhnQH6ZEg3T9YY0U7v9ry02OQnuV0HfM5wccfw9NwdsEc4+NcUThJmeHsaXtt1LxXLKFW1LTR22g3nD15GkR1jLljOLvtH1HcZsA8eYERA9IRGMXWlKZA2XtXffRtTxCVDWk4u6AOvVgKHtOzLBA6WxZ+DmB4Gs4uqEM+zhWFk5QZzp629UbNe8USakVNG72NdsPZk6dBVMeYO4az2/4RxW0GzJMXGDEgHYFRbE3pCM7uf4DEcHZBHZL0Ccn0LAsFz5KNnwMYnoazC+qQj3NF4SRlhrOnbbtR816xhFpR00Zvo91w9uRpENUx5o7h7LZ/RHGbAfPkBUYMSEdgFFtT2nD2WKVF0ick07MsFDxLNn4OYHgazh6raPmkxC0hKTOcPW3blaYynmj93Wmjt9FuOHvyNIjqGHPHcLZ+Z4oyIjZj8gIjBqQjMIqtKW04W1wAheVE0ick07MsFDxLNj68GJ4lOPvGD+yNlXHeo8aSnf7NYiRlhrOnbTtZNY77a4xSOnHa6G20G86ePA2iOsbcMZyd0mOi2CoLnLzAiAHpCIxia0obzlYuG5QuSZ+QTM+yUPAs2RCoQQLDswRnOyFjJX3Ql60BhrNnWY6VjZq+lwWlOF+QfahyOnLFGc7OjVy1c6I6xlVhOHt708y6vZHWaoVSQVD61KbYmtKGs8eqw/S0p2c5Xcd8TqDRBgkMT8PZYxXtYC6EBpCU2fvsaXutNJXCjKuxTRu9jXbD2ZOnQVTHmDuGs9UaUpSIdO2TFxgxIBGBPfSvP0WxNaUNZ6dXQl6BkfQJycQsC6WybJc/chfLo8DARxXD03D2WEXLJyVuCUmZ4WyFpkkQWZrKeKL1dxNc1WM1nK0XW6FkUR1j7hjO1u9MUUbEZgjLYBS2RARGgbVHG84WF0BhOaUXRmKW0xWET/R/zkyYr/IqH14MT8PZYxUtn5S4JSRlhrMrN0yiuNJUxhOtv5vorg674WyduCZIFdUx5o7hbP3OFGVEbEZCKaizJiIwD1vTRxZn3/Jjr1mtVk/9j284Tu9nbNPjoHXcr5vN8aWlRyUxy+kKwid2AGff/ZW3OyyOr2hzN4HxOD1xUD+f7UZKuAR3b3WiXiaBHH/i1dVIXJmONJw9Xew3mkVVNX+cPbt/jz+XT29PXmDEgMSpTYG1RwMcu/XIo9synJ2LzEj6hGRiloVSWTbg7P4vKmLPFjDw8xPDk77P3vtfz/cz4nFSBsPZNBraNEmE/z4bZVZQM8s5OlEvkwDx/aVdDGXyiSvTkYazp4v9RrOojjF3Zvs+e3b3kOHsfmknTm0PW9PHCLAOQurgIhXSN7bSiqi/yka5qor0MCRmOV1B+AQAEIh7n3t/mLXmKh98DM8Ozt4/1U+6x0kZZjffDur7bFRXzSKarayJepnEg+8v2ibzo4kr05GGs6eL/UazqI5xAcwZZ9/4/pn9iNlZQO3JC4wYkDi1KbD2aAqRPQztPdr77LK7h6RPSCZmWSiVZQMA6hPs2QIGfn5ieBrOLitFPtS15JOUDb7PvuiWawvKZiFHJ+plEp3xkl6reLpyiCvTkWc0P+5e989qdcL+RCIgiv/eC6dWJw7tvXAKf9yj91U5lWFT73j+DbBtEgPmrTSS+rlv7b1weujP6sRq74XT7iuI4GNkkQpRmxLhop13zVCb514kSJwrA+SUEuBRIGiswjSGJx1TbtErA4/T7T79/34DY9bjt0elCJBEbOYMyqlfZgpFtZim0/c93FNKeVcQO4tU2vvs6b7H2WgWfb+I7+9n+D6b2tb9VlLk2q4fmbzAiAGJb0e8d9j00d5nj1W3JH1CMjHLQqksW/81NlbYswUM/JDBgMp7n02Pj5V03qkGkczi7+tUzCAxH3yfPUp1FRRmlaMT9TKxXSW/I5YucWU60nD2dLHfaBbVMeaO4ewRW1SUGs6eyQuMGJA4tSmw9mjD2VzeqxRP1u8zS8wyqY8iErinTxTJZQ7zccbwNJw9VtHySYlbQlJmOJtpAOXt0lTGE62/qxwemXjD2bI4KXKJ6hhzx3C2fmeKMiI2Q7F0kkUnIjAPW9NHw9niAigsp+QkN3+VPO5/z3z3edRDkNA0hw8vhqfh7LGKlk9K3BKSMsPZmt3Dyy5NZTzR+ru8hyNwGM4eIchxFaI6xtwxnK3fmaKMiM2IZ3/c3UQERoG1RwNOufXIo9ty7zjjX3ViUTeb40tLj0piltMV+CdoWlEJ137/g3ix7R+o+cxnBMPTcLZ4avFRVRVFUmY4u2a3pMuauBKKyyzdY4UThrMVgpomUlTHmDsSnP3Q7/1UcnUWfNqP2pasd3c/YtiGIq0adLnFCOxFx24APvYQNgusKeoCDQI4rL+i47uov9pkzZA5PSriLKeLDp+gqaT5devhM9VW+ZRhQBnOnnGdd/JIUmY4u1qrZAnq5GUp9UPszHK69iHD2bUjmixPVMeYOxKc7ZhJqQlUGM7WQvzJBaF4QIzAgJyCIBu7wOJ9dBXnofygdRwXFL9W6quoTo+KOMvposMnaK6RTXw/Fj5TbZUPMoZnKs6+9vuPuyP4mjZUVeuqYGLPyIuBEJGUGc6u1ipZgvj+mnc5ZTld+5Dh7NoRTZYnqmPMHcPZ8+7qfjaTC0LxgBiBATkN4ez7Tn2Q8vTRFXbdlvdI+UHrON7PyLJW0qMiznK66PAJmlxkcwdwNqau4eyRpy6JvOHscNONtbqsadm3dqw4RfUYzo6GZ4zNfmUEVjB3DGePPPGL1Y1RQ1IdYgQG5DSEs4GiKBGB1BBIcZhHS71I4wt0U3FOx5SZ5m3DLc5yuujwCZpcmlO3Hj5TbZXPBYZn6vts7+C8ysbeZ++frlZEsxU0ei/3IsH317z6wv8bkp5DUywYzp4i6h2dojrGxI/j7GNfe1fmq5eCqU1tm3fLiUJd24VOsid+EE9tICfD2bXrIbUI00tGnOV00eETqBa3jUfD2YrFUzCxFa3yUU5qtW/4cafg2zYQKCoQ4aLcjdXRe7kXtswMzqbGeg5NsWA4e4qod3SK6hhzJ46zwZZc5QVTG0odkay60mieq95Osid+EE9tCpUiUNtdfmAOPkYW+3enQnxE/TXX4lnGz8+mBUBzCiT0xF//vEJmnchYfq965h68d/DGFB1W17/ppCsA8PTffIP/yPGbZ1EtBRN7FvZHxz5JhH1uRK11RIJj/TX/QhK5qM9kOFs/xowGUR1j7hjOXkJv05wy6R91W4Czr/7e+z2oZDh70pJLLxBBltOFxk4AZ19409WueF7y7mfwgSKUU0xE/h7tNZ/G2KRomy7e8K4nsQUCDCCwRYlJq2L927CjUHVi88psI5E3nJ3fGzVO+j21tLqqEYNiGWfwEkaf2rxJHQ7tOugoU3gQ2b+3f+qhf/3TANlkDB0aott+kJlckGXcsnh9JVMp5BLFp3XWmKMRELwD88qJllyfdrCjfwRwBFsg+ltY0UmisMx2iC2tl6MFI0NLSC4lXLW4sOpMBic7Zj/sQY21VgXGJuVx9Pr4BufBBRATV4w0y7H46HRcBY39xHnZweNsXahjmGBi11E02OkTl/ns1Yuq3XA2GybtRLMGNAxDEAfjJjiY1h0os186tQPS3MVDX18FmPKXRPFRnjW7YoNganuF1C88uoLKpHXoSQjyUH7QOknMr7ylnkzr5Qq1jYxTokW0TRQ1sWnMftiDGmutMpwdi5tOJyZo7CeOZtCZ53gmN1XXAMHE1jVgqUNwNLtFVW04mw2TdsJYAxoGCm4iV8Xe/qn7nn9/dwDJ7E+7mzsyDWcrTzpRhYhsEExt74brFx5dQWXSW9CTEOSh/KBFLgy+dxmKUqdWD8RDWi8PxS1hHRmnRDummpAbzq5feNIsJ+RRpwFzDEAh0eFAF+n6fMyub4lgYtdX2pmx9St3tySKyttwNhsm7apgDWgYKLhpL7DAKxmwkd6T2S+d2gFphrNJtEXZnIxfMLXpZYZyGiIe+4sv9qvRk4DqxdUYZFCLSaBid3wprZczK/bcI4eRMiSUEm1hNME2nF2/5KRZzswvkjsJgULC0ADhtvA4iXnjKRVMbGVj6lfubkkU9ZfhbDZM2lXBGtAw9IEOBo03ktrr7dBjf/mldQfK7JdO7YA0H2efeWaAKX9JFB/lWbMrNgimdrCc+uXnrdBq9CSgeilPkNZJYn7lLfVkWi9n1jbgDk0lUo/ycDE0nF2/lqRZzsyvTjNKjUEhobpAoPBATGuqrnbBxNY1oH7h7phEUUkbzmbDpF0WrAENA+4tEN7cwWByDOdedmE7hmT2S6d2QJqHs2vfqaL4KM+aXbFBMLVRSMGqQ/l5BK1GTwLkUJ4grZPEQMXu+FJaL2fWdjteNtPJyzLKw4W69kygCYzZn1SK/ZpcH7d/BxmLsE7PBv6q1ssOHpUMmItYwcRWNpX2mtH9CIi6w3A2G6Z+ZOuusAY0DLi3QGDQeHcJGNqLUGZt2t3ckWk4W3nSiSpEZINgakfKiZaWR9Nq9CSgeilPkBa50PnsoCQynVo9EA9pvSyJ4ZbnguuPuDS146XZQsYp4SrEBdxwdv3Ck2Z5mzud/lKRj0JCdYFA4YFYkF/JpgomdrLMtBFav3J3S6Ko/g1ns2HSrgrWgIbBgzV7+6ce+LWP9oeRx7buQJn90qkdkGY4W3nSiSpEZINgantF5VXU0CO9BT0JqF7KE6RFLqRdElm/5yVQ44taSuvltOoCuAFBU4nUo05c4Axn1y8gaZbT8qvTg8k2oJBQXSBQeCBmYrOKGYKJraJ3O2brV+5uSRTVtuFsNkzaVcEa0DDg3vIIb/r0d6XWS6d2QJ7hbOVJJ6oQkQ2Cqe3dcF5FDT3SOvQkoHopT5AWubC9AIRhCVTsji+l9bIwjBs2gBsQNJVIPerEhdpwdv2Sk2Y5Lb86PZhsAwoJ1QUChQdiJjarmCGY2Cp6t2O2fuXulkRRbRvOZsOkXRWsAQ0D7i2PcFvHf/UjGEyUYd2BMvulUzsgLYizb//kGwOsOUui+CjPml2xQTC1UUiRqqM15mh6C3oSIIfyBGmdJObU3LLPpPVyWm0D3ICgqUTqUSEukoaz61eUNMtp+dXpwWQbUEioLhAoPBAzsVnFDMHEVtFrOFvasaLaNpzNhkka71w+1oCGAfeWR9AtSgP9SK2STu2AvL3908/8/fP4PTWA3QHWnCVRfJRnza7YIJja3g3n1dvQI70FPQkoS8oTpHWSmFNzyz6T1stptQ1wA4KmEqlHnaxWq3MvvdBwdv2KkmY5Lb86PZhsAwoJ1QUChQdiJjarmCGY2Cp6DWdLO1ZU24az2TBJ453LxxrQMODe8gi6RWnHtu5AmV3SqR2Q5hC24WzleSeqE8YGwdT2bjiv3oYe6S3oSUBZUp4gzRi/Hf1JoQhU7I4vpfVyUjCbQeTS5IgHf/MnaSqRetSJ++HZi8PZF916dTtC7eeNpFVIlS5GIaG6QHgVWEXdfIUIJray8Ts+LIvdE3WH4Ww2TMWJYASwBjQMuLc8gm5Rur0kDj35f3+N0e+20+7mjkjD2cqTTlQhIhsEU9u74bx6G3qkt6An4ZL7bkA1elv0lMj+HKjdqdUD8ZDWy2nV5aGcvf1TZ571PUgrJdqkNzh1cTgbdY5fsgMXQExcS9Isp+VXrQ3TzEAhYUSA8CpwJgZrmSGY2FqqN8N24jKfvXpRYRvOZsOknWjWgIYBc98j6Bal20vukPRWkE7tQDQMZytPOlGFiGwQTG3vhvPqbeiR3oJDEihPkBa5kAy1AxW740tpvZxWXR7KQT1g+IBoR9BicPb5V78IpUv8svfZaRVSpYuRCAwKEF4FVlE3XyGCia1s/I4Py2L3RN1hOJsNU3EiGAGsAQ0D5r5H0C1Kt5ec4WxReJVH1WxsEExt74bz6m3okd6CQxIoT5DWyQLTfju4bTi7/WbMK0VMyGD5kZl5CnVu77N1upIZif3EeSnD4yTmjadUMLGVjdnBAVnVJaaSXXYMZ7NhqpqUgDDWgIYBc98j6BalyZ1xOqCzv5R2N3fO2/ts5UknqhCRDYKp7d1wXr0NPeLaI4XXfJCX8lOeIC1yoYVQYuZOrR6Ih7ReTqsuVx40fTTjKB7kfUGfz/YcaR+b99knfven8ReDICauJWmW0/IrbitdsSgkVBoIrwJnYrCWGYKJraXaPjci6nBRIxjOZsMkCnYBE2tAw4B7yyPoFqXbS8LeZ4vCqzyqZmODYGp7N5xXb0OP9BYckkB5grROFgpac6FHpQjMuZdWnB7KQT1g+IBoR9BiPjfSGtwZtvg+AfAaxMTVIc1yWn51ejDZBsyQe37x3f2Sc0ZifSY2q5ghmNgqerevMyYu89mrF9W24Ww2TNqJZg1oGHCfeQTdojS5M+x9tijCytNqHjYIpjZuuH45ebVHHx0zjniPpBo3L7kpA2idFGj37/zkSxGYszytMgFu9vZPnfidj6MGvNSTdcPZOhUizXJafnV6MNkGTCGMDkwJWoEzsVbRDMHEVtTeoG37Lx4BUW0bzmbDFI9y+S5rQMOAe8sj6NaLjr04tDslzr7y6XuLAySKj/Ks2RUbBFMbNxwtLa+u+o/0FhySQHmCtE4SiwtwcQKkCMw5llbbFOXQMkC1gHC7eB+sFsWY/V4pwrZg+bUGd4bt4RuuxOfinAv2PlunTzt5ROKQFC9leBzBmClVCCa2snlqjbsjgjt1O5QLw9lsmLTLgTWgYaBXGqUjW+2oUsTZt338dbhH8dO73D1Ev5ZFUBSfofq29U4EBFO7LRv/09W06vo0rj235T32FykD6I6p27+4LCyAsupb4mnD2W3xeMXsKi246G2RCm9+KCGGmxt3sygKaZYL22ea48gRRgemhNvCo87QmMbrgC+CiR041dZ/ja1ZFPuMjRCViuFsNkzaKWYNaBjI3N/+W3hvGPV51gcVcTbANL2KsFjpThLFp8ZAOQCKQlP70T/7AqL36J8/i6KKVN1ApW2hOW5BykkXgzTMqEpo9+/85EsRmLM8oexv+/gPUpTTTy6KB1v4PrzSNOhHO2Y/7KH1Flx0DNiC/Zhse/unL73/ZjUv+n5xK9Isx+JTtdFqKvIS4ezEIn2crQt1DAtN7DqSpVicq8ODvi8qe8PZbJi064g1oGEgc99wtihi4w6jhZgUmtru9nLhcmXmgZKh2qPr3hHvsS+WMoDWSZl2/85PvhSBOcsTShd5dCnrFwCQELZ2CWfTNwjTZ12a5YT86jRgjgFeIWE60VlBB9d8LK9sSWhiV1bBAO7pK33eFojK23A2GybtLLMGNAy4tzzi5f/mU94KfVwftPfZogiPO7w2Jl328ttG1Rua2vS6csWDy4zWUpz2jniPfbGUAbROKCr37+WP3l1ZYnVxUgTmFCd0B/LoUkZLAisgWubtv4N0OLW2uzH7AddQY61VzUSlizAbROvd9nMjhrN1OjSQQWQH+fKShcfRTJpGUWhij2tJ7X7dNXmB6u0nyHA2GybtumANaBjaod95mc0urg8azhZFuN8bI6xQjDuCulVoalMbcKt595ys0g7E50Z0wGLVIaOPsy+65WqvJDCjQLS1ZDi7anIhTJrl+U6/yMTz5o/jxCJ9jAjZha3QxB7XLxScEcEIiPrLcDYbpmBwKy6yBjQM3q0mfDScPe5IEqWSmkQxLl3XokNTm9rQYqPt276USjOcXXEsFIiSIjCnIqFoaXl4hfHA//nR4K59bqQgkdGj0iwn5Fdr7DCfTAhYCEiNonKXIL5S4vo3PzwfyytbEprYlVUw2YkWoW0y0dvUtuHsQJN361i7lFgDGgbvVhM+rg/a+2xRhLtJH+kIxbhjGBCa2tQG3GrePcfWG669iATKc93rTkAF1nUiULl/7X22y9dQSXi7hrMr1x/EGc5ef/JHeXqMdBEMjr7QxB5klmG+xOMoOCOCERBViOFsNkzB4FZcZA1oGIZutfj6+qDhbFGEE6dPHZkU445hQGhqUxsiKFlQaQnvs/uK1Nyv2KqNKMPZ8XHk7RrOrlx/EGc423C2CrD2rjYUnBHBCHjhCj8azg7Hhdz6weBWXGQNaBjiKGdo13A2yaMoziPzU4w7huphnH37T78OZeYIPA5VF133jniPjrO/SFeu2rtHJwIVW7URZTjbZY1mn9Le7vxx9r3ffN/e/qmL77yOVinxyP4d5ASTE3/ZhaTQWeEGBYYnCJ0BMoH7W0dCE3u7azi78nTPECcqD8PZbJgyQp90hDWgYSBzP+GfQq4P2vtsUYTHHV4bk8a+IUJTG1cayuya1xzHorDw6C2IsxCIyxJbwZUjBCAQrwAAIABJREFUJ25VyEJSM/LMhrO9tHoV4u3OH2fH7ac/P9ulfi4FYO+z7X224Wx+YGtziNCF4Ww2TLPIk3cZCB/Xd57hbDbFPsOdn32TAuDztThE8vh//Mo4uhotMpztqssDTPGSc8w44j1SgeAB5vZWakejcv/OBWZF3JIiMCciUJZDKaB5HKoHms11iuf+80Y8R07+wae7K/Y+O6FChiondR3DASV39uFzsOikuUeMmlQVy+APTexxLY8MGttaCXNhOJsdItrFxBrQMHRHv/SV9vqg4WxRhGnDYILTRQ0at4iG8IDM0NSmtxcts6Sqw20HjyAWMj0eMFBFAZtL39lU7l/D2fjRIsgsJWg21yleGM6mvqxpw9nJ87O8izEcXDpQVJghQaJc7+wkhCb2uEZWnp87J07UHYaz2TBpFwZrQMPQm/4iqL0+aDhbFGE6vNyUpytKNG4RJfm+2NDUxpXmlZn3GK9Ax4wj3iPchK7Iim+z4ezUCaT8PltSCeBZ3OdGYHlLGM5Onp/lLRwcFFi8/NE7MWEoUa53dhJCE3tcI1Onz0HjF3XHGXzOps903BPtvMa1l++K7Pc+Jih8XF9yzU+B4P9kZRmDr72TNj9xArPPMfDaYxaK4lOXabR3li6PdY2PSQshMOcsvqK0gJCwEiEcM454j3DT09JnixmfuSco/lj5+cdrlLQvs6xBetLSejkhrJECwBZqoE365h0BZkJlZ6Pmo968SvMeYXyI6LzRUPOil0S2JqVZjgZorptIXFtFnb8Vwa4z3z3O1ZUyu0ITu0xi6un0ymRLd6cYRPE0nM2GSbvOWAMahtAF0HnREmRYHzScLYowZRptcOMWodoV6dDUppcWraKkqvOAi/cIN6Fro+gfvuWtKPheuX8NZ9Mi6dNe2Thgim/Ia4PsQ/GCQXV5Bek99r0gK4az4zFW2UXiXCJQVB7hdDtmFTsmFxqa2OMaVXl+KkyAaS0UZcNwNhsm7SyyBjQMZO7z8BrM64OGs0URpkyjDW7cIlS7Ih2a2rjSvDLzHlFUQeLkH30WckB4EtyjtwhmtVBU7t+DibNv+tD39RMXrASPzXC2FrCw99n7m49EuhmiODYnFB2a2OOaU3l+arXDZO/IRdkwnM2GSbvOWAMahuCVxi6uDxrOFkWYMo02uPvg8pyLD1NLKtOhqQ2k65WZ98gWG+SA8CS4R28RzP1QVPK9cv+yOPvh73z24e98dsrrRIrAXGREYfbSFCkGL7+Gs7UqQZplUX7nxuTVG4rKI5zZjnluLtSxJzSx60iWSqk8P7XawXC2cmSl9ZLLp11nIrsiF1tkaz2VDGeLIkyZRhvcfXCpqzo0tXGl4Q6DVZHSCm5d/6ZH6NmgQG8R2nGQJqIGXbl/gbOPffWdwcnm/q1CcGukRSkCM5wteX9hnxup0YWJMvpjAfOBEk6q7sxMtLwye2hiV1bBiKs8P0eagePBbiZ8btveZ7Nh0q4z1oCGwQ2X1K/rg4azRRGmTKMNbtwZ0K6rOjS1caV5ZeY9JtWeO+tJCC5Cez8UiEkZUbl/gbNBeDfHruLs+059UFIDvaQH/h3ki9/6qBe0gsdYdaC6vNrzHqN+Gc6ORVhpD4lzqbnhh57CfKCE0+6Yn/nuN5/57jeV7JlMbGhij2tM5flZ0OnztESUDcPZbJi0s8sa0DBEb4LBT2yvDzY4+6W//EGmvtPegW1i4qAGftgIHvGv8oewCGNM55tRUXzqMrnBXVdmUBruDOzqqg5NbVxpXpl5j0kV6M56EoKL0N4PBWJSRlTuX5Q0CK+YdxVnCwugl/QAzh4KnRdJ2WOsOlBdXu15j1HXDGfHIqy0h8R5qUF1IYMg1AaIkosysaGJLTtZi6vy/JQ19YKUiuJsOJsNk3bKWQMaBm/cCB/XBxuczV9shrNJHtyUJwtaZP9u0FUdmtq40rwy8x6FJQeP9vZP3/ax19JTTmBfLF1RCHTl/kUrgcDNcdXePfTjyFgfm0jrZVHIaR7jNM3murQMZ1euwE05SbMsyu/cmDCUvGJDdTnCmU2Z5+ZIqT2hiV0qM+28TvV2XqUtWoUomoaz2TBpFwFrQMPgjRvh4/qg4WxRhCmTG9x0RYl2eaTCdVWHpjZuKa/MvEdhyTm2wy+5qs/vBPbF0hUaikp05f4FvAYBGO1W7H02TT39xgMRA4HQFRCxMvFqG5U2VIrU8pa299mxCCvtIXFtFjZ/Z9vPoJdKJXsmExua2OMaU3l+FnT6PC0RZcNwNhsm7eyyBjQM3rgRPq4PGs4WRZgy6YJdosnlkSw0iaaPlenQ1MaV5pWZ9ygsuQibE3jPN97n8VBFlf1txFXuX2BEEFDhVgxn0/wazkZ5VCbsfXY7KjHBdIenwmziRYYmNn+qJkfl+Vm5C2qP93TzRLE2nM2GSbvOWAMaBnp1yen1QRWcffnDt+PjKPb5bFEKQ0wulXRnb//0kQdupSs16dDUxi3llZn3KK+6Ic4hgXS9prMbWZX7F/AaBEaz4WzUEmrAcDbKozJhONtwtsK47ImsPD8rd4Hh7LEC2iuMygvadSYyF/dWErFGMCo4G5AC9yhe43lbxWUgik9dptHei7hsOuNv+8TrgTjrurOVZji7eC4DXoNAhaPy+1vgGYOQIjA32bbVEaHkYwc13Nb2jD6ffc8vvre1avMXRwK/Op8buePTb5g4uShgaZYjWZ3vVv8bNpo47DoH8Dja3B4vcKGJPZ72RpM2/lm6fFE27H02GybtOmANaBgE90Hgp44YzhYFt8c02rzG5eFSjET3LKq0EJrauKWgHVblVd3QKU8+2K58+l7QlfxsxDz2V19ZS6vcv4BZIHAVuRV8w4n1sQkpAnOREYUcCWKJIw/cSnnwfTj++osSNSITsz9e20MFSe2nf1kHuobZxWUpzXIsPrPdQ+K6uWg+U+dWHOHsp8yz9SjTsNDEzhSVeay4UHccqYvCajibDZN2nbEGNAzeuBE+rg/a+2xRhCmTG9x0RYnGnYFrg67UVxqa2rilvDLzHoUlF2GTCKzocpvEyv0LeA3ime8+54CX4ex+9g1na4Fyw9n2uZGK43JQVOX5qdUOk6H5wcDRDcPZNBpBWrvOgkr9xf4FJlm5/ZNvxN3P1Ld0am+iQcXiNY+3iBdXN33olYz2WJP4oRjhuYVo6qpcEp2avf3TZ194Pl2pr95wdqzSRJ3uihy13ScO+Ptsby4Zzi4YfdGClE7s+lNkBIl7+6df9u2PeLWENwIgMDnxPfwIto2qIjSxRzWgeGBq1f9cDBNlw3A2G6bosKuQbNaAhqE/ccQr07/PBjTJajlRfOoyTYWzkdPVavXgb37cfT32tXdX8y40temlBQOwSFcKafr5kCFR1Txdt8xaWuX+RTEPEYazaXL7OPviO69D6LIGgpfQWMmgjL0R6h69RWo2oTufz54+ubhxdh1nkxRsPxKJlCGDIBx/rBqWuBea2OP64bWbPXoREGXDcDYbJi+s1R9ZAxqG4NCRLRrOFkWYMo2Dsx/6vU/Su4FmU+vyCE3tOBahVo1A0ywU0m0SKzcsMOIQMT0UkyIwFxlRmLNT38fZteMTsz9e27K5ajg7FmGlvaF6Q8owIUG4I0r2TCY2NLHHNaby/KzxrfWsTBJlw3A2GybtpLIGNAxDc0ewbjhbFGHK1EI0ulafRu6caDz2wUE13aGp3VfnLCmruu0rKOoXS1fz1N5n48UnQ4hCziZuiMFwthawkH43Jcrv3JiGy2lzFQJeg3BH5uZIqT2hiV0qM+28Nv5ZunxRNA1ns2HSrgPWgIZhaO4I1g1niyJMmQxnA3wLCiwTUgcl0ywU0m0SK/fv0GtsBygprNQCWAxuPrSSIjAXGVGYg8mSLB45fjNeYLvQ4bFSfGL27+2ffvrvnusXswfOoo7Y++xYhJX2hjKCqxAZBOGOKNkzmVjD2ey4m5hBVBqGs9kwVb6ne7cLa0DDMDR3BOuGs0URpkwtRKNr9WnkzonGI2AB8l5Nd2hq99U5S6CdGqZNV/N0lPfZdz37VsBrELVxZPr8mRPOdtEAwlb4PiRWMihXr5jdo7cI5i5hODsWYaW9bgq238kjZcggCHdEyZ7JxIYm9rjGpM+fiYHvyAaLsmE4mw2TdtpYAxqGobkjWDecLYowZTKcDfAtKLDtLVjOTLNQSLdJrNy/9H02hY+Gsweyv8GpavGJlQlM8kaoB87AFiIMZ8cirLQXSkQzZ5BHZBCEO6Jkz2RiDWfPHbWLSsNwNhumyvf0QXuffclLXwJo0vNdEls2QfUZWohWXzKViLvkrPPOwf2B28K7VOjBfDo0taEoaAOMHIfId613sk3ioSsevyur8MLFiWLGe2u6ovC+NmxGzKOFvM+++8tvj3khvV97iScLKNpgbR++4UowDBOGs0lAxyKH0oE8OsKZgwnWtvxYVo6gJzSxR1BLVKTPH2nn7oZkEqph0nD2cGw2O9rVwBrQMAzNHcH6xO+zAUdy71RRfOoyjTOvae68FLvHx/7iy46nmnehqY1bKmgDNXIEupqn5HMjwMG5FdiZAJCGwnYrl770RkdgvYq6HCELwdmIZI6P27s8VjKo2ILaDuDs6990sszmTkVlipJmORaf2e4hcR6BPDrizs++xRF0fbZO5RgWmtg5cvLP1KjVbbfunjRRZA1ns2HSrgzWgIbBGzcpj4azRRGmTDPB2cjyarW69GW3UAsz6dDUPiA4+/ZPvj4T0HQvCaBD4GkPXmO9irocIVIE5iabqJRQiunE4OdGEMkcH7dJidkPa70R6j2CLUQEcHYly8tuFmmWY/GZ7V4oEYHPjfRn12w9yjQsNLEzRWUeK6vSbZ/uqhxRWM9o/nH6sv+sVidU/2jHR2T83gunc/+cWp04tPdC87XiHycQX/deOOX+QJe3VaBaFJ+6NbD3wum6AoPSaEJXJ1bsY1BI4eLe//ct5yy+wgzPJKyrEjd9+fsKPcLxNomb4q/VApDTL3ha8wUFX7NPb/ryKzlL+P46+Rc/U5D0wGRAoDjbJKGI2Q+zb/36D4Dulzrd6tEb+zHikPcaxkscLOSJxQfNMjeil4XN9Yeh5BH0cW6+LNyewvLb+eOi/rL32ey3I9rfh7EGNAxD398L1u19tijClGmG77PrmNR7O+LqxxWYV2beo6DS6vyDSJqIErqN2CG8by57b7qZA3iXiffWkO8RVdTlCCFvOmHtsBw+xmWpn8X7bM+FlNq299l8hVTn8PKFRyTOI+hjdWOmFNib2KMbo41/li5flBDD2WyYtOuANaBhwKBJJwxniyJMmVqIRtfq0zSVXoqDj6vV6p6vv6fIjt7UdjY4dUGl1Mhx6CIHyeE2iQcUZz/wax89/isfMZwdLFqv1IM87aLhbNJUY5Ft8P1v3ZE4j6CPY9k4ip7exB5FK1WijX+WLp/GapA2nD0YmnZDuw5aPdH/D80dwbrh7GhkQ5stRAvtrdfu/aX3D+6JN2jucE+4xeCjWxSLDzH2pjZVF1RKjRyHDtmds9Ym8WDh7CMP3Nx8nmHVeI037sMvsw9JIluW960Z3vt+wfcAktkb82DIcq/Uh9jW64azYxFW2hvKCBLnEfRRyaRpxPYm9uhmSHrwIPOIEmI4mw2Tdg2xBjQMQ3NHsG44WxRhytRCNLrWoVmGDvfAA82dl+Lgo1scECZbJlP7wpuuhhZIjphEt1RpmSc8V5uj+jj76f/nFwFk+z8WWoZutaZKA16Xg7Nv/vCrot8DSKIUq4ShQkXlDzGQdcPZsQgr7ZH4d15pI3EeQR+VTJpGLJnY0xiw+/+QUTJkIjyitBjOZsMUCXGVLdaAhmFo7gjWZ4qzb/3x1xz7+rsuePER7qIVxacuUwvRBqWyDIMnyQbNnZfi4KNbJALSSTK19/ZPn/yDn3E2QDI16d7n3k8fR6PTvQqfaHNUH2cH38sCXoNYrQ498bc/x5V3lRnSCDnr/LM3oH85OLvGK+1w9t3qUNF6/TXEtl43nB2LsNLeUEaQOI+gj0omTSOWTOxpDDCczURAlBbD2WyYql2EAzcua0DDMDR3BOszxdkOjuztn7r7K/FfVyGKT12mFqINSmUZBk+SDZo7L8XBR7dIBKSTZGr3tXtKKcOYdLpX4RNtjqbE2TVwpHT+AP3XfZ999O1PlGU/9rmRGvEJZ9+tDlmeUuqGs2MRVtpjE4cMYiq6I86em37kVUqGjS2WTOyxVW/0SefPALzZ+eOitBjOZsOkXSisAQ3D0NwRrM8dZ3N3rSg+dZlaiDYolWUYPEk2aO68FAcfcaMQGYkkmdp97Z5SyjAmnejSIHubI8PZ8Qk2GEC3UZx6w9nx+Ofukp8qE4U4TH7nuT1UdZhRHkEfHT1Pv5KtIhM7+WydA7n1ybwG3hmxoiifwXNNn+m4jTuTsJgjePubQeAjpLFxLJ3aGyO3L8+63wNgxjmUg3HZTyG2HOfhG67s86xXYmGJeVTQ5xz030C3Qu00lfi8r1sMPoryGPeaZLmv3VNKGTTpzucvW3A8UAspy60obZzdfA9Mr3lX2M7S1oYUuxN5T/7hz0DX3V98e6NxPbHRX5w8pr9qpf7mD78KQ8MjCvsocnzI+PJSjyhN3OLyM7QvvZeZ/CZaO5I0NnHIIKaiO+LcYQf4PL0OWEUmdmC3mfba/2lnXNt+bfmi+BjOFoVpoMTHOzs0dyTrmEQxL/h+7jiLmxIIA/ACsINuecV+3eteDhywt3/6nq+/ZxiRdPTGXIhDzJRddkyzDBI7ae5wbeC26O+K8hh3k2R5SD5dH4UeD2dfePNVkrzEeVxMkC/6jSUqH8UMwqv/io9QgYZanVg9893nt49E2Ut/+UfIkyOZ/qpbAyRuzfc/Vfookq8h42HGEAO7HlGauNVLiHDhQOLsu7/4VpQNJZBQF3ztukpMMdNiMWlkYg+wCcslm63A+PhltNnNNmwmB0XxMZwtCtNAiY93lp37EYYzzzmTnzt8P3ecdQLXXzufaaGwI4KzAQIoMdA3Hb3jJIINF8sgsZOmDPcEvTzA4HbxVSI8zEOyDOEklRvoQ7f06fFwdsWsIV+04EfD2eddfjGaJYizh9oKzDgerhNyQdYtABI3w9luspFUJJEHEmejGr1Coo+OZgt7GQxkYg8YnFQ0Gcza92+GSbM6IoqP4WxRmAZKfLyzmC/ZBOMC388dZwk4M5zdiQwT5wEEg3vC5Tf4WOH+IFmmhQTJdHEs2nB28rVB4TJoYOvmd1Dvb6O6kX7mmfiWoKuPqd66ZYDCpoS8ZVI5h4yH9iEGdj3VkmH+bjbkT4az278PwWWEb6RBDIedKfu5HCQTe8AkecXkcWoHKs+q+ZwSxcdwtihMAyU+3ll27rMMjAt8P3ecxWijL63dle99dVe+1xYUB4D2eNrHjl7GC4JiSzjZMc0ySLTTlHkXf/DRLUokD/KQLPe1e0opgya9RYTBUmnLIPn/LQDdfj67YtYQK4BXGA8CW8mmRw9c/ujdzrUn/vZrVMW2j0I4m3ZlVzzTX3VTT+Jm77Nd5LvZkD8Zzjac3dx32v8x82HwrpHexdr2a8sXxcdwtihMxcVUqqX8tmNcIAiM4Vz3j+FsSZTiPDSnwB9uMfjoFuMymV2S5b52Tyll0KQNZ6fdBMDxHnROwtmXP3xnq5UZTXVTjxqjBFO00gs74MiQ8dA+xMCu17O5zUPq/w1nG842nJ3aNfX5A2OnPxwMZ4vC1A/cyCvs3GcZGIMJAmM4Z4CzL7nvBomR2Tzsi88hhnMvvUCulKbMu/iDj25RLj/ASbLc1+4ppQyatOHstNlfBWe3L/tXgSLp4tq6qUeNUYK1IZthyHhoH2Jg17NN6h1My/6W23B2CGe7CTw0n3vBn/3tTyb2gPHbitChtEOkY/V4UkXxMZwtCtNAiY93lp37LAPjAt/PHWeV3mdfdNt1vQbp6HVeaI9RVr5juPKpu72osgcpP02Zd/EHH90ilZBMkyz3tXtKKYMmvbM4+/o3P0rgbK+ucxeCOPvI8VuT3mc7w25419PBEjr5B5/Get3Uo8YoAV3ViSHjoX2IgV2vZ2puHRjODuFsN4GT5nC9VAauqlLhZGIPiMqtH+k5Bac638lL7Zgrnyg+hrNFYRoo8fHOsnOfZWBc4Pu54ywZZ/4/uqJ/nb29+0mX3PGZN2OdEvTDpoS9o/fiu653dyTjTqeTOxIkB9kxTdzfCr/iibvYg1Q7TZl38QcfKzhOstzX7imlDJq0j7P3/te3SPbzyRbjTvb5bFfb+Q4MnITYYKM1i4LPZ5Oz2wJGcdIyrpt61BgloLc6MWQ8tA8xsOvZph77+R/qnh1IM7tsONtwdnPNaf8XmA/dAi5k0LZfW77IfcPZojBVLawcjezcZxkYFwgCYzjXEJYAzWScTbE1pYM4+45Pv4HaQ/Q2YXzk33+W7taiKc4IyvTMcDwuBXc9+9bgkf4iTZl38Qcf3WJfTsIKyXJfu6eUMmjSPZy9/rUvJdPxkX//eVJLBw5nX/kj99K2Oveyi+/+0jsIsG5CSx4D44jWf93Uo8YokVDAid8/DxkP7UMM7Ppjf/mlPLNpbNcScivdcLbhbMPZud1T71xgfvYng+FsUZj6gRt5hZ37LANjMEFgDOfq0JP/5WsEaNbH2fd8/T1oA6foyIlbX/zWR93tiK8g7vj0G9yvILng+iOs8RKG3l3oFwlxf7uFFEhUeDe95BH+CuUH2EiWYS31hS6ORdfH2QRENp8/hoNsWgMR6wE7Fxbki2JW6PUIFHMVgn2fvfdCIKQw6YHf+Bi1OegyDVTdMkDcTv7hpxHJoA1VFoeMhxlDDJL1PAtpbNcScovCcLbhbMPZud1T79wWAEQGguFsUZgiERxnSzL34zyMnQSBMZxr4ALs4u5svD/rXuFbCE7LGswe4Z11R6AIBJATCOc4Hln7WYbeXbgpkqv27nFnqTGQhvhjJU6AH9Kw4uEAuDZkWFzRdpdkGbr29k/d+8339W2gDJp0ABTSasmggSnXZ/Nx9lkXnL0NXQu4XSiQIFq00OsRGS4MHTn5x58rxNmwrbU8MABpmdVNPeIGsUff9lg/yLVWoMUj+mZ4DJLHPCNpbNcShlLNrRvONpxtOJvrEv39wPzsTwbD2aIw9QM38opk7sd5GIMJAmM41XD2FU8coyDAdQjFf324Gdxl7WcZenfhpkiwDr1UFOJPFyM0+CENKx4O6DseERvbIlmGLhCeUqwrE/PF2Ug3DamLBmLVotXNt5TucW//9JEHbwMgrjjr8a0p1Qulm93o+2zaYms6MACp43Wzj7hRsTS8dWmqhdJBMyiDhM4zlcZ2LSG3OgxnG842nJ3bPfXOBeZnfzIYzhaFqR847ZWHv9P55LFk7sd5GIMJAmM41XA2cImDAq4TKAZ1tyO+gnCO43G1OnTukcOsFxGG3l04Mc6+7KFbEYeI2fwWyXK/WlwA++vKK7uJsykgrjfTO39B5CFmaIx/bsQ7FawZWv91sx+ssaANVRaHjA+aMcQ8tJ5nIY3tWkJudRjONpxtODu3e+qdEwFIw9miMOWN1JJT3jgemvXydcYYgsAYzjKcfdUz920BAfnt0FjEizrXCcCXICiexiIIZ7x7ZB0ZYhg6vrd/6v5/+qOP/eWXPHVQ6tIxJNZbp7nzLn7vEWKHDPMkDz6SLFPtVH5/XXnFcHbCzO+3yd7+6UvuvRHrDTHwPvvsC893bGixA/s++/DRy8urerDL2o8YBRnQwudeduGaISH7HVbD2QRnH/vqO5FQekEEU7CkRTKxB8zuFIXCgzZAUjB5VJGi+BjOFoVpoMQVz2IcO9UYItkE4wLfz1tnnQ3tONu+Y+u9KttuofI7gCCKs697/ck1IDgF0Nlq3Hzilj56wNeLHuN7714cOk6DD+0Qjl2sxAnww3iswGWsgCcus7/75H/52naRZJlKdnRQaZ+t9sogzj7vqktQNkkErUOkCT5uo9HLu7fllcGVTx9DiAjRFDk+uQECdZ5kOctMxe7tn77v9IewsiUGcDYY+jj7nq//8Gp16M6feZOLAHW8broRNyoWYb/xA3ugqxBUS3U6z0LEtiXYnA8wHGycfd4VF7mE9ivqxg/stbHd3ll5yZr+FJnYA8YMlEe1Ze0YVjN0IkGi+BjOFoVpoMQVz3qTovySYFzg+3nrLB1wHrCgV/gVjzeft3Z/0ANYGSKohDVdhLMf+LWPMo6HwJYXfEigWXDzHVt03NPFCN2XhhUqzVuMCAxudXwhWYZYEEGl2FUjBnG2w6+oHDkB4Ls+4v87yCMP3BwMVH+xE7r1X+MgRIRocPaNH3gl6twrbLnZEk4I9/oO6w2RjrOdp/AXBNyslf2gQESe6j3/2kuwnk3UMjsoJ88q+NgSkrSHeA42zkZGghXVxnZ7Z+Ula/pTZGIPGBOqjZpr2jGsaesUskTxMZwtCtNAiSue9SYFxko2wbjA9/PWWWeDG3DefU9RMr370QB0MUhTCWs6jLNv+8RrWwMaIOXChaD1Ccb9LtrGce8UDT60gwe7WIkT4IfxWAleHn2Ncflut+MLyTJ0gQgqxa4aMTbO7gSkm3cvnh4nTRNiFax/WtgnfuenUPzlBCR7erHeEEvD2S95z+bXUtKAU9rLi/xRrWg3A0duCTjhV0vkFsWO4uw7PvNGNJckfUPMCPiyCTKxBxzJrR/pue29P2BAIYPUjrnyidw3nC0Kk06FxVS3U3jDI5k4cR7GBb6ft9Y6RW7Aefe9e7z3ufd3Ln7ym0e89f6jk0C+hnG2iw++gnBuusf7//GPOILxvQe2hk7RCLfu+2Hxzh45Pvj2tC8NK8HLo69R4lfHHpJl6AIRVIpdNWJJOPvMs1cuDg/9y084Ilj/XlVXvCEg2dOL9YZYGs5GiYLIK/V+O6gVbQ7OvvuLzW+wgo8tkVsdO4qz9/bnpWoBAAAgAElEQVRP3fj+5oMfwj9DU6tfDItcIRN7wP7c+pGe215wAwYUMkjtmCufyH3D2aIw6VSYr9r9Khanq53CGx7h0Imwveju5jeWD/4J9fPLvv3hPv95V13stLR3xvZD2Pj7+s6tv/7oCJqkv+WtOADx6J8+20rLx9mws+9FfMULPphpeFv3tyHFLvj7PN4WPQLaaaePjo5Lo5Ip3fGFZHlIfn9deUURZ1/1ipciaBkx7ISu/ee/XjQ8vOs9utpG8ZcTaJagos1uFs6+6/Nvgb8gXPQ8l0sehwS6ivX00jLOo0tMZc+mmuS8g48tsbr6VcdzCmN3cTYbecoQr6jUHM2On0zsAdtyaiflzPaCGzCgkCHFljnyitw3nC0Kk06F+arbydusU3polNBxI6FjXoT62bPBHYei1kgpzr73mx+IgQPySe4umDgQOPveX3ovAuvCTh8d3QbcL5tYWr1CIlkekt9fV15RxNnrb9X8z2cHqzoYQ48zGAevpL3HOePs23/6DS4+dLygxxGQoNfZi1QXFRLUCxuyCaqiOp1qFfq66+zm39EmQwjD2eTjgv3kpmZnpvxkYg9YmFw4iQfSrpsBIyNCEs2ZHXvEte2W4extLNJLpPJZeq9Teuhy6g+X+ErMwVA/eza441DRwj4pzm7fTwdwFYD13v7pG374aTyuUcsgzr7m1ffj6gIBIxG0mNcDL/iDjkOgi0Dr/rYGaGSgdEiUJw1nqfDgIiQLiY4BJMuecASwv668EqgHN0tdwWTMVVppSJPzAo+S6HVCt0Pvs8+56AK02PFf+QgtRRcW6njd7FNdHcn/8LyXGmqDJFlBno4K8UcRhKeCGocWb3zfM2gxx9M6aDh7O0IHy2M4d0NHhhKxsHUysQcszxiQSUc62RmwoYQnyZgZMot8N5wtCpNCeQX0tpO32aL00CgR3gdgi3kR6mdnw8t//5P0IJW2ZqiMs4EAWrQ0iLOdJQjOlU/djaA5AgzUfgkNOR4zfId8yoBdb5E+Uhr8feLB3/pYf7FfFVTaEN3xhWR5SH5/XXklGWff+L5XxMdtWzmNZATNeYHHoXDR9U7odghn0xZDJSM+LkRX7d3jQlE3+054UKaXGi/4NC9yOqio1iLMOHzD5d6QxBYIp9T5eMen3kCcNZzduQpTs3PkgZuDRxD51erQRbddQx+XRJOJPWB2fBaW73ayM2BDCU+5hdNKEPluOFsUJoXyCujF1XLl08dAO9XBUZK6GPMi1M+4g+lBKG2virngbGcYwuXM88JIHYnQQ6fgOxsZCB8SBfOozDjdBjxQOVDXJzoGkCz3dWWY1BeSvpKMs5ufG/38ByPDVQNn3/tc54M9cNP7oIj36BBtxFTh1t1ffqfjBEQOKtrscp/PhpA1sf0+dm//1AO//uMoA1dL8LQKAeF9aV55d+p24O+d+tXurfS1VFyBLicTj0ECPJRYcxrO7gy0Wgk66/yz6feKwaQsYJFM7AFrhSMkm62TnQEbSniyDZvJQZHvhrNFYVIor4Bed7U88/fPYRY7vfSXXZWMoZgXoX529ngXHgxo78V54ewn/vqrrWHN3wk44+/5hXff8wvvjrnfvcg9l3EQvrORoUdAewSVJqHhlycn/tjxhWS5r9HJ768rrwRw9uGjVzocGRylDiYGt1ar1RWP3d3H2ce+/i7nRVIMaeiGguDhXe8xbuqQC/1159GVT98LiBxUtNktwNkobPg+5HjeeqTGvNTAgHh5x3fzjBSegmrHj8cgAR5KrDkNZ3euQmHwhWwuF1VqKZhW9UUysQd09adF3ZVOdgZsKOGpa+340kS+G84WhUmhvAJ66SVHR4NwprBsMS9C/Qx76EFoae/FDs4+/qsfBRSgBGATXWTp9ant+7ZW4wZAO0uOHPf/3tBjc480ntSdIB1kvvNzb4bvbGQgdm//1Inf/hgeKUGlSWj4RYWwdMcXkuW+RgSqv6W5EsDZAMp0aj79P59zj65s6BalsdsSnWpJiiEN3VAEPLzrPbY2UANzaATECew/Yr0hynA26ny1OnThzVcNOZ63ftb5Zw8d9FJDg88W+RDDkK4q61DqpOGxTzzxtz8HHkqsOQ1nd67CKqmBkNXqkAt+PynLWCETe8DgnHmScqaTnQEbSnhSbJkjr8j3M1YnVgv/c2h1Ykf+7L1wanXi0N4Lp9wf59dj//VLWCkkUgMFe+hB2OBMXZ1YNfc698exCZkhbc2/jYnTeN9vfwA2BInWsE0kEVLqRZx2jns8ni5oARsYjv3KO71FPFIC/EKir5FKG6KDviAmVHVwkTLo0OHiQcFgOu29cPqef/4elBDWVydWZz1yDh5d8RC2bUMF63kobl60h3yHIk8vanjvhdOwLYN4+D99HqGgMl/86cfpYwG97S/Px5HroR/wSGqEW55HdR9hgxOLxz4BvQgpcbaZnxmFIT6SfDne+ctv7rsw2gpiVYW45K03sNkZzTUdRdr4Lbl+Et3Utl9bvig+9j5b9O2IwrdxHb03feiV7nXOOS86n34vXvcVY8yL0PfN7FvbNUPnfXbnvVr7o/rw+i34tm/oSHvKf5+N+AwReDHmGBDDmPvRz408893nIARK3cr1b34YYrFFX8XBBrCBoPwSGn5BgoSgxjQTsPW0r7HvY59HYUX6PtvVCUqIvtpwpeJWemyi99lH3/E4IgOChm7Icdjj6aVVTU1NpdsuOO0povJ9uux9NjwduR688qbBR0ZSCfiiQcAYJxyPfQLaEVLi7OzeZ1eJfD8IwhXEqi4h1D47NjKxB2xLnSip/NsrY8CAQoZUe+bGL3LfcLYoTDoVtlW9t3/q4juu9SaLU+otljzGvAj1sxu43tiFAe6quOlD3+df8wReY+vwS64CYsAiS6yxxRZnH/u5d0J7hLjnF94Nyz0iFoEWgJIrcJMgKgR66ZXZzxQUOX48UgKihETfMCptiO6kj2S5rxQe9bc0Vxic/ciffOHSl94MlEkJTNxynN2JUlsJdHEoArDHFbP3iEWYmkqga4KSwx1kOJtkcChx5evoOCcKj30CutBij/zJ59rqmgvOvuWjr3GWt4Ztr6e+R+zK03/3DZYnyIBY1SWCuhawSCb2gLWpEyWVv6gMBmymMlPtmRs/9WWQNpw9GBpBidQ4e+b3YPh6k8UZ4C2WPL7kvU8POhXqZzdwvbELA1qzwzgpiAASsEL7WyRhA/QKida8LUwf9L29lcHQdxnSoB0r9BTddetuBTyUALOQcBqve92J6153gsqJ0x1fSJb7SuFRf0tzJVw/rlRQMEFitVrd+dm3gNMNYEDblhC9z+5Eqa0HujgUARjWqgv89U7JzWA4O17e8d2hrFVZh2onDY99Auru+MwbQbfVNRec3drT9EvfhdSVvf1Tt/zYq1NP6Y2gDEtmcYRM7AF7SqaL5GwNkNNO1JALEhvmzCOKj+FsUZhC9VHnoBtqdPiCdkrxWIUYdCTUz7CNnoIZ7UwM46SKOPuuZ98KpXKiNW/XcLaLAM1InO7cmiTL/UgiYv0tzZVw/QA9e/gVuNaNXgpDsYLFNWE4OxzhtkO3DeJleeR6cOpQzJ26jd3TsTnseVT3kZoat3ZI71rCzuLseEwQPY8YilXhuqdlMY9kYg/YrI1BY/01YFLSEW37teWLnDWcLQpTjXoKK9rbP4V/4O+NEqfUWyx8HHSk28/X/sADuPYwLm/8wB69el/27Q+vjYnf4p3dB3/z4+3t3lkfWlyDquZn82X8gamUGHS/e5HDZaQAQmAJViATW/S4WwQPJSi/hIZGKp8KDNIdZpLlvkYqv7+rthKuhOP//Me7cHnznpji7GM/+0PgwTTt4XLD2eEIt0136vDRy4LJHbkenDrUcKduu+0JHpYI+lVrEdqdQDz2iSGNa84tzr7hh59GGfNE7d+7joCD6DsiX2FjMiRqKFaF60Pq5r5OJvaAqXyllHGEccuAMRnMZdZNf1rk8hl8vPhMizTxijKH6fSRLrGgve0Cd6ETG2HI2Bo0tTu1KXxx9KUvuwWLGXrzjtz7zQ/kHaSmUmQ26H53wx3HGpUGe/pisUWPu0WIogTll9DQSOVTgUG6w0yy3NdI5fd31VZi30QB6rEExgsu+JbYAHRnv/PRBereX3o/ItaJUrtKF4fch2Gtug6sx+Kjf/YFWJhEONCDr04g8/WFWEh7ZwOTh8ZqyPHq6zQ1Ht0mJPn/1Y2kAmGNWzz3soux4hH0FKUdG8oMhHc8/Eh6OcyQuArtIBIFdNidm6vV6sHf+kRng3ug8alIc2rnus9nWRt9aUdG235t+aL4GM4WhUmPKTJKVqvVy//NZyIMGVvOkZN/9Fnfo24/u1Hrfd3bP33XF96WoXSSI0CNlLjs5J2+46Fn76ZBHKgjVKyT4e3SxZCSDv6jZ4doaHT2XHTbdUGx3mLHF5LlvhYqv7+rthIDhUCxLLFaHbrlo6957C++CGjbEp04Ox+RGsSqE6V21S0eeeDWSGRgmFN37GubX4hD4azjSYLXYAbC9hRR+T69TJx9wfWX7+2ffsl79/rZaROS/H+1om2+OYE10IIVSlx023Vg8IjVauX+HbnjpzKphDBNejnMkLgK7SASBXTYnadot6Nve6KzPfzghajW47DCee/wWZ4FjiwIorb92vJFrhvOFoVJjykyRyK3e+RUfMs5Epik3X52DN7XuOS57SJ6HiFJpRcfxIH6SMUiqmC47g0n6WJQKZiFBDTCnqBYb3Fv//T9//gfbRZJlvtKqfz+rtpKDGefc8kFDkQCZQ4RWHf8j/6HZ9uDpTgb0Q5GwNPrQ972N5Jm/F38nZ9/ixNOvwbl+4vLxNkIr6tV9OB93/qQV9LyR8jUIGAGhK9Wq6Nv9wEldvsEOs5zGZJjBOnlGJt4DwEHIT7qM97xqTc5Zx/+t59D+/hMA8/9KFVZGdA2+2U+y7PAkQVx1LZfW77IdcPZojDlMT36Z19kD0aGyMV3vjiym7d104+8yg331Wp16f3Nj0vb/NftZzocQedpnOrUy779EaeaXmbCK8SxPfR7n3TBCUaAigUbdZYuboJM/nfOxYcps4SGRthD5A2SCELDQbLc10jl93fVVmI4GwgScHaIwDqOOMJzyj26YO3tn37gNz4G2hEX3X69I8CJaAcjMKSXmuF48IpaSHhvsiWKNkp3C2e7+CMpSUQwZbUWYQkEomaw5ZUfOB2BXcef5inpZaoum4Z2ECWiqKfBsAwJpwcr0kPq5r7OZ3kWOLIgjNr2a8sXuW44WxSmPCbJwKo4SoSiMPU65nX72W15X4Xy58ZGL7O9/dPnXnohm03qOA0XdY2KdQLpLmLrFj2ND/3eJz1mySM0euZ5wr3HjgFtlq/9gRN9jVR+f1dtZQKc7b7DpJGh+UIAEefzrzky5L4E/hbi7Ote/xAwN4Xvg3QlnP3wv/v8kNeq6y7+wYwgNUJiBDtp1zjasy1iA856LnsSwo9tL4d301dpwJ/4m59PF7A94bkcDMuWu0t5Z2s9dpUs54nP8ixwZEFAte3Xli9y3XC2KEx5TJhckeO15ohcDqZex7xuP7st76tcxaw46WXmDIukw21Rx2m4qF9ULE55DH2eICc9FaEhzTMv7o4TuOFpsxzUQuUHGXQWRTj72tc+6GAlcC1+c6pbeebvnwviTs8pPFLikf/rWRdSt4h4Is4Rx2FPUDu1WfgaG2wetpYo2thQCWdHvFbdQo94BPIiJG583yu07bzo9utfdPdRaPHqB/aDwSNoEQbPxjxteznGI9675tXHaQuAFgvoMAbddBznX3ukw9p78M7WeuzpWcgCn+VZ4MiCaGrbry1f5LrhbFGY8pgk06rWHJHLwUDvmNftZ7flfZWrmBUnvcycYWw2qeM0XNQvKtYJpLuIbVCjxyl8hEbPvLg7HQPaLAc1UvlBBp1FEc4Giu3Dzf4KmNdQNfD5bATQI5BrJJSNSVy74eyMmqHB9zISL3VvN0N12pF/+JbH76w9+/D51BKPhz6iup767984fPQKDA16fJBue3mQQbxx95ff6ax66r9/A/RqtTr/6kvFMjaMt/7ED8IpeOpWHvuLLzsiLhOn6hJxpfPd5bM8CxxZEEBt+7Xli1w3nC0KUx6TZG7WnSYSaRh2HfO6/Qz8QZklwmfI41yARx2vB/IKZrePR+odFQs2j6HPE+SkpyL01d97P3aRlwEPtsvuyOa5zTLkUALW0kV9+qDg7KtfdT/eVUsI7332dW9oPj0i+mPvs9flrl+6/o9ERAetVquHv/N513QRM8APnm3fslTbyywjywDtlHC2PfDrP8kepwzBUQmxTibl79Ngrkv0FS1jhc/yLHBkQTC17deWL3LdcLYoTHlMQkhXd6Cw0jDsOuZ1+xnjkjKzkufJ4FyARx2vB/IKZrePR+ogFQs2j6HPE+Skp4Q08nLZQ7cPOLFZdgI3D22Wg1pgbXBXbVGGHVuI+cTf/pyHNR/49R/3Vuij5xQeg4RbRDyDeffiIH+f7XCzBGE7Hg9nU6cY2nD2OoVepkZ49IrKFVJEL/jBg9rjibaXeU6OA9opAdu40539eMtc8eQxx9A5032gNlSku0qW88RneRY4siCg2vZryxe5bjhbFKY8JnamYJZVHCisKKcUXzeudfsZ4xJsrNjZMiDIlIgnlLrvTr34LY95Dval9Rn6PE6vx5nx6CTja8QdJ9zLclAjrA3uqi2m4WwGYrZwHGyeU3gMEm4RwUQZRHw3nB0JTt4WeqT5ATm//YnIFL3pg9930we/D/nyiDztJae8ooIjQzL7/x7acyH22J3YMU5uL2ge9YUTsN2XtcyWv08FjSlf7Ctaxgqf5VngyIJgatuvLV/kuuFsUZjymCI3BASWT5BUCQATHfO6/Yxx6Zive/3JVC3z4acXhrPKBf+Z734TWfAI6v7Qv6aiYt1xz2W62JfvMac+hpPoqVk/Upfxc/2C6uBRcFdtURdn3/ax11LL4WOQQFSRO7BRIZQ2nE2jUYV+2bc/gkQ4gaG6btawe9YF5/Z5qhiTJAS/Vgz2w0ihnL4XgyvdiT3IJtgI2gbLBQI2LDf80FOYnEGZbjEuMHKwZMspffjfbT7ME7dhRrt8lmeBIwsipm2/tnyR64azRWHKY+oA2QERJbMj7yzugI55bT+7fw+Ocfmyf/ZjeVrmc4peGM4qlwrn46P/4Uv9zMB9nO278+C/+BiV1ueElk6c16t9aakr4ST2PSFYpNlssxxU13chyFZ7URdne9bCxyCBqCJ3YPPk4DEDZ1/zmuOST48c2M+N9LsPdX34hitBIzVe1sCAHI1PUJOStMN4R1xy343eyvax7eXtSi4VtPDWn/hBty6X6vjv+MybgwKxGBcItrrEarV6+u+e64/iuDHT7/JZngWOLAiUtv3a8kWuG84WhSmPSdLVdaeJRBrugI55bT/3LzmJzDnzePexc9D9AnmEwstvUhBw1gvCarU6/qsfdYuO5+pXHV+tVvc9/0GPM+MRljtTz7v8YpjhEdQAw9nBYqAhcvF0MUQZRBKUgbMlH9Q+fPTyvf1T8Y+e47MxPrHwz2cj7DRZNCOocJcXB+ywCCKSNe0tZ/k5Fx+GC0KNMN4RtBq9LfSyv57+HLdNLi8uB7tP/ddfWK1W9//TDwclg60ugUQElc53sb2Xhy2cBY4cNo/d0bZfWz7rYMNgOFsUpjym2JRsJdadJhJpbuLg68aQtp/7l5xE5px56IR1dnorbSq2/9/bP/3Md59HKOLe4ZjHBi0oA6FAT07wEemDTJjhEe74o3/6bLNOstwXSw3u76qtHLj32SzOvuMzb/Shc+9z5zGGXcHZ1/7gQ67qXEm7v0Gi5U1rkq47mu6OTKOVQAgNWK1WL/0/fnS1WjkwitHR9w69HNhKXIrbJhcWl0N3Mb76wilbRRqJ6Guc9Uo7sYeNnAWOHDaP3dG2X1s+62DDYDhbFKY8ptiUXK3OPPfs69/0SMVRIhSFGQfzHv9PX8XUprhNKHDmbHTCOlO9lSf+2v/lZ/AInFjpE6gNb4uedTyIrceZ8eiEe19hCSUgvFlspzYWKUENpuvKtOFs/yaIYWgJ4N4VnI3CQ/tgZNEVx0Zrvr8LUeMQaCUQQr1eR3v+dnxse7mzmPUQt00o8tjX3x2XQ3edmze86+m+cMpWkUYi+hpnvcJn2Z8eks+kpfBoh0fbfm35ovgYzhaFKY9paEpecP3lZ551ZsUhkiTKG+Wbx7afgQVv+OGnk8TOlvmp//ENZxsdtf0VmmL4giNY6RM46G3Rs44HsfU4Mx43WVt//Br0ta99aLVavfitj8Mkz4ZL334zLOkrpcz9XbWVWePsYz/3rrjjqZ8bOfG7nwi+zz7novNw+RnO9kqRFm2wtl1nPfSvPjW0G09i9V3YD0KowvE/9d9+EbOCetSh24ndWcx6iNsmFBkX4u0iLH3hHmetx4jGvg0zWuGzPAscWRAxbfu15YtcN5wtClMek5uV/bO1ZkeeHDdx8HVDnFgdfceTWMyTPPNTzjtcYB5B0wRH3KdH8Bgk3MGH/uVPe7tQhzLY2z997qUXemx5jzRTQRruQH7D9sLpa159/LG/+goWKUENpuvK9Exx9rGvid7PpeJsh6EBqUFQ8G042ytFV8yuDlHYJ//wZ2hlogvAQHdHpmE/CKEBlN/RVzx292q1umrvPvj1kvfsNTSPwHBidfFdR7cPPSpum2N/+n8+1zvXWYgL8Xbv/ycfdisdEesHj7PWIwLb1zjrFT7Ls8CRBTHUtl9bvsh1w9miMOUxAWB5x2vNjjw5buLg66N/+mxj54nmh2S5xYf/7efyJM/8FB21zlS6QnOU5Ig72D8C4SiDPk/2ihMe+Qp3oKJhfsH/DXbYRfbpyij0qDj74ruOOqeQHUognlhkI3D+tZewsBhYnBJA2KvVofMuv3Bv/9RZ55111nlngYcVO8iw658bOXL81v7fM7gVlL08g2yKMxigHYRQCOUH7Qi4tpknPALDiWa2u5+WuF0iVNw2x7i3f/qeX3gvOeSTcSFDu76U9ucjDfFnr9NgQqn7LfF4nCPBZ3kWOLIgdNr2a8sXuW44WxSmPCYALO949rCochBTm0IrirOraJmhEDpqnXl05cHf+gTSlGS8O9U/AuEogz5P9ko/id5K35eGIYqzL3/krmx7Cg6OirNhJ7JDCcQQi+AfJnj7AZ0pAZz9+F99mSJm8NDFNHrXcfZwLpo3Bfgvwqa9hfoBIdRI+UE7gvrV0DwCw4ntDxpfrVaXnbxzu7Gm4rY5ZsfjHVytVg/+i49Rhrio/i4E3vXs20vk9CV7KzSYq9Xq8NHmB0S6yXzhTVfDjHu+8T7QsyD4LM8CRxbEStt+bfki1w1ni8KUxwSA5R33RsDIj5gve/unX/LuZ5x2w9k0WUkZccntH8Fkh+Q+T/YKTWKQRslBRcMWxdngHJfgcWoayvT/pWD4FT6yQwlEEouCUPD2AzpTAjjb8w483nrC4wHG2fTjDYLchWuj/CDqB4RQJuUH7YhzL7v4/GuOOLrpbh6BYQZ0cDbGEbbjtjk2x+No+i9AnLRnvvvNuJChXYd3t06N8j77zLPP2ts//cTffm1v//ST//nrNCCURnymJPgszwJHFoRI235t+SLXDWeLwpTHFGzaGz/wyqGhM846hhpVZzibJotGhqVdbfTZXJzd+hBP/5RwhSYxSDc/Q2b9HwQ2bIaz9zfQCtmhBCKJRURvmDCcXR+tevGnlext9fNy8z96NeXvM4ywAiNBCJVSftAg3IzaTKo1Ajv5hz/jnI1/ddoRFo85YtuT//nr57xo+1PAIeHcyzY/sB8mRYTEtyATRJw/bxcxBEHlONWP/9XP0lvALU781XD2ShsoF8oXFYjhbFGY8pi8pj35x58LNjlt+BFoZ4NnyUHA2Vc+dY8LL3z3CGQ5KQvuVP/INa95EIsv//1PQxcWSwgnjf1KlTa04ewozn75738aPSvOTibOvvUnvt+90vZeVL/s2x/2VpIfd+599rmXXohKBhFJ0FBLRo7U3YKRj//HryZJxkGKX/uLze+ZP7G67ROvR7muViv3q3wxxCjhbEBYsHXsZ3+ICoept33stTjiWQJ+Kg0HMwgqB8Iz5MSPQDIIyg8baDwRpSkJw9mGs/FXn5MSU3ZBXLfXtPjtJ7TDx6fdoPHGzUHA2Qg1fPcIZBOcEuLcIxdBToRfwhM57m05aexXqrT5RcqGs6M42wXZlYEX8OHHTJy9t3/qmv/tZRU+JeJ/TubU3s7hbA/qDedi82b9yInbaeWz/NUZsrXTg6BBdOKw/pfr9IqhNEYZLWbQ2KUCaRCg0RH0sU8/9K8+Rc+m0p5VqceF/DD7zs+/tX8ENiCG+Nw5YjUNYTjbcPak8Bpv+6epf4lWNK1j7rf3JCve6HQ2GM5Gstwn9pJSgyEeOSXhiRz3tmgSKX3ukYtwd65Wq9s/+cbOQcPZa5z96J9/6Ym//nkXGeSFEqA70WsxencxH2e7n+WX/Lq6D6y9lV3E2Uff/oSXr24W/M+upGTQPxuXLNnN1u4OXv2q4+hiSlDaTey7v/LO69/0yGq1OvvC893uarW64zNv9q4nZ/P1b37UyccuFbi3f/rWn+y8xsYu3KEXGaUlMRniOfbVd8Gqi++4foitcP3Kp++NSDj69if6PiJKUxKGsw1nG86OdyAG32q1ivd5ZARU38JQo5INZ7trBtOWBoelcSpyT4CHlSZhoEmktDvbX9nINJy9xso0F6ApAVqQC8PZNXHqI3/yBcC7TTGf2fmVXsLUCNkE+c3xLlu7O0i/Ihon/+izoBuC/CRWqAP29S4muOk4n/n751er1dXfez8VSGkq0FunW6AhP49wltz2U83HYKb6A19Wq9Wjf/bFvf3TD/3eJ2//5Bsvf7T5+eWT/Wc423C24ex4++3tn/C56ukAACAASURBVHb/TuXaHzgx1fjo63UDBWPFMdz47CvoPO2f2qUV+B4hkvzFR7EhsH/8vKsu6S9mrzhF9Ct+7SXyGDDGcLbhbO/l93TIJlj8tKQdg1fGx3/lo8GD3uK0/9zcs9mzLfJI3YeQ8GIUZ1/1ipfSuwkaIbP/9zmYG30Cp5ofc/K7m1/I5eRD8tIJvAiDs/DogV/7ieZXBT3T/Kog+gNtaIS1aMPZhrMNZ8e7yzVqv2/RwJMQ7gbyrVojsItu1/pru0k8HVIK3yPE0Nn4OgTG2cp3nSL6lcocWrfPZ7so0TSBdsRdX3jbi//3x7BIozpA2/vsmu8gXeRp/Ck9kIKaBlRRkW0zdf+Kx4+97J/9GFAv3WoWozjbnbro1msvue9Gagylnad3feFtcBm7HuE9Ov7mve+ffwlnl0Wc+J2fGjIYzlKGB37jYzQR9/7S+93V/8Tf/PzhG5ofxa31n+Fsw9mGs+Pd5RpV+AKGdvUItD9N5vimU+v6hO8RIi8FEJh3XH7KKaJf6dmhdcPZLko0TUff8SRdHAzd4HvfIpz9omMvts9nx0uXJotyzpk+/+pL88zzyo8+UvroO56885ffQpHf3v7px/7qK+dffSnCBeKsC86FMU/8zeafJWCFEjjiEd6jO4JFKmEpdMT4yNbJP25+U7JjOPOcs696ZfPBm73907d85DVXPnWPAwPNj4JZf0yUYoO7vvA2+rharV507AZvJfw4S5ztyixssGz1yAO3Hj56xZoX/9BuGuKci85LwrFnHz63yy9K5RmrE4fG/3P2Y+ec+fCZ0Hve3oVH3nXL6sShM1/+Pec8eT7WHXHe3oXnPn3YW8Tj4e+/qvmJ/e2f/5+9N/+yqzjSRV3eGpAEEkJMQhISAjFoADGWmCQhKNsYMwhMGWQ1swUYEGKyjbEtBBgMGIyBouy+vgwertvuvm779nT7uvvaz213t5/b7umZ7vpFv2K/99b7G97aJ05+OzJy3Dv3PnWqlFpapyIjIyMjIyIjvrPrVNXCDx0Fuhgtlt1yKobzti4ETcRRu09Z/fntCz+8bMEHly65cdWSG1cR/9g9G1d/bnsxWizfew5xFl119NKbTyJ6zsXziFj44WULP7yM6PK3LH31er77qscvKWHNsP4vH4cMq22dGrbjP16Zt3UBbQEngNjy0yeO/NjqxgZAT2MNkQtpI/7KFxL/uE+exZnDSvd+P8bB7l4td9AaJu7M+dsPj3ZX2PJidKT8HSAHJ0yC+NP6avFP9NlbWyuuJA8Qp2sZtvGtW2rJNxCec+FcseqU568SnFpDnoRjB3sPrd2vHgFMnfOD++MNgKsFIYakEMx4/dMuufj6FUHjg+c6508fsB6kGC12/McrYwcnt/3L82MHJ8/784fWvXj1OT984LSvXj92cPLo209f/bnta5/54Omv3zh28A0K0LF7Nh5//9mnvXpDMVrMuWjexm/svujv9m/7l+eL0WLFo1tOeeEjxWhx7J6NwBhErP/6rhMeOp/oI286sRgdWXrzagCqjd/YdcbrH52/vY+jjt2z/twfPbDsllPWf22cUNOiq446+s7TQa99Zuz4+84sRkfAXP7gOZu+eWsxOnLxL75Au2x88xbaccmNq878b58YOzh58rNXzt9++Dk/fODc/7HvyJvWkNici+Zt/t49xWhx8rNXnvbV61c9fum2fy7Pgv8X//2Bi//+ADx83L1nLr5++dxL5y266qiFHzqyGB05/fUbNn//7jVPXlaMjszfsej4+88iZHjCQ+fO2zq/GB2h8x5794bj7z9r8Q0nFKMjy/du3v7vL1z0s88BE57ywocv/dXTxejImv3bj9q9dtFHltHUUbvXbvnJ4zt++2U4Z/nezWMHJw6/5tijdq+l4x9+9THF6MgZb9y49ONr1n9tnDyz9ObVpIHkj7juODKjGB3Z+GZZZBaMLVkwtuSwyxdf+qsvrvzUhXTeo+9cX4wWR99++sIPL3vfzvfe2vm7N69/782d75WvJfG7t0pm7z/xd/7urR7x1vUl883rfk+z/VU733vz/m/tUwJvXvf7t3e+99YD39xHwjtLzW/d/619D771wM733tr9zy/d9df7933jvr1v7+1tUe67+1cv3v+dh3f+/u27/nr/Q1+797afP7vzvbeu+91bD0/es/tXLz48ec/DE3df93+/Xe77+3cef2rX5z5348733tr75v17/uyJzzx36/3fefSRV+/e940Hdr73zmNf+cTO997Z+ftvXvv/fee633/zs0/vvv69dx6e/OTO37/z4H+5/9ZfPL/7Vy/t/N07n3169/7Hrh+fmrz9p1+86d3XH/3qnlt/8TwNn77nys8e+Pj41OTeN/eOT03e8ssvP/XJD49PTX7qpTtv+o83bv3F83vf3rfv6/fd/62Hx6cmb/vZszt/985XP3juHT95Zt/X73t44t6dv//m3rf3Hdh79aefv218anJo/39//vxpse31SzdNy77fWXYk7csPDhrE+NQkp+uaGrn20Vf21NUs5Gkjen3utivE7B1/+7TgDPFwYnyq0/+WO2gNE3dpHXeFjf/+/Ll0RhCf+eJufup3TjyGhje9+yrnD4S2+KfO8dtZjoiYUcBUXasaL4zfyNzC5Pi13fzb17gALYeS78+f/182rtnzF/tRl0wBMfXUfVeRwgP7rsUU38JD831JzLodTX3r+GUeVcM5ZR5wfGryu0cewa3d/euX+dBK3/PDJ0w+OdzkmxyKEQDGXX994OWrR8enJr96xebxqcknnty17xsP7H17H6GO8anJa//fb7+z5vjPff6m6997e8//+Nz41ORnn979xP6b9/zF/gfeefCeH3xm969e3Pv23tt+9sz939p3YN/Vz+wZ2/f1e3f9+yuv7dg0PjVx6y+ee+CdB+/77iOPvL5n75v3U1V57rYdt/zyhZveffWWf/jSZ5/edeePn7zjbw/c8ZOnJs9fRwL3ffeRO3/85KOv7EHrpN796Ct7bvvZs3Soe37wWSJ2/+qlt9YuJ/rbxy4lyz/5vU+9dtmZd/zt05968Y59f3j//d96+PaffvGJJ3ft/tVLdIrxqck7fvIUqhxZu+/r9+7+9Zc/+/Su8amJW375wvjUxEvXXnDH3x4Yn5rY+bu3xqcmntkzNj418eTD19z07qvE/+6Ri+74yVP7H7n2wN6rbvnlC0/f88HxqYmXrz5/fGqCBPb82ROPvPqJ8amJvW/vpe12vvfm5z97Q7nFP3zpk9979In9Hxufmvj65pPGpyau+3/e3vMXn7/rr75w54+fHJ+aeHji7vGpiUde33Pnj5/c9/V7b/7tq/f88PHxqYnJ89fd9df7n7v18vu/8yhC/JWrzh+fmnxr7XIckKZa+js1c96vP0sfmTNX58x5/9wFc4ui5M85bI4QFsN5h88nzvylixavWy5mF5+6fOmZq4tiZO7Ceb2p8psPC45b6vleBn1GrSiKlddfSL/Mf9X4JUedu27O3Dn8uxwLVyxb+dGL6NOZh590/LzDF6w/sGvuwsPWPXg1SS4+beURJy8viuKkO6646M+/sHjdClq+ds8Hl3/4PKg6fmwz/RjKMH8TTX53bFCfG5H7Or8d3/KHRrAvCHwHkBOCrhtBrtyzNlIsqKG2nkFF2WO5MRX+3EXaJyssiQS/nf/tR2APMTEFfogI249fkg1CnAh8EEKg3nAG/l4/uN2MAqZCgZCBbrwwfiNzC5Pj1ybkaQgm9RTSwKdKuneXJdMop1DlN4NvwWsg18/5MdqGTWblRy+CN0DwQ807fIHf5rX3fEg4avFpK8emJje9eDsW0ufdt/3i+RXXbSH6gu9/esU1/b9ZBn+eePPWtXs+ePK9V1KIT7rjilPuK/+O6bwjFpavhy8oiuKYSzac+tK1235R/mXfTS/efswlG4qiWHHNBUs2rKbf2doTGzni5OMIIy09+6RVH7sYeOnUh6++4t3XDl99DDiHHX3E5jfuXrJh1Zmv3Ll+//iSDaswtfxDm1F8Nr++Z8FxS5add0pRjKy4bsvZX/vkopVHLzvv1B2/eXnjM7vJ4Dlz56x78OqiKBadeMzC5Ucdu3XjpudvO+W+qzY89fHNr99z9tc+CTi05pYdJ9975QkfOZ9cjT+odNiyxXPmlxDu2O0b5i6cd9Q5a7f86PGNz+0mk858+Y6Nz+wqipEtP/j0lh98uihGjv/AWUUxsv7ATVe8+xrMnjP3/UdvOZWGy84/5Zxv3Lf641uLYmTTi7du/fkXN7++pyhGFhy3ZOmZq8/+2j0rrjmvKEbO++aD5771QFGMnP2H985fugiq1u8f3/LDxxeduAycEq8eNufEmy9Z/qHNG5/ZRb+Gtb/XBes2v3H3opXlx7QoanMOm0eAcNX4JWNTk6c88JGzXt2z4Jgli1Yevfi0lS3h7On8rDoCOnQE7t4QErzQlOYNCoHJfY3G0JGvsC8IXmGtzAaWcD2e5ZFiHg2Hrz6W229KHrt1o8kcWJQtWzsDHcap9VBmxO/TgP9BwJmcE3eKsP1oYCDEicAHIQSOueSMsamJ+UsWCr59OPNx9nnfevjoC88g/5sRsf6pETNY5kJTJpFjbmFy/FsIeRqCSS2NNPCpknbj7JUfvQibQhU4HgLCghDDlddfuPXnz5GeUx74iEfhUE2ZziTzxOmIue6ha03jSZJ+YTlfWxTFOd944PTP3njCVeXjtvO/Xf5+Evo3d8F8IpZuXrvkjFXlw74e3Ffzoa+D/Xz2sds3nHB1CUbZ/5CFqfN8r6GmFxxzBHMLTLWcf9GqYwT3fWJsGYYjbVnEWDCoI4Jt1QnZ3OyxqYk1t19m74USDYS7dVM98jHP2NTkqo9deu5bD2p1ZDhwNv3ha80wJz6znMuz0FpMe8zS8yW++c/XycMurBPj/8i1kWLBHT16aGrLDx/XlNRDYJST9fzsCYFjqrvMd9rvTob+Dzk5TG3oCut2fAuXQO/RiMpPytKYulEvys5DbfuHF7iRTemo+CKTPQQyGTLgWIlIMetaxnT6B+/NuGcQSs700EKehmBSQ6PlxFz1sUvpmSLH2We9uocbUxQFPUmlX0h3+JrjrAac/vhHBZ/vyzcl/sobLtr0wm20EZMcYb6KivV0yRNIot15boAGse7Bq0Afu20D0Zu+fBsRQs8Ra/uPk20gbCQVkoTRV3N84jBYKEw9wXSvF8dpfRh1voyzg25qHhgCcGtu2b7i2vOnq7iISsqrpzbVPc6+4t3XeTPQdldgGuXbOtuAuWLnFloFzSCUMf3egMIKokHIItdGivkNOP2JG0b/5FNcZsPT5fe26D9tITeqh8BIlQ9nNIiIsaTr3lzZv27fNaFkGC6c3cvV0j/2aKpYI+h9ol6UK/+I0PCbIqbqDKPii0T1EDgmZMCxEpFi1rWM6fSPKiCaQF2nCXkagknNyUzaUoA9z7YKjP73x9HbxqYm1z9584prR+mb2kIe0eT7chmvVUk4e9n5pzBXR6VKY3mBj0nPun0fQZ5wwqSxnIjDVx/DP5LhxqwIQiMi4+xGbmOLmuM3d0y5TraVm8w42+2b/gz3aT2af6Bn+z8+37hApC3U2gCvniivJXFwEihE4ysEnM4UxdqqEIXeOtuACYUmodrkxAXfexRQhhMN3I7q7F8bKRavZMdvvgzLl561BrTcyEBgl//7K/5dGvi85pJumys3xswBcFQyNMTZZ712N99I0Juev23lDeW38vl2Y1OTx1+xmSTBB8H4GWdLJCez2vF+I1IsJf9FvCjEZ758l0gAz1BooCGY1IJYMpTFvM9UOPvyf/uqVYA3NqwqimLVjRdD/qS7xrhtfF/IjE1Nbp68l/5KC5hMUkYn5E/tvrcUI02nywAAZZRHImADJ0yalp/2qevi4BegAo9DfTrj7Po+01cgEB0R+m6OUcbZDsdU7ObhwTXmN9xVBTrjx+JslE5eeVukSb9/F5qN/PxljG3YziQU7qkeFi45YwUvwQ0igursXxspFqNk4QlLYTOpNV8rPQbOjrDEkj8xno+WieqR1REcoMotUNlv5gA4ZTL0/r4350QfQQJoLFx2wWlEk1qhHEOTYKsyzu4juU3P30JRRtJu/dkz7rj377VHIG6qyh+EFQQCxzlgHrfjTPAFccYT48SB8NjU5MrrL6SfqAOTupCQ7DMVzubCY1OTK67bUvUuRXGczeWJNv8UIpfB7pzJ6EMLZ9cE2flzIyoFp+1rc/wWF+uog2WcHXRT8zhlnM27C5VmFGg+BTpGBsIxBLYzCRNnF8XIBX/0CLp4XBvWYGLk2kgxvwGkJOa10pNxdu/7M2Yy4McVMBWTXZBxrQKfiBN3bcMSlX4ljBNikOnxM87uIzncGpOoMrz3NuykO3bgzaeYqj+MwtkX/68DFDVqJ6ARSkGYET/6ovUm06qtz9Rx9oLjlhZFse6ha639TODshSuWgWNNP48lm166g7bY8S+vnPHEOGJR37FVYl/2Ty+OTU2suO6CZkr8qxYuP5IE+NMumC2YZ758B7o2X3XpT5+OQ10mWrAGJJqZn2dHu8ohaEakXY5jW52dcbbuD8uoeVRwY3GZV96wxV8UOpi19AmU0ar6H6yafcVs70MjqOaWrdkuNOuXiTFvze2XkxhUmYQyqXqejUraOAoo334NkWKmkjlz3w8mKYl5xZLy76Hoz4MjLLHkT0wIomWkScLC5GFlv5kDHk60/aV+6BGrwAfBBcA0idMe26nUVnAkIlg9ZxpR9vqw8g+3Te3unBXC7mFUfHG0ZoQ4ICmBKjFbc+jzgBk4aiDkDcxufPYW4R9McYLT0OBkMpyNPwNuaV891uY37hVTR519Cky1bgEDQJCY0ENOvuLd1y758f6ajtUSe/3+VMju2h1pgC7M34MJJjJHrEJrqE8YDqvFyDi7lrssws3xW1ysLVuarIyzTZ8ITvM4CZy95tbtuL2uotAB39InUFir6j+7cDYO6CFOe2xn7/ehljh77d1j/FI1jkJkfCPFTDP4QqLF65L1KwVHU2IgMK5Qk6zguCV/qrRh75GaMqNwmMO2mLWV/Z5kEFObvnTrxi/+QfyJsFwsAR8EFwDTRfT4GhyJ8oMRZe+qyj+wjf4WPawCvxERE6PqMx5IyFoEDljMKd+I8iuAqaaExT/wA1zECU6TJDgNFmItJ0qa4WzRsWoNz3rtbq5ZGMyniDaUl99toOLZwMPlr0++rPyFHqaGE3dd2kChuYQnEqdJku8LGgSORpxGr4bDajEyzq7lLotwc/wWF27LliYr42zTJ4LTPE7WWzo2NXHMpevNctAZx9InUD1R98s/A1sUY1OTO37zcsVsAUVVu6NMe/THyHiWYwoHjCD6TYJfqsaxQB33aNj+j8/HiFk18IVEi1c6hRNqGAiMK7TuCJd2RkThMIdtMWtlBvInta70oBIQf2ToEUvAB8EFwHQRPf4gcPbpn73RNAxW8an6dEyM2sPZxciRG8u/voErkJA5ZHmVP+bZ4SJOcJqWgAMN4HCC01joYh5953rKZNGumg2xnYcoiuLi//mkoT8VZ7sKb0Rp8qXWOf/1Pgp9+cdNnvwYejGY53/3EZOJzCmKkaVnnwQBbmRN2nBYLUbG2bXcZRFujt/iAm3Z0mRlnG36RHCax8l6S4mZXP19JUZXbukTqN2o+8DZlqmW0DZpdum/4I8eAwAimS0/eqIyr6YN2CWCGDTOpturxyg2mrz3oCUgo1AXtvzpZ8oHRVvXc/lyx4yze4kUzAoqAcH0M3/Vg1hiblT+9bjny19CjGz3EL3lZW7wWI9NTaz62MVjUxObX99jzyIjynax3rcs5i48jBvADYPx4lA1h1G5jURtRlz+b1+hM+IKwGmes8dNWeonPAAXcYLT3J9YxR3OhTmNhZxJPz3Z70+j5WMR0asaD7Gdh3Aob46z1+0tf001/88jgkzgzHgay0k/5UMMk/+5QaziRtakHW6LZGecHekop5iWYDVjF7PWuTGfyDibe8NKx/jaLmO9pWgA6A3xtaORpKVPoHZXpb/3PPu0z9xgmaqJcSud+kLS7NLPZzkNbas/vh10kMAuEUTLOHvrz7/oDxPqvl/MOkt9YvUfbEMWEQevZh3R9BgIDI1HE6s+NDIRdHWyQBQOc5tnWU4/BqeWVPkfkQz97+pQIQgezVQollgFOHPZeae6UJfiW3A2wq3OqDvBiLJdrBdlMgYmkf1Wpjha9FC3TUutagp5GEmc9ti1uAKX/9tX+CrcLzA9x4+YqvLHPDL8xglOc3/y5VaZIJME+l1qtKC/yG1tWnWZwk6XJTa1zXG2v1glhg/LeT7EMLlVC1cs5cNGtM1n8byMs+N9ZZe0Y7NGobSqsu8quBlnC4eYQ6tzo5h+nI07H1Hrq4ZUX9jSJ6iMLt28tir9PZxNh6+YOlBO5KNJWPXwWU5DmJgY+gkIRxAt4+xgWOmG149jmQOk3PNqlg9sdPSFp6394hiGRASt9fu5jdmU3Lav1Q9V5X8wGY7/4DkkE3kRTIXCIabAmlt3EHPFtf0WqvB0aaeQ7w1l3EUaiICWwwicffK9H1QJ0H8syi0nM2AMn6pP22MkzEbIXMTSzWtoatGqZbhBxKHhpT99mv+UBbwkNqo/rPLHPDtcxAmiz/nGA5wp1ppTPOX4rEn3W1QYgfUFY76QeXwvk+PQU+Hsbb94Lsa9LPdkG+XLkQmcGU9jOc+WGKZZQtM4DrdFssNRlj5Ms9bUFmno0IqZJ2qXE3XwjLODbmoeFSvOPubS8rv553836ffHxZcbUd959URVHZua3PbPz8MR1iXpTNqOXldcOwqF/E94cBluHocgWOghsDZInPXVu8zCVMe9GowgVa7lF/3VF5ASLhk/H8ACMEJwXGdZ/fGt5dRo+VNHfAs0Hs7UaR/O8IQgekpzoL517NSOf32ZL9QPVdnvT4aL/qr/2VNKNgh7DgIZEEIYfE4URUE/fEY3juc2F1P80gk8yuaQn72kI3A2XEQ7Yl+y38oUR4seRgWR2VPiNpyRiDlz34+bhQyHDDicwKx0juOBulusyh/zyPAbJ+A9zqS1l/3qy0SYU0iGfvqp3+bOJbnmIozAUNHDhMcqTDm0VDgbQXQ7U0aWh6woRpaNnoq1kdogLwgspy0oH2KYwqTkocNtkexwlJvjk7ijRRo6tGJD4Z+Ms4P50TxOuNuuhD75kx8S1aGDoaVPoF5TDS0rO7vPYLZL8E2JHv3jTyswUX2/XnBgAy3B0E9A2E/0/siZJb6No0CBdi2nKu+Xca0lPjQARgiOmWlYWE6NloflW4ghn1K0JX/8zq85G4XDlDF2YXEKfVjZ708GFII+0On9WPDY1OTWv3vOdSJToZA0BbALCCS8SfSWV9AE5yICQ+kcL85ec9tlSJ4eMQOeZyOreUXFKTDLCcxK50wrzrbmw7q9V4uUo9zwM3nFRi41JihvreaduGvbqY/udGtuE2fzlOZ0gyBiOWUFModUeZg8i9qg3Z6LmWF92SFu6V9tmA21jm1nDBsH6YiIckTG2UE3NQ8P7rYn7xtUkJpLKpwBEED1FFW1LOjsPkOsXYJvGk/DBm4tmC4Cwn6iF3tLfMnDF3z/sZqu7n8Ehf7sgrmWSj8lgzkbw4GGDU/vAg1IYU2zsamJs15Vz+wPVZy99KzyI1IRyVBmxIJjllBRoOzCKjPZMAVCLAGfE6LieAzrrQrj7DW3bNeSx4uzedr0Mmem4uyVH92Cs5iZf+qj19Ks5pnaIDvw8wk8rAg9Ma0pFC9vVcKZvGKLjGowhPEmEdI2MuewOfB/jLcpLpteug2rOAENieHDclKOXkz6PUxuTBt0yH/+edaXHYKW/tWG2VDr2HbGsHGQjogoR2ScHXRT8/DgbnvyHmWlMyKAszc+s3vtPR/iVZtKbeuvaBIAFjEcmEHCGPoJCFuJtfd8aMU1F6jAW+KLWlwrKPOXLESg+cKVH+3/caKiGFlx3QUkwwXiaWoe2GX9gZvA2faL58DnhJaEhyrO5pmG9BOEyofqK+UYUmjJhtUi6zAFQiwBn4i5Cw+rtCtKmME19FaFcTYgRT+REnD2ma98AvbAeHHqmkP7tyBEzuMIVgL5rCVz71dVXPq/D2DWJMQujYaW+gkPwEWcIJrCy6MJxwrCKh9k8oqtUqn5V4+dIaVa/YzxMEqWGS9EnwIdo80lA1W0CzKH5D1Mq1UJzJD//PMZZ/v9E57V8jMhji49YQuKosg4O+gml3/DfNxtT3RdZaI9vqVPoIhTxS9dwO4zuki7hNgUzcbPhw0kNmf+PHCsxNxF2u8po1XYqzpvFXZLHFGLa0WBR5kvFBWfxLhAPG1tUf4002ZnF84+dnv/s+bwMHlSH5b5z3MMQ0FUGaEoSjAzhZB4rimTDwOU7urrolXHeOT5iXAupAGfrbIoAWfDTu4cnLcR0S3O5pfOpCufNHmSTZZb6if8YA0cfGidpbV8yiofZPKKXSVTU8q0CpyQSq1+xjgc2WvGCxlOVStGm0sGqlBvQRx17smgiaBfEkV0268h//nnWV92CGr+b9v4EcemM4g9FP7JODuYMc3jpEEc/ReF4j64ykR7fEufQBGnblq6gN1ndJGxqcnzv1v+WutW/otN0cj9fGzNxcamJi/58QFMcUKI0RB7Veetwm6JLzkflToyFoipWIihSyBSP3oP10PKBYcPtSScXTibO5b7EPwesw2c/Z9v8BRCvpnZRVMmH2lZ5Z1OWRf2Vg30eTbstJ4XB69DZJwd/sAS6hLSAIEgAgJXvPt6P3FYxdZTqckI+5pESJ1WP/k1NOnFpy5fuPzIohgZ/ePHeI3iNFbptzgqi7AWpRLVzyRE5TzrtU9wM9qjQ/7zz4ejrPm/PbOh1m/f8M/iIB0RUR7IODvopubhwd32ZD8vDd3QFpSMIr7+Czf1z8/umeWUfgAAIABJREFUM2+iqPKc2YzGpmjhMRzsxYWhYce/vgIBIqxikEe7YlG3xHdsauKwo4+oW+h5lHkoocclwIX9tOgNpHDN7ZdxzYLWknC24+zFp6+g8zI3toCzRVIh5YjPs4snIedDA0s8jVx2/qknXF1+lolr6A1jcfZxl2/qn3r2Ps++5Mf7RXr7hywNagM1tdZSPz0JQEFFneHRNPOBi2HhyfdcCRrEtp9/iejqlVXsitmU8tgZUqnVT+U06e1V4xdphcjx1Aml0rjFUqFrI/qdTnw5ZQh2B2Gtpf50ajQb8p9/Phxlzf+NLPRr8Ns3/LP+06XPRnkg4+ygm5pHgl9p1wVw1Yv2+JY+Yen67D6f9qnrx6Ymt/zoiS0/egKNH62lMYFN0W9iOGNTk8d/4GyxxBzCKuikv7oH+zmhh9wSXwSuVhR4iPlCNA+XABf20w16A85S7j6jcHYx5/0x3qADkiT8Q8MrfvvV8lsff/MUsqIWnoCwWC6SDdno4UODnnuWETZVamNxNtLM+nv9Fq9bbnURDDP2rZ7CrrllB45Wn4hCSDDeSvCLU4v250/crKV+wgnkPRWp/js6uLQoinV7r553+AKrGBzO5UkVpQXoU+6/ypIorGJbZmuyYIxJhDRp9XNsauKU+680HYuLGQwf1iITwIkhsIoTfHdeDzkdNKypQMh//vlwlDX/NzXSo8Rv3/DPeo7WylSUBzLODrqpeTBirrGndlz2Ty+e+mj5Z8/S/lv6BK/s/fPr9xklHh0CraUBseM3L6MVYetIjlVMMMemJi/930/zDkGHgpgg9JBb4ovA1fI8r3F8oaj4JMYFPPTWnz3DZ3nD4Nt5aJyllJlZOFv/FYTcD0Rzx3KOzi/xIs86kQxIGz0r+kuWbFhNfL4KVwC3AwS0WQlzC5PDF/bUtoOzdZ/0fyF3Lze03zfCHYVDgcDB6xBR5UuYR0mLmHrS2z9l5kx9jqV+4vjwDCeIFpHlYeW5xLNLLCQxoaca6hW74jei/OZ5VWr1kwInqhai6Q8WzSJASAlwYgis4gTR0A8zyDAMuyG8zgtOhqOs+b+DIwRNHHKBofBPxtnBLGkep5hrTLVjwXFLzCJCd8bk1+RY+oQo6KUL9PvMSzyV4JPuHEN3qUtgOzSYeI51iWBiCIKCiqEg9JBb4ovAjU1NrLm9/H3D1v+jf/Ipzuc1TvBp6BLgwoJGt4AG2Ma1eWhNPuPs3g8bUPp5s6LMERIwcwn5b+qhKc5fcNxS0rPguKV64tlHY1OTx+04E7uLuMcMxfPsMz5/I+WAY+3w4uwTrjpHy173hw1c+U9HTnu11E9PAvBs4QE2EwMcxJoTguaq+rResS0CdVgwxiRCarT6iXgJnxfFyNlfu8cVJs7HQlH6wPcTWMUJomkXWMiZ3IC26ZD//PPhKGv+b9v4/HOQQff649efzTg76Kago50CC45dHMx7qhooCryI0FrOaURrfWLbP7wAeKGdXL/PAmFgCVXhuq/oGdATz7EuEUwMQdDRMBSEdnBb80YtJsLldhE1Hmu+BGIuAS4saKwlPg25niCNs5SSPZx9wtXnYRehH3xGaPlTN/QR8vb3MH7Pc29wSfiHCSQ9z0aq8BTCoSiNzSnOR6pDlZ8gbVjFDsIfQvf/OIh1lnD22X94r3XWcNH04OyT7ryczONGilDC1GCSuwT4Fk1pX/7zQFNWUHARRMQasyaBWHNC0NBTEXrFrviNKNMqcEL6tPaHaiO87QqQycfCiNJkKR1YxQmeSLCQM00z2uOE/OefD0dZ8397ZkOt377hn8VBOiKiPJBxdtBNHYWnr5bKCooCqgzKAec0orU+gfJ9xW9f006u32feJ1Bwy4+6/m3/4xnEjHzFpkAk8RzrEsHEEAQdDUNBaAc/9HA2TzZOO7JLy5/IiNcRszRLsiRoGwQEoQ8Hh7Ppd0qayUYcPeucIwgrPaV/6ET6uZyw+8xv3Y4lINxrpwdnwx4R66IYOfOlvv04dWP04EhpZ8rZ5H35T3WMInXMpRtF7HiM6UZweXBQDDkhaK6qT+sV2yJQhwVjTCKkRuuP8w4/jIIlPBkfQSwUGQK+n8AqTvBEQmMtipHtv3w+3rCmkiH/+efDUdb839RIjxK/fcM/6zlaK1NRHsg4O+imVoLhVEJVA0WBFxG6M5zTiNb6hLN86/cZDYPkVcuvfjSKynHkKzYVemL41iWCiSEICiqGgtBDbgkNajFgCnn+gu89ykMgosZrnFXMJcCFBW1uAdu4Ng+tyfeeZ3OdnBZbq6GWP5ERryPmBD1B20jgor/8PCSJ0IeDw9n8stA7Up6HetY5R5Sr7GrUxtnFqO9pt+GiocPZsJATngz3TKkcduZYhIAv/3nEETJOIMx0I7g8OFwe0edMKNEIvWJrU/UHMMYkQsos9RMXEO71xEhM8SWg4wlszQmeSFo9tD1kEfYkD0P+88+Ho2z3f7LZUOu3b/hncZCOiCgPZJwddFNH4emrpQqConDyvR9ETaGrgmFTQusTRVEccfJyy5n1+7zoxPJvZ9A/XnnRJ4gZ+YqeAbwbz7EuEUwMQcByGMwJdTL6aokvajER8DzCRBxziOqGJVwDZsVCLixoIUlDridI4yyl5GzE2eQBHhE4rUcEcPaJu7ZR2uhZUY44H6nFc54nFQmsvP5CrDIJcwuTI1a5z+V8nj1UOHvh8iNFSvMTYYqHjCe5lr31URH0JxBa/eTRp0gRh+IoYseDCzGT4JkGDUVRbH79Hq5B0nrFlrM1x6ZV4IQ0Weonogm3B8sUBPgS0PEEtuZEixkFO6OJkP/88+Eo2/0fbV5wud++4Z8NHjBRIMoDGWcH3ZQYhsByqiC8KGx8djeY4McXGkNS6xPO07rvMwou7yvEjHxFI4GGeI51iWBiCIKOScNjt28CnwjdCZYAobtzlCxo6xDVjUcBQcQsOFzMSgtJGnI9QRpnKSVnJs4+bsdGOGfTl/7g6ItOH5uaOG7HRu4NEgCHDQM4G6moZ0U54tnCUwhpTzKY4lnHl3M95i6CA2GldmY/zxYJjDgKPoaUz0haEME8twpguwRCq58IPRE8AfwRN+XB8S8U6VEN3RW7kommYIxJhHRY6ieiCbdbo2Nl8iWgg8Rpn9lJMtiaE0TTdokZZbXZywz5zz8fjrLd/16Tai3x2zf8s7UO20A4ygMZZwfd1MD1NZaY1cEsEMEq4xXQ+oTztO77zCsv+goxI1/RSBR06H/+JIZvXSKYGIKgY9IQu1z6k2fAYX6wBAu1mAi4F6ERUcMQ1Q1LuAbMCj1cWNBCkoZcT5Bece35lczMxNncCXQWESAIwD+ICCKO3BAE0oOlRJ/EWsiIhCc+FFqzDmtN/VYONlVqM8623NAqpb0PucVtajTU6qcnAXigEUSEmBaKhIGYSWChk3BXbOcS94TfPPe6whUI4WqXmMnHQlxqcDwEhK0EygInzK274XidF5wMR7n57Yg7b9DEIRcYCv9knB3Mkm7jdMmP95tQjAoKXQNPcYmb0vqE87Tu+8xLMPqE6Df+ITqQgg7Tg7Nhhu4ES3wFjIOfqUzjDzGgpvN4mVGDGK9r0OknsBZbwDauLZaeyTibfkMF3GsSl/36y+QuOK1HzLDn2Rd871OUn+qyZJxtuaGRCe+/XHGzWv0UhQ71kIfMWmd4FVWRLTUHF+rFio3cFZsJxZJ+87xa7NEh3y49a01Zr+a8PzJeuLm8J8aECQutBDFFxYg3KU3S67zgZDjKdv+n2cx1Bk0ccgF+li7oqONnnB10Uxex0XTymoJaADgVU2W8MlqfcJ7WfZ95CUZfEf3GP0TjQYOJ51iXCCaGIOiYNMReRVFs+/vnDQ9osYD/iTj2sg0o3AgTOCDI/7y08YhAzCXAhQWNtdgCicG1xdIhnH3x//yCMMAf2TZmnT+jhrMTgdcYgrlLgzKX/PgAksRMD5Ebi1YeDQ5fhVPjOvAcM9WCA20xhNox42zLDY1MeCOZncnmltTqJ0JPBE8Aaw4g0KY8OP6F0CAJd8WWkhFjGGMSodX26LALWP4gQfz/DU/v4mvdcdFCKWoFajWqpUnEm5QmGfKffz4c5Rq+bXQQv33DPzsU/sk4O5goXcdJ/nIAXjJAR5Ybm5jWJ5yndd9nXnnRV4gZ+YpGoqDDtD3Pth3fEl8U5X5hUn8AHAjP2gl4FeOBoFVHnHycS4ALC1okAAzgqmrQIZwttusZo+VPZMTriGn9kh8fxhTFyCn3X8nPjgCd/+2H6PjgEEF6eks0nI1UXHDMEsBfELb06POQuvxouA5Q6yc8+s0pteOhiLO3/58vUFgR3xpJzlAdT6emtC//eQJYQ4+wUtpweXD8C6FBEu6KLSUjxjDGJEKrLfWT31xczPgIssvrLA4immJHUQR46bji3dfiLWlDMuQ//3w4ynb/t2E5afbbN/yzQ+Gf95V/CLDb/72fvhrt7nWm2z8ydnCi/BUBByeIsNI02+h1cuxg9b9BrGl5MVqMHZykV64whuZr69LYlC8UTAxB0DFpiIWOs1syE4Eof3Cw9x/REcHiEYEwIihWuQS4EkHHqOJqI2nsYtWP2R5RJU9MrOvLlGlv/Q/bcCjEBYRrihT2NJRJy3PAzApwHBlSLRenI7XBrIvRb26t1PbLgpl43D8Js9q9hqPU7mX0cUxx/JghjBQhFnwMEdBWCLFpo6Ev/+EZV44hrOQrLg8OfM4JLBwMAWNMImSApX5SNJd+fA0RdUPJLq+9Mphx5PkjltPuZsWoa1VT+ZmOT7q2v2v99vxsGk1TW5T9+Xl28A1Z1++HAs+zr3j3NfHeveZQex7jPK37fTN/woHnMcSMfMUDG/WIbqY9zy7KGOEZifnsBLN4isBjxJ+mWAW4sKCxF7Zo8HwIm5bFpfe0D7tY9WO2R2j5ExnxOmLOR1awDfbj7CBcU8xd9ufZyElOOG+H+t0j4ly4DlwJno6bhEe/OaUuizPxuH+QnCUxTL8/G0bqSVX9UkIWqf5JEdN0QmzaaOjLf54A1hxAWClzuDw4/oXQIAl3xZaSEWMYYxKh1fb+iBsKIj6aIiViooY0sxLEjDegVcmQ//zz4Sjb/d/eEfz2Df/sUPjnfeF4qN4clmTfsGPCXUdiKPyYckjVUMuCTnpQ7PiQmPVfNRzD4qL7zR3lsamJE3ddilJlVD1fH8JBcEY0lUgOAIQwAMMjN66CDAg6Jko8CNvxLaFDIDBnHgT2IyIQRjcVq1wC0GASMaq42gCtqjY2surHbI/Q8seIfvqsM39gGw513OVnEW0NEJ+iI/Q09D8eihzwELb06F8TWiWOT0mIKVfWYUePfnNKqe2XBZ5v5BnuH2121PmnZyDG1sr3+WrfCgrjmOL4MUNspCdV/502mBBDrFshoD+B8GU4PCNCv/XvvigCSr7i8opTHhT5DCJ8fHWXQ5J6nbf3aO05AhIgLm/t++MgIOxyNi4FCykREzsIWwnuYduGnfKi/C+ypRq6+7KS6dR45++TUbunnc6Rja0qHwr/ZJwdTJSu4ySbIhWFDU/vxsYxhcYto/UJZwa77zOq7dh/vI4+wVqsEyfBJJQ5qrm1XlH0aWsYgCEI1bf6uAF8TtiODzdXhNkb6Cz8IDgFPyZUVMw5c7AKs8SBjIcQklZVXG2AVr0ZO1r1Y7ZHaPnD4t4W35k/sM08lDVAJMbj0tOQcbasMLqLMs52ZmAw/6m2VBVyqp9sZp3h1Qk1rUeUaYt8BmHmvOSouyz5chxscKWA27zgcrkfjXEQEHY5G5fqD66/Xo7swYKwleAetm3YKS/oQK+Auy+rHOvU+Iyzg+71hk+9kcg4O+imoKNTBc54YpxXB7MoxBQat4yGh9TlNE7tvs/oIrTWQFr2wsftwYmo5tZ6RU8CXOYtASaJVsH5WOg4uyV8Zm9Yt/fqOYfN4wfBKXBSrkgwTYUQ8BNIDBKDAXyvGrTqzdjUqh+zPULLHyP66bPO/IFt5gGt/iQxHpeehoyzM8525pie6lYxX4bzsuOvM7xqoaZlnG1ebX7rI6LTD5m5inOItu7VPdNotQp7OfqRLu/uy2p51yfQ7all/FAID4V/Ms4OplHXcerrp5pCAwEj4suNTVLrE+pyGqd23+eMs3kGGDCu6s1CzBNQ9ABbvCqFfC9oE7nBNw3TswVnLzljlTgs3MKd1vNzGGdf9Jefd94L1So4NsKbDQ6zcE08RHAXLqB2LPMBQEGkgX2YPzeikiN4vyIEtPqJ0Ju4OeNs5fXyq7iPfCpI86yOCFB1QXBTBMHtCe7etoDRalVJ4ZfdSbv7slrStr1SX5r9tQ7bibA8T9vjKP9knB10U9txcehDcTGLQmStcYhpfUJdTuPU7vsM3EBrRadxbGoBizgXimAMR6GNEi2BBgGTIhGP7fiWeKBJmHMwnhM8drQEbqHh4lNXCFUQ8BPkIsjAY0Jb7HAG4uyL/urJmNMhZDwuPXeFcbYtK+QFQcrx/I/MOlobswuXUTtWMALJgDSgxJDDjLNVxuDiJBBa/eTRVwEqBShwIHgcMSXkFVIvbRXZq8z3flV32SsU+31/ZYzlAyTmWXSOff+jzl1HEziaXc7G5VkdGThxNUQR4B62bdgpT1YS3XuhWXdfVno6NT42f5QxoeN0gqT9mw6FfzLO9gdppOsoQT+Ki1kUImuNQ0zrE8774L7PonmITuPYNOPsvgcQX0HE+I13C5I3c0OoDQxVb8bu6E9cP2Z7hJY/RvTTZ7VU4VvXOizaORFHblqjvCcxEPIZhPNSsK7AQRKckHE2XOEiRIIhvoKPYSCBa05juwTCl+E8AYh25RL5h8srTnkkkb1Rp1R3OSQcbHClgDLGQrhOpPiB/XG0gBybpmAhJWJiB2ErwT3M9hkMGeV/5UxD2N2X1ZKuT2GYxKqismGYZYbCPxlnB1Ok6zj19aO4mEUhptC4ZbQ+4bwY7vss4IjRUPs4afSPP+2yASdS0Ef7Prh/FvgGbYy3BDoOZEBwPhY6zm6Jr6c34Aic4LEjdXCFRXuPBQE/Qc6BDHzlUhvgq94sFLqGPb6WP0b002c7wdlwFLLXQzgSQ6sMSC3uAQFQXFmHrWM2gozasfQPO07EMD/PVtcAiZ1A+DKcJ4C/zvCqpSJbaiZLUXBAqBO4v6q77JagGS2NkV2CcJsXXB7Yv8aJlCYKlih9/ghC2Erg+qgdBvk16ECvgLsvqwh2fRaveTMAcw+FfzLODqZR13Hq60dxMYuCv8SEZrU+oS6ncWr3fRa/o4rjjB49edjR/T+t57IEJxKIIYaPnoQ2xlsCHQcyIDgfCx1nt8TX0xtwBE7w2JE6uMKivceCgJ8gF0EGHnOpDfBVbxYKXcMeX8sfI/rpsxrOPnLjamFM4ERqGiETBKUEzwGT40gM7Y4gtbgHSC2mXFmHHWM2goxSGwGs1QNRcl35504UNAeBREIK9YUdH8dSuxMW7D/m5GePpLEvwqr2LY3Ef4ipeLbzFfoTCF+G8wTgOYYggiB3cXnFKU8qkjbq8Oouh4S1NIY9glDGDPvz7JPuGrOGkucPCXAO93DIXa3PR/lfhKMauvuykmndYKEwzf7pB+LiOK0Po/yTcXbQTa0Hxq4Q1aEoih3/8goXslaWaKbWJ9TlNE4dvs/9JUZ/lQ/bTMNQ5kTXj+Gj36ON8ZZAx4EMCM7HQsfZuaf7NNqeOYcjcILHjpbACaYGIQBJK4FugS08trn2qviqN2Mvq37M9ggtf4zop89WYEu4FOlR2e+m4BZBUErwHDA5jsTQ7ghSi3tAwCZX1q176OqYLYTM2j1jPf0ZZ7ujHprRM1nLtOgpX4YXxcixW9fHZBSvWjyX6AQiaUPH6s2ruxwS1tJY5BiGbvOCywP742gBOTZNoRGlycOkLYQAlpPiBmYwi1LIoAO9AuG+nGJbzFqvedMPo4PmxZwxRSZoQCmQcXbQTSkxqLEWZcJcQ1NNX7U+gcIqifB97juK44wefUjj7NM+fQPiwgNnZVoFIGkl0C1othb05Nv1adWbsZdVP2Z7hJY/RvTTZzX0w+0piuKEq86znMLGQh8VhImBTI68C7bmse7Bq4piZPPre7gHInF2jH6XjIh71DA/z1YZomeylmnRU74Mp6jFZBSljUiY3sLSVpG0ynzvV3WXvUKxP8fmNi+1P+JoITureZ7kIky8PoxNTV7wR48JYQhwgnu42mZAVNCBXoFwX+76GF7zbKXSVcqmiT8U/sk4O5hGXceprx/1wtxP1JqaQ61POHM9fJ/7juI4o0fPAJy9/gvjzoOb7mZtz5xcNX6JWcHN2CFGpgbiQAAE1IJDLcocunSG+ao3Q6fYVAx7Ylr+GNFPn9XQDww48eat4eMwCbRzQZgYyOS4c8NSHLgHBGwiPYn6hTEUKXILnBMYZpytEgN5nkD4Mjw+4pQ2ImEyzlaB0r7ynBeBwxUQMuBbiaIo1j14tbbH4AaWGiLuuG8Y7stdnyTN/ukH4kPhn4yzg2nUdZz6+lE4zP1Erak51PqE80qH73PfURxn9OgZgLOdpy6rgOUfsJplrscam5pcetZamkU4uLCVaRXgkqBBoG0Qh4ZcTz165uDseucqiiXrT6QliB0RJuo1Od70kPVhbGpi7oK5VthEehL1C2NE3KOGGWer7ME9SiC0+imqX3zErQmTcbYKlPaVJ7kInLUeqptevmOHACc07YMeyAIiLnhgGO7LXZ8nzf6Ms3seyDg7mEZd53Ff/9jU5PEfONu6mag1NYdan3De6vB97jtKdBqUNtQ1bt6pD18rBEgs/pVQi3jlQ3pEJB4Uif7nPHUCzkakcF5wuCs4k9NYBYKvcjHhN66qBh2Hs0f/++MwwAi3lk5tzNqfZ9c4lC5K+QZHUaogSayENz1kfUDumYTIOmxdS78QpkCw41RgAgkjZzPOVinB0lhLszp8X8LHRzzjbBWT8Fee8yJSyHkhA76VCG/ZoYQsIOKCB4bhvtyh6T3VafZnnJ1xdiDF+ynSdR739QMfmPuJWlNz2O8TW3/2jK/xh+9zE5zNEUAzGmgGCIl3LN7nXPxQlE1/Vx+XtMz1WDxYCAcXtjKtAlwSNAi0DeLAh1xVDToOZ+ub+nDGjMbZF/3550K5YekxSEiT4NmIdG2wBV8i4h41zDhbXQncowTCl//xEefVSc+c0lbUExDqBO6v6i67JWjGksM8wXAE3arqF4+YwjonsH+NEylNPMlF4PTSZH96LZYrrdP1Ncr/ukvZknBf7vpczJjpB80NjBkK/+Tn2cHIdR2nvn5PPRK1puaw3ycCjT98n/uOMqCV73MjaCF0ugavqP6wn3csNAma5cKQd5Yw9/soTywoWlwA4eCJYmVygTlz50CGCNFCrEz4k6uqQavejK3FptAPASPcPtjRSFh70Ah7ahxKF0VoVLI5/05NKDHslQE5ZhI8G6PTz74LbONpwJ2jTmd7vJ1xtkoJlsZamtXh+xI+PuK8aumZU9oqklaZ7/2q7rJXaJb/HKS4EealgGNDXupuPnDBcdPtRLgvd2c5aU6zf/qh+VD4J+PsYBp1Hae+fk9FqNMVzHZS4ew1t263X+ZipAjf576jxqYmLv3p0wxRHeo4+6yv7gEYQq4QZ/3+m8AxCRFW9AzOF0zekk2FYY7qzdjCpR8CLNA+wJEgpmUs2TN/8aLwWRwSuEeq6Wac3YdxFFOkkBqWTy7pXcFJd16OtwdgcqJBlEWC7fjXV9S+pVX4XxTFnPnzEDtHbGuzoT+B8KV9Cs7e+Ozunm/LQ+Hg67/gqxja+dVd1piWQbDBlQIUWSvhbBnu5xTcChyNM/00BUtkjpUJGT/h367j2Sj/O50c7ssdmz/9QDnNgV27J84/GWcHo9h5oGgDTz1KaBKTaI3Om0yJEr7PfUcZffdQx9lFUSy/8lwRPnQFT/aIsKJVcL5g0tCjMzClejO2cOmHAPKnM6ICW+RD4cnAiYxpLFfaMs6OxdkcNfJrDvjVIAesCaZCU4WewojYGVFtyGBpXO1Vk9kVzlZvacqjNTm4ussh1wQbXClAkbUSgcYR2n7+kYeHROQ8BUhkjpUJGT8hNxjoOMr/TieH+3LXh0mzPw6GOo/fwvKh8E/G2cE06jpOff0n3XGFa6eajUF0lOp5ti+bw/e57yjegHvVOePsMm6iU6IruGKKxoDgmhwrHBEbefRbplRvdm2Kg0CgAbSquURLVxhgMT6OBf8o72WcnXG2lmMst2P4GWf7W2TctawjRQGKr4fqppfRxCpO1Nm8dVm/90Kz4b7cusFCYcjCFqBwp1uI47Q+jDI+4+ygm1oPTG2FNRuDaB4ZZ/tDbAkHsJplrscyBc775kNcGK2CMwV9+EnH88iiMXiYJCP01BhmnK3+zLjvPae3c/D3meL5H+kkAfW00p974VkkkokhkDDIir5w089nc/utx6z5DqqsPDCSH4SfBXycokY+h0RJedqrHWfPmVeYgQbHzC5yHU8YlSHlGcx6EjpZUai7HJIM5xi3ymqneRzGCe1ffx4pYQYumE4Q4ER9E1pcEeV/5k9dPuNsbzV2+q1a1WIorar0eFX7avyMszV32MJmde5AmWa5qcPJONsfYkso/Z+rjumLaBUW7YzF44jG4GHGbM3UG6TqzdhCbAr9EGgArWou0d4WwgDD9FgGIIsCc/l5dn6ereUYy+0Yvh1nK5Rc1hbAaxBmH7Hi1558mdhI2tgsLzLOLmOH8uUnani1fVF/9wnNZpztQK7mFXNw2o+orjEUwZ79GWcH3aR7dTpGNRuDaB4ZZ/tD3CSiwb5IIQuq5pFFq/AwG7Zk2JFxNkNFjrrsz5bqpwYJVHH8RAoBtkA020hpq/AEMgRpgDTTMEd+nq0Snl+lpvQhirM3v3F3XAIrX7f3lWe1iBqugJAB30q0Z1oDTYF6EigOGWdnnB1Ikb6DGqRmrSU5Dw9rAAAgAElEQVRpeRyOYi1jOhEWtabmMONsf4Y0CVnG2TUfWtvBSk+J9rYQCLJJVHprEBoFPfPz7Pw8W8uxBvXzzJduFwlvfYztAab8/RjEekSZtUjaGmmv3jOHlvirX3/WbV5weWj/+vMCQ/N4AUYLGfCtRH0TWlwRdKBXIOPsMELzOrDFSNpV+Xfvz+bn2UE32b07SC4vNPXpjLP9IW4SyWBfRBvwa+fRRIfwMEnGr9M3q3ozthCbQj8EBLzoYKhhIBjgO4V3DqHJOJuCCJc6htUTevUEvXxnQliQw6/zv/NQg+jT7ptevJ3vrkJThZ5Cith5I1xjkqVxtVcMc9Pztymxsn6SQ/jx4SIrYT6B4p4cQpxNbyRwTJ4J5ll0To1wRIqKVFGBKCNI6QQOhn4ict9uxPzdJzSbcXbG2fp9c2VMN9lbaXXt2xa/2mm6KJSVRkTG2f5MaBLVICCgSAVV84CiVXiYJBNU6xTIOFshyLjaZckcjro4LtHBU7kQnMZ79ZRU8AIZgjRAmnEIUnTzuREclsPNIG01lVuLI0DSmb31J8amJjc+dwu/UJE0XC3wMc7L44tAgzAjLvSQQE++PFWwnliOru6yZUpjWXLYNA/HgZ3gWIUZU9uslQFSwgwWi0t1L3g6QYATrVjVVEms/5lL2ZKMszPOtmeG9EvT/Ixdx5JSbt3KVKwd3cmZ5aYOJ+Nsfxo0iVuwL6JV+LXzOKIxeJgk49fpm1W9GVuITaEfAgAWnRHag0YY4DuFdw6hUd03f26knc+NzFCcLTIciX3qozuJvvh/HQATBFvlfJ49f+ki6oCA1yDMzgj8CkIB2TKbkbTe1NYn1V3WuebIX/2qWTLeMK8SMA/V45g7pnIoCiwEVYkQTAxdxNlf+2SqNanrgw70CmScnQrqUuMXWu8NnzI+f24k6KaQn7ufR/VvRGSc7Q9xk/gF+yJahV87DyhahYdJMn6dvlnVm7GF2BT6IdAZvO6nJduoekDlO0JoDqEZGM7e8S8vK8xUZhrAFggHQPGnZX+W/CPiEhjOqOfZm9+4FyFr8DdN/OmgcqACasg3ZD4ITOmrnDgbYUWgQWAKBPArCJUq5QngAf9xtFl1lzWmZRCVZsqYMntxChA4hY2wbJnI4jnPg6LHpSoXnI9oNvRqoumW5bH+t/k25u80W7ZslZVmvwKa9tMNYrZVZ1iURfkn4+ygmyyuHTBL1Jqaw5Zx9umPX09FWSGwWfh3aoLxDfbFsanJVeOXxOhBNNEhwOH9g5ipzUP1ZmwhNoV+CKgoAxa3TmgYCAYEXecSWLhiGU0p73X+PJtaCECJSaT0GBH3qOGMwtnpEXdlAjSzZK6SjWZVklR87uEe3ceddBE2vXALR6Ku0JsRxyoQCtqW5gfrieWM6i5bpjRWsMH1BShvDfOCy7XNWhkYIaiig6gJGfCJOOGq8xp6tZUDaEqCDvQK5OfZqVhcC0YHA2/4lPEZZwfd1EFoaqqkmtL0tWWcjdZCFRmNCpWO24liJ8Ti+aj+qi1VT1wEoEGHEHyz5+mcmsHoiQf74vIPl4U++M/0FefAaWDCb0HNdgHVm4VCMdRD2TqwFgqrJorz2o2vyVXaMs7u5HMjR246UVUAEVBtiIylHENqEXHY0UsgUDO8UeIqB7Qcs1qCKyBmeVVBLUKFQTEkYuMXP67Xlqq5mHpUQSsPQnZGHQlC6i6D4SAqG1y28VPAzqIYufQnT/mX9GYd2yaweQgu+9WXeWiQP1yGR5k7s4lXE8x2LI31v93VGWcrqGr3T3jWEZbW2FHxzTg76KbWAtJYES809el+2wukafg+a45iLXbQz7O3/OhxNDw6FIYgOD9w8EZRaauC82iKFiIaCR82Mrm3SPVm7Cs2RZeCAAu0hp/a42sYCAY0P6Naqbpvxtmd4Gz9m1rO3EBAeQKr0JSlAwIqbm1+xUYsnyfX7buG88kALsBngTtNAoVFwG7wOWFd3lvY1APqLof8pdVtbpKgUTxjjsPWhvavP89TRUTHNQSfCNqT4lh//3ZXxPqfuZQtCffldq01tTFjwqB2CIXNE7XLiTpyxtlBN7UblSbaRA+oOZxtOFs9B5IfhOWdjGpWXMNoEpHNr9/TZJmxhocSrcLD5F3EUBbBUL0ZW4hNoR8C5NUuXweNs8969S57S4vrIgKOIMc8RNp2pX9EXALDgXxuZObibKv3WMJXDu8xy/qJw3ICYUXowTEJXp0g3yPKa9sEEaq7HLr2wQbXFxDHNI/g4IT2rz9PsYBbeGiICQ6GgqA9m3i1vrWhFbH+t7s34+y4smz3Xrm2639R8c04O+imruMU1o+y0ojIONsf4rD/u5PgAUWr8DBJprk9qjdjC7Ep9EOgS4RNmTlonO2uyP486c8KOKJjplLG5KTsSIEQcQkMM85WNwRvUVg+29+0QGDp5rX6qkMFZ4/+yaes7yJC2at83d7Xk+4aQwisBQrBwqwgyJaMs9uISVRVDCXJNCppwwc+HVFHyzg76Cafjwczh7LSiMg42x/iwcTQvgsPKFqFh0kydl0x3IyzU5+O9GE0fzxJPcaE1+CkNCFKBsQ9apiGs1fesAXvFsQx+ZsuYDLONGmr5RxFQSAmf+vKYCPzTtG+pgDsUUsOFZyNNK6Zt3VjEiWPuCBMPPNVaPpvmSAMgvagYdR+HQr5u09oNj/PTq3YHYa2pzoUwZ797ytGi/zf64He79YZnc7XsYMTCf8nxw6W/71nrJ0DpBOaST9nmlPFaHHys1eWf0SjZ0zk69jBiWJ0hL96hnMuLDDLicIXvtpnr+lJX+bwsJLBnINTg1mMjlz89/u9x/Fth4VjByfWT45b9RvMfv6Ywe2Cg/So6WRLEHmCdaHWpZ/4be1o3iO+b7uz3OfYBQSdCEEXQ/AFgWtIOYwkB58TyM+2CCOZy0KKHblJCz6wmA9hJ/cwXEEE3HXRz58E7SJMPTxDhEKXkkb8qIIAh8MJ4IQIy9VrZKemB65mgahiR0YilCZBNhM/ZH89/9TXpp0r3TNZw0z0wPvCaF89AwtLzk6JqPcrKY+sgmvNp0R1OP3vyweCUzPKeKLAHyFwJn/8gEdEZINYglkrnx6u8Ff+sA3PYMC0El4PBxyTPO3LHx5H6wNCwfQexLdRf6F6OsL9adqgb6p9rsMMcbscJEOy26sf/uNZ16Janq7cbOJzTsqm5j3i+9pn6z3Plo7i7rLq50yiPa+4j5RmSC3wOZGa3sajL+S5J8lhALcQdorDUlgR4vjImnp4hjRQWKKNqH8RZYH5DU6IjkWUEXWFWJL3f8EUDDNDyaOMaBbFyOLTV0Sfop6X6qite3RdPjbK+qo8GjIPZJwdDEh3NzBWM68s9elDF2dv+/mzEQUxmACJAr4o82hSh1iyYZXJBCfiOL7tyocxvZ6KzsTwRPX9cZ2ZcbaWAEAAIGgaUMkktPU1BxyfcZCH3UFUsxlnK+CIPMcNAqcoRlZccx4fkgyAmlpS5n/l297PLK7ff1PNMJZvZoSejLM9PoSv9FpU/UAqDxaCCCK1Tqr8aUOP55QRUxlnRzhp+EUyzg7GyAtc2ryQzo1Uxe9/0rrm8NDF2XFVMpgAiQLOsFpbiJWJiMedyL3jEOPseUcsZM010eflcqGNhul6oRYE6YR+k0jZlOMzgfacw4yzVVkG8MINAoeuEh+STAzObhBQHkczQ8CpoTkWgbmrgfISrypwAmd66Romx4uSQ3qvzZ9ne82u55YEVfGHtknGRtm2NvOGxgMZZwdDMbAL6dyIN4n6dMbZTsf2qmcwARIFfLvzaBoNvnrADLGEct8zY4hxtomME/3OWnWpqQmUsVkAtSBICvpNwqYmlrf6Dy5b+4kPwH4O1+ri7PlHHs5tNlVxm+bMn+fSzxcS7XkVWY23keBzIjW9DeAIGI0bBA7txYckA3vUEvkcGvHl7grSwmkkD1UggnoqgVgE5qs/psPhBHPKwaksapFiiZpxdot+zaqmxwMZZwf9Xq9OOYpRkhJV8fPzbO1vjlCP5H2RnA9+XCyCCZAo4As9jyw/CPjE5MO4Qzk2HRTO3vTCbR7sZZ3iUDLR47ScteqS0QTK2OyAWhB8O75RWzty/RyuuXBw+QN2xkcdhBLrWvO41u040xrKsanJw45eosQsv6GFo1ukfVJiGwiblwJcHyL4jtwSMatWZZztKCZ9n5tZ0wIHCWwWQBUX7TEExHhwu8io+jrTvBH7biptl7y6Yw9knB10sL/KDGKWV5b6dH6e7Y9RMAESBXy782iiQxBz9e6tAAEQq1/l9d0HhbMB41w4zOQDobYFT1mrLiPYulqXfmwEIjGBaDm2AwEn43R9aNslzr7oL/crAF261PWf2ZZxdj/9EDgkhknUSJVYBKZXAMcbEhQWKjUYRhA1TI4Xha8AoGEYiiEvjxBDFY2wvJ5nmiqMP7RNMjbKtrWZNzQeyDg7GIrB3EbfLryy1Kcnz/vmQyjoztPWvM+8v4o275rC1qyGVg/euBJOo5jyAsqZ4BMTw+iyCLs6IgKR3fb3z/EWQvbzA/KIRx/KselMwNnnvvVgK5HgaYaMStcMtSBIJw35Rjt+83L6dtCA7UDQXpZhlzhbbMovO6eZWMbZZQzJOZwgWiQPwh0mYiu2oxQ4ADdqUXSpCVvaQIJldf7cSAP/5SXD5YGMs4PxqFenostTDbUcadWnq79/5jtqbNXu6zB7KlqIawq7sxqacXb1E/R4h4BWB7SNoKdm10zA2ciTRIKnGcc0bal16Sd+4i7mcmwHAjcOp+uDuYyzFYg0bxA4dJX40HHvDq3PjVz4Z0+QT6JLjZmqLXBYkmec3YI/s4rp9UDG2UH/1wDE0bWpnk7ArEbEIYezz/j8jXUCEUyARAFfrNHmQQzmefbl//YVAesdIGOCv2uKpwEB6y5J9DVfzlp1yaYhF2hGQy0I0gP9IJrpd63CdiDgZJwu42xx8XGteOVE5oPgYpzZW3Vo4WwcX3jSPXQlbBKfJXnG2UmezIuHwQMZZwej4MNJ7urT5ireJOrThxzOrhmUYAIkCvgywdPg0fB4xGsezdhaPc8mPXx32sW2qfMzuBxDLz1rLQ3P+9bD6JFcIEgDLCa6G8thBnFoiNnGBNSCEPrb2khYiO1AzFycve6hq5FpnEhNb/UYG3rMDAdHXAEyg8+qe5dxtlFGND+LPG1nyJI84+x2XJq1TKMHMs4OOt9fZQYxqyp+w983EoVgZtHnRtBl44hgAiQK+DIEfR2Eu9/3f74+7lCOTTvD2S7MR/D69Mc/mnF2YhoBeYBw+bzu7xtZdOIxrhJBUcMstuaENbLMthInmVnN4TUJJCW2hvyq5Odbo4qaW3MxzCr5jLMrf9pilJjX9uVIMGQOhcM1BB/hs5nqP0hHs/YDxnJr9uVYtVlusB7IODvo746uXw21quIfijh700u3oXSiH6MvUjG99CdPQaZ+eQ0mQKKAL9A4CAizYfDo1z+dvvs04WygLismE2Au0d1Yzlp1yaMhZhsTUAuCVEE/iMZbWBdiOxDwKk7X92To89kLjl9KS9be8yHsZTVbhAZbc8IaU2Zbxtmlj7kn4WqTQDjCRCwC0yuA4w0JLywos5zppsOWNpBAgqEeZpzdwI15yZB4IOPsYCBq1yl3SWqoiiOt+vTM/twIOZPDUEDqzW/czV1dsz0gFsEESBTARhYC5wKBvoJj8ojz8zahM85ODKbC6xw2kcokzBRhFZAHCIHeqmEIZwuDrUMwxXbVLgo7kiuOu/wsDriZWMbZpS95wpipAg65Peq1M5y9fv94ndoSZWxdIZZ19s+NXPI3T6JmmkQd+y1ludXldY+uy8dGWV+VR0PmgYyzgwHp+h6G9XOkVZ+ewTj7sl+/TCWPKumFf/YEH4pqSDKCGTEMJkCigC++1g5BIc44O9HvrFWXmppAGZsFUAuCpKAfhG11cx62AyHQWzWcDpyN3Q1AOZNw9mHLDjfu3SH3uZGImslrWvOU9qxkSW7H2SJMNEQ5rXkEfpzWac8pI6Yyzo5w0vCLZJwdjFHrF6+2wvrYmn/CZOhw9rHbNgH3sHraR0Kc04tN6a6FK5by0mmF1EedvZbLRNPBBEgU8IUbjQGE2TB49KMP5dg0P89ODKbC6xxNkkrKWyR28j5SAe4FCEBbbNq3Kg5nr3/yZr4H7BdMsZ3YlHaEjDm04iFKY9xiEKnpbXwoAtdKXCLsCAHYCUItyTjbUUz63ub50hqNjEI9pHBgKMJk8lvPpaYK03yScXaa/4ZkdcbZwUD4q8wgZlXF5+g5nh46nE0e3/bzL3F8YKV7khYPo002rX1cZzABEgX4XpJGmwdhNgwe/dTzZpydGMxZhLOFJ1bdeLHgCEjNbyhgkAms+1i/+qTETHqeTfcLl/HMl243jtPwGyNjU5Mn33Mldyn8yQkzBE5OLAKTNSe1hsg3M04DUyaQYKiHGWen+DOvnV4PZJwd9H/XdSqsnyOt+vSQ4mzyO6unvufZojdknC0cEjvMODt43UMCyFgQPJMbYqbQplDLYR8xuRn92bjn2RF7lldS6BebkgBkzKH1uSOlK24xiNg0llDPWUKBmDdP3o3KCZNAQIwbppiVB3DMGNcJGVrLvYeYckKs8g0zzjZ+j40KWfn7bYbmvy+G4bnYKIc1ZYlp9EDG2UHnT/+NRYdoRMxCnL3+wE3tldFgAiQK+PIHjQEEnt9wEIC4p5464+zEYM7e59lWx8wanI1rxS8av2KgQSjJQeDsdfuusfrfx4xFYL76k1pPSjjbyT/2liZ/PrsTD2elg/RAxtlBb3ddp8L6AbMaEbMQZ7fRHuD2YAIkCmAjC6F6efkpIN7gzSGFPvXgHeDsjc/sRlMEged2HKjhYaeVaPhUzx0cbkyLyqEWBJlAwxY3EifDdiDgZGza93Z+nq0eZ1rvES4aCC5mMAeBs0Wso4YZZ6uaifCBSK2TKn/a0BMVTKdQbJSdCvLEMHgg4+xgFCzwqI3rV0NtI3iND3BnnO13dTABEgV8u6MxgKA2bw6HFmdLkKc/8Z1GnL3pS7fCNk4khhMwFwQppGGLGwk7sR0I2ssydOPsuQvmC7X+IQ8fjnbFb1/HpnjLBGP4kp7YUHw+G9eK3ywDUvc/b8BljOM0/3w28oS8B3/6Q+CcjUVgvvrTRiNzGpgygQTjgUNcQGBWEG2cqy2/pbihKGKjnLZLXt2xBzLODjq4rfvWXE/G2V3WzWACJAr44o6GAcJsGDz6qX7Qn2ef++b92A44HpaofcvneZ7/gAsckVhR145//kqMnkR3i+XtYBqmFAgABE22vhHbsySxHQg4GbNHblxdzrpxttAZHJoxpSWwAQGFMXxJT2z24Ox1e6+Gq4OuEwLkMXiJu1FIxg5jEZiv/qTWk/y5kfCT79h42uVio2xfnblD4oGMs4OB6LpOhfUrxINH1LWIGfY8+/J/f7UoijW37FCBCfsnrVuofbr66rOfg1qCvAC+YggcnHRYHWeTKp5dtk19IBt4iwMIMAUIgwz4nGiMYPxx4/jGLxk5y0/HbW59I2GPdV+A2sOOXkLypVjG2Qr94H7hWnEOz3bQIJRk9bmRysMiNhFDHqB2UiUWgfnqT1Ix6Ts54vD1RZDtPHAqIs5P2a3/QvkXdkisjaO14rr6h+crYqPM12R66DyQcXYwJK1ctiQlHAnVp2cYzjbikeS6iGprbNgyw2d/sHOYbSbiRO4dM85ODi4QAAhS2Q54cpt32LLFeKMCfA+cjXXlG9SMs4cPZyNAPGRLzlgFfm0iFoG5q4HyUlJJqW131AJ2uWr8HCQdJOPsKBdnoQF6IOPsoLO7rlNh/fWxNX/gPdw4+z/f4KDBFoywf4awT7CD+OzPOBuPtJEGzHUtkK3DXyAAEGRl6xtZDw+Uht2xbyU/Whxx8nITlFcC0ZS5HS3lu3MZEc2e2BB9bmTHb76MG8cxmZfZzvNsuBzuAqchkXG28XOQPKZpTcFXtGtqbhje/rLYKKftkld37IGMs4MObvHKNVQ1C3D2+d95xONoattz5s+zyTR0WnQ1tO3ZJs9nPxo8CDzAxjdAefSjD+XY1PE8+9RHrqFdxKYn3Xk5kJOLAD4GgHCBMCA/qyroadP36mPNLSrnp+Nqic857R6EtFmdLDdSvVkIS7GIsdAgzsjjSAcHB0ORURhaidT0Nh7QimuFTYkvhg5mxtmOYjJ8nxuh/EEcW0+nRgojrplHRN1lj0ieGn4PZJwdjJG/ygxiliOt+nT5PHvFzi2Bc9a8z2iogB3orNYp/+4OhE2Luvaw37T0WZ/9wAEgqPebQ+DgRrVe2eDA2a5Ne/z8+WwtB5DwIGhaYFBtTXsDulxA8xhqO6i7jNkjTjlBE4geQIP1sDTLZcBBNeBYlmc1+JxIym0DZEMz35fTVgGD2TLOPv6D5yBVouNgE1RRts1xnrr7Nv+04XC+V2s0y7f8uZHWvJoVTZcHMs4Oer7rOhXWXx9by8+NBA9Z9/cHoaGygtj/63HWqbABTomwf9K6hXPjliZ89qPrg6A2bw4zzm4WDmAaEM30YBUSHgRNQT8ILGmR4KCWYVl9B4XAIKxP1xhBg/Ww5k0Hh9k2RJ8bERhaDOnSGcyWcTbeI9UIg1VURdk6yZi++pNWOUkz26o9kuVbxtntuTVrmiYPZJwddHzXdSqsvzHO7n0esXyeHf4XW7X7mtBQWUHMONvqZl98gadBZJxtdWJjJv0uttbAjfogigCgXH/G2agJPSLjbJm87WRIbMX21Z/ZibP/4/U2ztWW32T0641jo1xPa5YesAcyzg46vK371lxPY5zdA23Tg7OP3b4J7TboYq9Ac7/FVVvv5i1M+uwHvAaRcXYLLrepaAfcZJzd8y2uNt5v4wE2fwfSE8s4W6ZjO6kYi8B89SeuQvo1yNO1MkaCoR7iG3qcwCwRbRzHf9gGs2n+iI1y2i55dcceyDg76OAGV6vlJTMRZ+MJX3JTadmZRi0OJkCigM9+wGsQZufg0TeM9ym3CB96n89G8OYfeTjoFAIIAARpQ56DSNnFtZaj2KIoVl5/4crrL5TCqjevvP7CRGPEdtBGBEC2ZwgAJOAR+JywZGzap4rFtcJexBdDBzN/bsRfZGT2tTJGRlGMUAMx5LHjUW49hZIVpvlD3eU0LXn1NHsg4+xgAPxVZhCzqDJ1iV4xmp7n2Rlnq8TyZQg6BAhXIwFMSar7hzDOVuFI/QoEAII00hBpn7qNY70AvnYp1pu3/vw5u0wcV2wnzphxdpwXpRTcKCdqjVmUvet89SepmAzr7xtp41AtOs0bnOBkbJSDirLAdHrgfeGktPXm8Kq05xDDpH86w0N7835Wi+51/YkoZ9aMMkP8JY4H5oB5nDn9HvRZ0GJJtary7c39xj0GPjG5V33qgnO2qo29QGDTHsF/ptZCux4ssQwpMxBvJDif05CJStfpKy9HbjrRfC/EjaeTdnQK8hjfzrJRzbts0aDcK7bD0cxowid8SU9MKw5IcisRzN+6AiKlsSnxxdDBLHOeOxxO8PjNP6VrqHsmJW+7y2pukF+tRS+VyXyu/dgPhUyElQ8HefK4vdJc0d5d9udknu3UAxlnB69B3G3qUgowqy7Rq0oZZ/tjE0yARAHf7ugQIFyNhELv0xUzZ+vN2BqEboMFW1vxMQdYVtQlmFwJa6uJ3h7QcnHYdnGYp+Kb+1qE2+vNYjsARMQLQRTBxZBySc+o/nfYKN8gEJO/dWVESmMvsTUXEzLCAzzQFs+r9yf+KbixJ1b3TEredpfV3CC/dnLjkGDIHBRATmAWURvkyeP2SvNPe3fZn5N5tlMPZJwdvAZxt6lLqa0/f64uwmbFKONsf2yCCZAo4NsdDR6E2Tl46H26YuZsvRlbg9BtyDjbkgAe+KWjKMvalIJu7mvR1l5vFtvhaIBBJOAZAgCxipRxNq/JMffWJmO7yza5rnktZzjlMzIKtYjnj6NSxX1Csmt/SP1p/mnvLlsKRdzbwrww3QMZZwevgbw30zLmYCue7hUpXtPdh615n9FfzZLHCyK67LQ4LW5Tt0/aKUM+K+A9EOgrcB0Pt09XzJytN2NrELoNGWdbMkQAUP6YE2A0vTqbGsx9TZmi5l22aFCZL7bD0QCDUAfwAJsv6Ynlz43I/IEbe56Pubc2Gdtdtsl1zZOn86RT/BQSDLWItxVHpco4u5NYxEctS7o8kHF2MDW7rlNR+jnY4vT2X77Ih4LuFamMs/0eDiZAooBvdzQMEOgrRGBIkfXpipmz9WZsDQKb9oiMsy0JwNEk1VaAJxCumpvCN/e1aMs4W90FkdL8TpGIKSBkTIenx3fugrksasrWul9td7mujjbkLbeDna7hbMbZfR+2d5fTg5I1NPZAxtnBQtBGLUrWIQA0hoBE4HCCcFJUctS8z9R+eq/lUwS0K+zOmcmn71RBMAESBXzGc79xj4FPTO5Vn7rgnK03Yy8Q2LRHZJxtSQAP/ErHYZ4La+5rEa55ly0aop9nbzhwEzeJaICkHqEVByS5lQjmb10BkdLYlPhi6GCW+d/l9yvqnknJ2+6ymhvkV8vt8GRU5BTzef45yE48HBmILNaKBzLODibxIGuWcy8gLUFQqxBMDHuz+Xm206u9iWACJAr4dgcOAIGAchDAA+pTF5yz9WZsDUK3IeNsSwJwcEmFmJABB2StFGihBPseuXGVmKqGA8TZ+LgICFioiIyzLflTBSt4Z10Ctrvsku2S7z9dw9mMs/sZ0t5dZinXMChZQ2MPZJwdzLkua1S0biAtQRAkOuOJccGnYW8242y/l4MJkCjg2x3QFoSOcfvfK0Bwfbpi5my9GVuD0G3IONuSAApE9n9fIYfXANyNi7JnIfb1yAzy89mA1yBgoSIyzrbkDwtfzL21ydjusk2ua57/dA1nM87uZ0jG2ep7a+zKND9rQNoAACAASURBVEyqadSQcXYwZl3XqSj9QFqCIEgEYGSbzTjb7+FgAiQK+HYHtAWBUFoj69MVM2frzdgahG5Dyzh78xt3EwITrxyqTmNBjNxagciMs0sPABUhpoDdIo0xtBIxKVxLRqQ0NiW+GDqY1ekoN9p+H1XrQEzYdpfZ9MDIxPJoX46Mohihr2HIY8ejPLBjR29kP2BknWnxPXPsjrMC1w7bYTPODl6D6AvVpSAKjSBEubHNZpztD0wwARIFfLujQ4BwNZKxqckV1ya3VpsCbA1Ct6FlnA0EBkwGoLbgmCOGrT667IHNQF0m4Vqbwp8zf86c+XMCGtp7BiaOKc4IMMQJvqTHz8+z/QXEVx98c7a77JPvas5/uoazyCjUImptGBJhDrs6ZXO9DT3Qv+Pt3eVA0cjwuksPZJwdvAbNb1iLKwWAxpCXmxN3bQOfVaWMs/1xCCZAooBvd0BbEGbnQEx9iiLnbL0ZW4PQbRgczp5BnYCjSTKbkMFQPJVvrzeLY4ozAgxxgi/p8cM4+/THPxqZv3XFRErzakmqTAEhw48jAt1SutY9k5K33WU1N8ivieXRvhwZhVrEOtqkiBofDvLkcXvZDxibPO3d5dgdu4Sbh6wNGWcHr0HcbepYCmBLEEZXKGsQ/vdmM872xyaYAIkCvt3RIUCgr/DIUkB9iiLnbL0ZW4PQbcg425IAHvh16f/x9DS3k/Z6szgmoR+8lwAY4gRf0uOHcXZk8jYQEynN7xRpMwWEDD8OhRVOaCnKDY7VW2K7y011payz3I50zyCjUItQAzmBWUQt5STdrE3zT3t3OT0oWUNjD2ScHbwG3dy+mloBnQWB+oKGwQV6sxln+30dTIBEAd/uPGo8lOATE63FpytmztabsRcIbEr5Q1DD9cpRF+uO/Y/tCpgCAVNb4xI2LQvFueCEaTFGbtpebxbHBMREHOngGCKsjJ9xtr+AxNxbm4ztLtvkuub5T9dwFhmFWoQayAnMEtH1URvpb+iB/qVu7y7LKpGfWw/QAxlnB69Bo8vV9iKOnok+dvsmAYxQdCDc42Sc7Q9GMAESBXy7I4IgEER0Dh5Nn66YOVtvxtYgdBvy82xLAggAmnE2gDX3zBlPlB8IQV6BoFSlYUzaNpbhO5o0tw00CCVf5j+PLw3bQy1ND2e7y011payz3I505zCfl/mD/xQdFZrq1zEhaikn6WZtmn8yzh4gGk7PW5eGjLOD16Cb21dTKwoNCFQWs+joMp3g7Et/+rR6dpX/To0/hXyRRuxAuBrJZb9+2acocs7Wm7E1CN2GjLMt8eVokmpr2/DLsqmriEt+e71ZHBNnZDDI9/tGeoZlnO0PZeTVNcRsd9kQGgDDf7qGsyzBMs5u6ENZFmYFYJ2hh8o4O5jEAyhV4S0AnUFML85mj68yzvankC+4gLYgdIyrPbDxKYqcs/VmbA1CtyHjbEt8BQDlzzunvxNknK2ug0hpUTPFkIQNZn6erbxp/2q5HelXIOPsvg/bu8vpQckaGnsg4+xgmbBXlwFzAa9BGP2gj8mO3SY+T9LJ8+yMs6OvnC9TgANAUFitQ5+iyDkbzl7/5M2eTdV3LZxoGxBTQE++kMuwzNF0RvszeGEHISAOWxQjo3/82LAcob3eLI6Zn2cjk9uLdeTVNcRsd9kQGgCjk+uWcXY/wdq7y+1lbCcRn93mZZwdTJoBlKrwFoDXIFw42+BnnO13bzABEgV8uwNPg/BAXp+iyDl3b6a84smjTNLQMEfPJghj3fGQ+znIIeoT7fVmM8R0TDPQ4u0Tw6PD+LmRc996kG6MSvLqm3L8CvTo/DzbX1wSy6N9OUuw2M+NnP/fHvUbOk2z9gPGlov27nLsjvnjJR14IOPs4DWYpuupbwt4DcLoB1Wr0JtHxtm6K+UomACJAnI/PkakQFBYrUO+sCGdcXZLNVQA0OHqYe31ZnFMQj/A0ABDnBBLeJniWQ1+w0yOW8Z35DRWcybRMExNZZwNb1mJxPJoX46MQj3kDwJUaNr+WJ31fKlM+wFjK0Z7dzl2x5YqZN6OeyDj7OA1SL1nrawHvAZh9IMhxdlbfvB4Kx7oTEkwARIFfIajYYBAX+HxpVmfosi5jLNb6iIGmkxMklaXt9ebxTEzzsZ7DN5E0+jIq2uIue+yIdopo9XUVdezFs4e7haT5p/27nJalqadQoX1kLUh4+xgAnVapGKVA16D4DjMS0/z8+zYE06bXDABEgV8BwO8BjGEOHvHP79EeMv6CuRhYjLIcxmiMQViZpXg+YsXMCiQmCFtL2+vN5sxpTDxs3MZHk0FyofxcyO4k+d/97GiKNY9eDVKKAh1JfPzbHjLSrSdvT1MxhIs/LkRq1lDw0zzT3t3eWYV2FlmbcbZwWswFBcW8BqE0Q+G9Hn2ULjPZ0QwARIFfHurXu77S8IUcZ+W+Dn3MzDsYphUvk8DfjIJjqFZd9SWcBmXthlXWPlhh8v49nozx9AIIgh4gBNiCS9TSC1KWBrGJ28DSb4jp62qYA+XNI5TJnar4bbaEsF03+WIxS2KJJZH+3JkFOWP6Hp6gMrGN8T/7AeMTaH27nLsjof8s+cuHJVxdvAaDMUVRqEBwRuYl47rCvXvs4JcGr43zRsK9/mMCCZAooBvbzQMEOgrPKY061MUOefuzRQ4c1M0PBVu+WORHHVBWIBpLiOmoLaL6tapTn7YTjeqrbz+XXZtIVAmHdkaTRFWyNgyqg+MWstqd/KLawVjrCtgj74qP8+2egvMxPJoX84uV36ebXeR685m/hB6IOPsYBKjoEwnAfwKAj1D7woa6u3JZJztD1wwARIFfLsjdiAorNahT1HkXMbZ7T2tISgw+iefGrqynnG2ug7iHqFmqnntKwlDRq3NOFvzkjFILI/25Rln96tKe3d56MpUe6V4+I+Wcbb9nrPIGYVlOhiA10QsOWOV0Q9MhE2cweLs/3yDLIR50+GtWnsGEyBRwGeM6uX5cyNxWTpMpRkPd1mtSEyVlpa315vz82zhAfacvqVg+cqDd879ntm7rPXJtvyg6ck4u19V2rvLQ1emhqmYd+2cjLO1621zd+uFqYlCgbNJBVAaQK3JsZ3IduT691l9x9+C77kZTU470DU2b7RZAnyHgaNAUCitQ5+iyDl3bx6bmtxwYBdPJGVDiYBVrKsPjSy/8mwBQaxDk2nVNryY1Z0Jw2tz/bvsqhLW8AFrAgxxQiyxZVRZMcCPzNxmYiqHZY2yaiNhGKbW5ufZVm+B2Un9REZROND+MBRhgjXDR6T5p7277LrjmT8AD2ScHbwGQ3FzUWjwtFgUGtUVzI4SPGBPoP593vD0rl5PlTvCQvStofCg04g4/7jxVuiWOjfmERThsw59iiLnvDibdGBrRdhxNuAyR12sO2rQnMtgIQEyvIbc2HWYauunww6j2fXvsusU8w4/TMSUJAUTQx5N5Z+h/n0j/N5c9uuXxRXo3dCMs7mTTLr2xXElG+cjo6hIov1hyIunadMwcdL8095d5u7N9IA9kHF28BoMxZ1FoQGKFYVGoSKJemPzqdF9zjg7wr2+/EHUQFgbCc36FEXOZZzd/P2SLBQKR0p+REp0vKTRXXaZzRBP9as2BBPDGY2zcYf0y5hxNhxjJTpJZmQU6iEaHyfQBK2WDQczzT+t3mXXHc/8rj2QcXbwGgzFbc04u7MwBBMgUcBnODo6CPQVtJCxqcllF5zm0xI/l3F2xtk1PcAQz6GIs5eeuZp7AN+Zaa8xx99eXdJ9l3W5rkeJ5dG+nPk8/74Ru4vay8Csv3MPZJwddHHXdSpKf8bZUW5qIhRMgEQBn02A1yCsONunotacuzeTARzcK5Py50bsCUBQYBi7XavPwBjiCeNs81P7towqv+cGfq38rSusctj8Lp9PE18FYI1wg2gp9D5LfHPuu+xb1f6c/XYkOodlXQBnH3XuuvbP1KbGNP+0epcTg5KXN/ZAxtnBa9DmnWusK+Psxq4LLQwmQKKAb390dBAZZzeuZQNe2DbeSkwztrzV3swQTxhn48P3gKfA0+Lb/eD7rkfynLhWkZvyVTgIwg2ipXxresiMs6f6b9iaenAw69jFrPmtpDLBWr3LLWVs2okaOGHmL8k4O5g0g7mNgV0yzg44qPl0MAESBXyWoaODyDh7pjSDxacuH1JTW+3NGWdzDwB2txd6X33wzWWcnXH2zAeg7d2jxDbd7fL3+W4yzQ3LfXZZ2q2DXLu2x4+yHz9gRARlJ28ALjrWzkZRFs+oABZBxO4+m+V88UXUQPAnghue3tVyX3cjMDIA2yHNEErznZ4ZfQjj3YIpI6YWnrB0bGpixXUXdFZwZ3Nu2c9W7y778pPnA2gQSFoQNMWHeIQsMgF8+xFqcH32c0s47U82XbL6fSlkFCV5DQM7Eq0X5Y6M6EotqyTld1Hw35ZgvgTwB3ogs2kuCke56+On2T/7V0f5P+PsoJu6zpSgAaUACg0AkNntrJxY68P32aJJ9E4URxCWNYccyxdfdHQQiDV6AE1hmEQMH85G0iady/dc55BLuKLeXfblJ6LD89Nk8lkUKJW3FU4VZYGGyeHx2S8Mg+X+ZOOr8H4A1oJItjxNQb0op+018NUsVbTeRxHUA+RLAH+gBzKb5rtwlLs+fpr9s391lP8zzg66qetMCRpQCmSc3XUYOtPviy8aBgjEGj2ApjBMItw4e+X1o6QZliii/zNk9J4Kr3gszYEI646Wn14SkupNWpnbSYfygeyRzsI6xIrDvZkb78vPohi5/N++AniKSKncqH5GlsvwWRF0DDnBralP++znlnDan2+6ZPU+gWzLOLt+jGqvYJVE6328PFKY/KEcgtnaZ9cWhO+yL//bOL5mTh4YHojyf8bZQTcZjm2ZETSgFMg4u2WvD06dL77o6CAQa5TINtuJG2eL7dhTyYyzB5cr7ewU7s18H19+mllBHGu6ggmiJ1zhVAaeSgNaAqw++7klnMa5rIQuWdlPXmvJbB6CRnS9KDfaYvoWsVTReh8vjxQmawSHiZnmxHCUffnfhh/S7J/9q6P8/77ym4wz+3/vZ3JHu3vt2j9Rlo8dnMD/Te/cUv4Y8ujI2MGJ4GunwR07ODl2cLIYLcQrH3ZqwExQ7osvIgiCAkpDHmWiB/AKSxTRjy/FGq8UdB5oMxmEMM8TNtVP486O1vX9nen6ffmJoKhkKAuOWXP4LJUpyIigY8iJtFvss18YxqyKXQU7KdUxTLN5pudM5/azwlLWB/zn5ZGCixQdVqJrX/kyuQ2fdG3/TNcf5f/8PDv4dqTrd2RBA0oB/jwbb1L5cxcXHWt9+H2zRZP61r/2yEcwLcsOLZYvvogaCMRaRBnDJCI/zz4Ucq/eXfblJ5KN5yelKH/ls+w7IfRxoKo4sIeUZRi2/t1zbUTDZ78wDDbjXFaCr8JzdzzGBtGG8Qk66kU5YaPpWMpSRfY+I8F8CWCN72CZae4LR7nr46fZP/tXR/k/4+ygm7rOlKABpUDG2V2HoTP9vviio4NArNEMzn17L+hUIuPszsI8RIrDvZkb68tP5BvPT6BVMEHw7CUmx6kMPHEDEmmf/cIwWI5zWQm+ittPhmacnRiwmOUsVWTvyzhbd6Av/63pXZOp75ZH0gNR/s84O+gm6de2x0EDSoGMs9t2+8D0+eKLjg4Csa5ZDX27VKoyzh5Y2Kdxo4yz1Y/GimuVcfY0ZmWtrTPO7rsrfJfjKr+6EVUviOXUitshKBzl/4yzg27qOnWCBpQCGWd3HYbO9PviCxwAArGuXxB9G/W1tYGz1x/YhS4Igh77mUPxISIIEL83LHO7k8P2G0lngR1axeHezE2PSJte/eEg1ZquYILohdX5uRFuRALts59bwml/vumSlf1kJOVwgsEtLa0X5ZY2HZQaFArUQ/4YWw+QLwH8gR7IbJrLwlHu+vhp9s/+1VH+zzg76KauMyVoQCmQcXbXYehMvy++aBggEOtOekAbOJt/J521wxKOmEOTCUSupjLObjv1wr2Z7+jLTyQhz08AbjBB8OwlpitbuAVptM9+YRgsx7msBF/F7Sc7M85Oi1fUalZJZO/jgNsaviFjRp3XKRS+y778b8MVTtPyRM8DUf7PODvopq7TKWhAKZBxdtdh6Ey/L77o6CAQ6zZKpLF1xtmdhXmIFId7MzfWSBLbN5R5fgKtggmCZy8xOU5l4IkbkEj77BeGwXL/5eKruP1kaMbZiQGLWc5SRfa+jLN1B/ry35/ncbP6bnkkPRDl/4yzg26Sfm17HDSgFKiFs+lvjqDPRRlcrzf3VapHktq3VgUzavfZLOSLLzo6CMQ6rgj6lFs0ZJw9mzNNna3eXY5KIZ6fQKtgguDZS0yOUwk8bTiwSxnaylef/dv/8XnTWsu90N9a8ONw+8ncjLNbCZtfScbZff+E77Iv/4OpHiHgD1SejfJ/xtlBN3WdSUEDSoFaOJsuz8Znd/eIOPvD99miR0BqFEcQljWHHMsXX3R0EIh1RAX0abYvzzj7UEi/enc5Kot4fprIlc8ajxurN+HdINSw/dy8eYfPt18NBrW5fMbZ03JjWAeRvc9IsHACBCPepUCa/8J3uevjp9k/+1dH+T/j7KCbus6UoAGlgAdnb/nh46Lz6VUjzv7wfbboyTjb4hTJ8sUXHR0EYq0H0aekhuTAcfYlf/MUa5ka5FLJU+Z2jSMwPBS3SsZj9o/r3eWo1OL5KaqNwD1iCJx6yn1XnXLfVR04P2y/MD6YNrp8lbRkfDfvFuo7pl6U6+uf1hWsaMjeZyRYOAGCEe9SIM2P4Sh3ffw0+2f/6ij/Z5wddFPXmRI0oBTw4GyqEXpv4Drj7A/fZ4seBZW0ViSYlmWHFovHQtKIGhFXvPsaYt1J6R84zgbMYo2zzBb8B2jr5LwlKD/0/tW7yzInrYFAoprVRuAeMUQCdBaGsP3CeOsBOVOX14pb98eJ9lO9KEerHQ5BVi5k7zMSLJwAPLgDp9McGo5y18dPs3/2r47yf8bZQTd1nSlBA0qBjLO7DkNn+n3xRUcngnrAmlu382GbjSHj7M7CPESKw72ZG+vLT+QeEpU4fChwz+aJPXy2e2Aatl+3p658xtk8WwZEZ5zdd3T4LofzGbe4ETGgiM/YbaL8n3F20E1dJ0DQgFIg4+yuw9CZfl98gQCIQB0UQ/BTiYyzOwvzECkO92ZurC8/kW9IVOLwocDZ+AaFyuE+TuVbtkqH7efW4kQeQpfPOLvVcMUp8+DsxeuW6wEKJ4An1t1PxR3YJRW+y10f32VZ5pMHovyfcXbQTV3nU9CAUiDj7K7D0Jl+X3zRMIhA0RdD8FOJjLM7C/MQKQ73Zm6sLz+Rb0hU4vBhxtncm4Oj60V5cHa1spMHZxtv5KISGJk8cCLNH+Eod338NPtn/+oo/2ecHXRT15kSNKAUyDi76zB0pt8XX+AVAazFsLXekHF2Z2EeIsXh3syN9eUnEg+JShw+zDibe3NwdL0oD86uVnYycfbGZ3ahKhJx1LknIz+HmEjzRzjKUfc3wT9p9s/+1VH+zzg76KauMyVoQClgxdlHrD0O94d3PjB7RJz94fts0SN+5BHFEYRlzSHH8sUXUUMLodiJoR5Qn8KAZMc4+7xvPYzP47pygwTyz0F2eA/q3eWodEKi8vwEE4Q5WxTF/MWLOjxsxO+fEeYF7kiv2OKhKc9nOgUVty5PFKe7XpTjdA6NFOsg/d7HIlJygkEcGoE0n4ajHHV/E7yRZv/sXx3l/4yzg27qOlOCBpQCVpzNL4+7l8TZH77PFj0uLMWqpGXVIcbyxRdRE51DDHmgk+iOcTZFFtEHIcAKQHZPoOuueYilW1EU9e6yLz+RbEhU4vBh8Hl2xwEI28+txYk8hC6fP5/dcQBt6lnpyDjb5qCKF85/T6pHTFU7ZcrmgSj/Z5wddJPNt23yggaUAhlnt+nygeryxRcdnQhUPTEEP5XIOHugoZ+mzTLO1h9y45ZFXh9dPuPsaUhjP87ePHl3ZCiHQCzNe+G77OsvbRw/zf7ZvzrK/xlnB93UdaYEDSgFMs7uOgyd6ffFFx1dAGsxbKNc9swYIM7ecGAXa5YaWMnPsztLtp7icG/m+/vyE4mHRCUOH+bn2dybg6PrRXlwdrWyEysdlufZSMuZQKT5IxzlqPub4Kg0+2f/6ij/Z5wddFPXmRI0oBSIxNkrrrvAuFFx9ofvs0VP/tyIxSmS5Ysv8IoA1mJoxNSn0yccgbOPu3wT8q1HTBqfqK5AM2uHfSY+IgLClMk4W+ZIu+N6dzkql5ColF18mHF2u9GL1VYvyrFah0SOFY2Ms/0xibq/vqagf/PHkPTvnmej/J9xdtBNXWdS0IBSIBJnG5ck+u/hNaraGWdHJIcvvsArAliLoS2sPrVO+QicTWsZeMo4OyLIQyVS7y5HJRISFelBRQmlCUMQKoe7dk3YfmG883YowKHLV+8q6SQEAbs+VVh/vSiH9Q2VRMbZ/XCEoxzO/2DCewWGKi+G0Jgo/2ecHXRT16ENGlAKzEScvXTz2q59NxP0++KLjq5ASV9YDL110KdfLhwIzj75nispLpu+fIfrqTYeaQOWSVMV6Enmz4QcadfGcG/m+0XlDxKVwsGH7C1Z/7dA8Fm+Uzd02H7dnrD8lj/9DEvLjLO7iZtXa8bZffeE73I4n9NKqDdOeTKuT2WcHUzTrlMpaEApMBNxdteOmyH6ffEFAiACBVEMwU8lusTZl/3TS9aIsJZZQZaMs62+aocZ7s18H19+It+QqMThw9mHs/kZxRtFDLkHp4euF+XpsbHxrqxo5M+N+L0YdX9xkesT/t3zbJT/M84OuqnrTAoaUAoEcXYx5/2OKxRnf6Oq7f/cSNzGs17KF1/gFQGsxdARWZ9m+5I6OHvV+EW9xIv93IgrkKxlZpztclKr/Hp3OSqLkKiUV3yYcXarwYtWVi/K0WqHQ5AVjYyz/SGJur/2dhD1LNa/e56N8n/G2UE3dZ1JQQNKAWpml/9fr9RHYHH2N6raGWdHONcXX+CVJWes4KWwfpR9u1Sao3H2+d9+SCGqjLMjgjxUIvXuclTmIFFVVpQfEQEThDnbvWPC9gvzquvgxRm0Cg+wCflh2P25QjvUi3JI25DNZ5zdD0g4yuH8j0x4h9iQZcbQmRPl/4yzg27qOrBBA0oB86GR41aY2uLsD99ni56Msy1OkSwzIhXHhQCO3HRidHwrbeEl0TgbqtDw2Cc9tMfSRVEsXLFMHpqNoQEYBap6U324hh3bJpgphwhZ7y5H5Y9IVD40SxPNzl0wtxfKrp0etp9bG59dtIonLZ2E8rnrU4X114tyWN9QSbCikdL7wrkRnw9NJdP8Go5y12dMs3/2r47yf8bZQTd1nSlBA0oBs5lFX/s4+8P32aIn42yLUyTLF98Tb74EzwWjA+pTGFDSDc6WJ9bHrGVqAF0lT8bZur/SR/XuclQ6CajKh2ZpUgiVNP//7V1Ny23ZUe7r7UiICAEjIuLHINgo3RoH2uJXiHpHjiQ6aVSCA2nQiYMkggMVIhJEhcCl/QGOJGNHzgRHThw46En/FtnvOXvt2mfvfapqVdWqVWsVNPfd55yqWlX1PFXruadv35bX8zwCnj/MFhkQ8A33WsXr23/PXeR1eXielvmnPJTN09E9ACwNyd2Hc4POh1pLWWNwlK1rlOU/vjep/6mz0TZZMwVNYDE4Xmbksaflj8/zSZxVKm366fb1Ty9X0UnK7d/C8V1vdNySDPpFqNTZ7fFvfyJvli+oAhRn+a1gISpUrsfVVMxe6GpdP54/zJY+QWsV9/zLTisP1oUh8XkoI8F6+zh19h0RHGWc/3TOn1n2Ro3e8iH1/52zzu49+XczHnO/xGX21n3fd0Mz81tkUv4Pipbkczei5V+F8ssVe//zu/BfsKpeRbT89XHROhfHSrVdT4/Dt/aje9EoNzlVXsLf+z2f3weX4rjqs/tv0h4PVnuthWOcOLxZJjUa6J7FHr48rqY9n637hucPs8WtV4u1inv+q+x+9aVf/dnnhGd+up7H/UmdZev+m8QHS2MhWx2C3I7a2Mv6g8+yTdZbVFn+/d7LWnVtnXrylDr7SXNuH2nhcRUHTWAxEOyaq3P37+PzvLd/mZ/U2YQ7Fcd3vdFxS6kF9W7ezikXXupsAtYnM+LgxZvlDesnTw9CB748rqY9n6178iTr+0cwW9x6tViruOdfdLY2oOt53J/UWbbuv0n8snZkdx+3pxb2sv7gs2yRM4wpyz919ksvU2dDSp0+W/Ps9NDHN4+X2aPF5Wta/vg8n8RJnU24dC+BKR+sN3p5w+yBejdvCZQL71Rnf+HHv4h2oESAf/zgd//ve7eA5cvR7UjlpxPeojnHNuDNMqndD1IVvjyupj2frfuP5w+zxa1Xi7WKe/6ps1sOBVgaku+YViw9f8r4j8+ydW2y/FNnv+CTOhulqTXP0AQWg+NlRnJbjGj54/N8Eid1NqG9OFDrjY5bSi20dTah/Pt/5gguzu2dlzcXbkvreuZ/wltK2oFteLP8rHflswepCl8eV9MeUOv+lxwvH2C2l0aHD9Yq7vmnzm45EWBdSO6+A6gOb8j4j8+ydUmy/InyI7AZqf+ps9E2WfMMTWAxOF5mJLfFiJY/Ps8ncVJnE9qLA7Xe6Lil1CJ1NnEcQpvxZpnEqQepCl8eV9Oezyd7gzA1dC88f5gtbr1arFXcM0mdrYoagm/q7Hu38Vle+Wr1E0GqJSu6PIvU99TZaJuseYYmsBgcLzOS22JEyx+f55M4qbMJ7cWBWm903FJq4aezP/+lH4Z/bqT815D550YIFDoZvWdevFkmcerX/uNvIFJQuR5X057PzOSJ+2ozw/OH2eLWq8VaxT3/1NnPKLfBoQN36ux7t/FZXvlq9VMH0JbkaXsWqe+ps9E2WfMMTWAxOF5mJLfFTrcTSQAAGyBJREFUiJY/Ps8ncVJnE9qLA7Xe6Lil1MJPZ98aBa7P8ldVLtyW1vXM/4S3BNQie/Fm+VnvHj4rSN0eyq/l4WZfzF5eWnfyIceTlw/pnVicvbVWcc8/dXbLqQGLQnL3neHa+j0Z//FZtq5Hlj9RfgQ2I/U/dTbaJmueoQksBqmzW2551bNwfNcbHbeUWnjo7K/9zz+WfoLrM3W22WLB72Z4NINThahQuR5XUzF7CQ3PsnjG84fZ4tarxVrFPefU2WWKGzyARSG5+1YsPX/KOI/PsnVtsvwDC2hi4aT+p85G20Rsd7UZmsBicLzMSG6LES0xfJ5P4uT32YT24kCtNzpuKbXw0NmwReD6TJ19MlCwV/XPvFlmcKoQFSrX42oqZi+hzcq8bzY8f5gtbr1arFXc80+dXU9I4h0EzMCikNx9K5aeP2X8x2fZujZZ/gDTlvxpeBap/6mz0TZZ8wxNYDE4XmYkt8WIlj8+zydx3nz69itvP76lB39dryhyjs8MT86lFkWs3dbsWW23z1Tb9fS41Nm2WPfBVd4sPyXM/sNC1NvD7dcf/c334cuyB1ZX656s51z/fEjv2nD3yc2rrJrU2aUVDR5SZ9+bjM/yjrQGL6znN3p8UstTZ6NtsuYBmsBi0K3OvmUPb7I3n37y5b/4PVJVJCPr/lvHx4tcb3TcUmrRpc5+9/M/KK3rmb81vv3Fx+9mmPOz3j18VogK570I64dPV194lsXzes71z4dsrw13n6zl3HNOnd1AXpcjUmenzi5k6PthtzSuXqTOvupMed/iboAxy0HPHgLp7J//u4+eVcL+DPYq4jNe8Hqj45ZSiy51trQoxD8iZ2Q5p87eU0JFZ3/4/W/Z3Pf7XOmvqLMs45LTv/9JnZ0622bc1MeBNLGps9E2qQPzEBBNYDHoU2f/2O98cMu+7iYjVe606PWGHK/yvb/6Om6kYkG9m7fDyoX38mfx35aX5S/pYzXq/e98VBxvAbeTrJ4exm2Cl6mz91yq207r736tCbPPlf6KOsvW+ZvEB3tGcvfRu2lnKesPPst2md8iy/IPf32j5ZP6nzobbRPaaKEBmsBi0KfOftFY9/TKvz4m1cMwErbX3Z1Rqrkp9W7eEikX3lFn/8K//ClLZBfjX/rXj+Hfn70dZvLkToDmCeB3M0yJ0fRVei7rCM776cs1LjzL4nk95/rnQ3rXhrtP1mItcoYxd4cyXlBnGZ4V5rmsnRvN3vv28k3EigijSR2YynqOz7J1ibL8U2e/4JM6G6WpNc/QBBaDEDr7J//w10nF8Iys+28dn1etrTX1bt6yKBfeUWcX3Vz3kN9n1/UN98LvZsj5DWv0qQidB+V6+nKNBs+yeF7Puf75kN614e6TtViLnGHM3aGMF9RZhmeFeS5rB8rrFRFGkzowlfUcn2XrEmX5p85+wSd1NkpTa56hCSwGIXQ2qRK2kXX/reOzCzZ0oN7NWwrlwkudjQvcTi4V/G6GnN+wRp+K0HlQrqcv12jwLIvn9Zzrnw/pXRvuPlmLtcgZxtwdynhBnWV4VpjnsnZSZ2Nrh0GZKtMwnMEaZVQIqamps9E2GcFTwqIJLAaps52mqMBU/UDCt5ER9W7e0ikXXursMAxMnb3xd3lKnR2GuuvvVMvaKfAtQL777h7YEK+qL44XR3yWrZsgy38FNBwDyQmT+p86G22TNc/QBBaDznX2+//wJ6Qyaoys+28dv6ZmK5/U2ePv/Vev8bsZcp7BtfUr3kfl+iBki9lLaHiWxTOe/y2fL/zEj+CmwGKtwiJnGBMcyXqkzjI8K8wz1Nlf/nPFvyWW1WIVY1nP8VlWSfJJEFn+4+/bJ63bPkqdvfXi4smaZxfH7t/uXGfvk9V9Zd1/6/i63ZBFo97N2ynlwlP/Pvs3/vNvP/dDpn9z9q0Ka3z7i4/fzTDnDWv0aZWeIXU2Wt2DwVos7JXF88Ox5JfUWbbI2TxmWTvkdnRrKOsVPsvWhcvyT539gk/qbJSm1jxDE1gMUmeT/z2ONV7c+CR8GxlR7+YtnXLhqevsFdDtLJsnLl7x7fG7GdbI6Pr73/mjm/VNg65K9Fx2r3HhWRbP6znXP0ue1yYnn6xeFjnDmCdHk96izjI8K8xzWTukVnRtJOs5PsvWxcvyT539gk/qbJSm1jxDE1gMUmevsswaDvX4JHwbGVHv5i2dcuGlzg7DQPxuhiTfsKY/xdLZX3n7Mb20Ypk625HwZe0UOMI+wFnjP+OzbN0Yfs7ja2vYE1L/U2ejbYI9tXhGE1gMUmc7Ln3Z0SR8Gxmlzp7hDsDvZrjHaqgXS2fXVPj69U999NUXR9gri+e67F6/ps6yRc7mMVNn3y8dfJZr+UP1M8dadr26p0fqY+pstE3WQKIJLAaps8NOIwnfRkbUu3lLp1x4+X12GAbidzPcaRvW9KcPvvuN21K6uTzI7q/+93dBKHiWxTM4yuTRImcYszZp6izDs8I8l7VT251+/GQ9x2fZulJZ/uN/r0Hqf+pstE3WPEMTWAxSZ4dROY+bhYRvIyPq3byl8+7nfqD8vxtvUrv8j9OVENnOsnmynt/+4uN3M8y5vuvrn6xYthOU3fuI8CyL5/1p+q8scoYxazOmzjI8K8xz6uz7dsVnuZY/VL8wnFG6j7j1kvqYOhttE7fvXHs0gcWg6Oz3vvn7JIfNiJYPPs9XcbaTbJ6uzo3yvk1X6qJS72YYfelz+TIb3H9a/YdnWTxr5RknDm+W63ueOlvjaq/tP3WW4/AWfEMB9kxtf3rxk/Ufn2XrOmX5A0w1hqXDZEj9T52NtskaWjSBxaDobJL1zoiWPz7PV3F2hxm8uDo3yvsGLakOSb2b4QFLn1NnR7okeLMMseY9p87WYAWv55s1dZaj7Mldnqmz79TCZ3ljhM3TDhcNwg8WkNT11Nlom6xpgSawGKTODjvhJHwbGVHvZpjOwv/U2ZHoh9/NcKdBrHnPqbM1WMHr+WZNnWWIdZjn1Nl3auGzvDHC5ikMZzSGsaJYUtdTZ6Ntqmg9ywVNYDFIne00RSwoT41J+DYyot7NMJ2lqNTZkeiH382QqBBr3nPqbA1W8Hq+WVNnGWId5jl19p1a+CxvjLB5CsMZjWGsKJbU9dTZaJsqWs9yQRNYDFJnO00RC8pTYxK+jYyodzNMZykqdXYk+uF3MyQqxJr3nDpbgxW8nm/W1FmGWId5Tp19pxY+yxsjbJ7CcEZjGCuKJXU9dTbaporWs1zQBBaD1NlOU8SC8tSYhG8jI+rdDNNZikqdHYl++N0MiQqx5j2nztZgBa/nmzV1liHWYZ5TZ9+phc/yxgibpzCc0RjGimJJXX/n9Yevgv/z8jf2f2j3q3V/SJm/+eyTN599svy/Cdj/dJE/P+1SqXX+1vFLIUEflv68+ext+ef2Um9pWLfFGt/o8ev7XzbS7aG83A+7dX/q89/neRUn87fuwEn8N5+9XffMFS5R3j+pTm95vqJxWNIr6/yjxyf1Nr/PRn87UvFbHJYLmsBikN9nO/1ulQXlqTEJ30ZG1O/AYDpLUfl9diT64d+BQaJCrHnP+X22Bit4Pd+sqbMMsQ7znN9n36mFz/LGCJunMJzRGMaKYkldfwe3os7zVaSK1Kdyuerb7n2Bzt7FuXwhRfky8PQf9ERmfGufZ/vBP32jSO2b7HZaaufpPU0mOgH5Jdei/LSNJ2ncxFDhQ3nJjSOzj45vbf5Db+zbb+Fefj0hnowwoQK2muXrltbysxe/LuBOne0OA4mPqbNJberRyJ1gIAHB1k6d7UQuAB/xf/ogQPn6uj1J41f+/Zs3e/Dt44kZKybf2AkW92NTZxPHIbRZq1m+njt3ogsTaL+RTk5MnX3SlGvOWRiTaJQ6m9SmHo0sOFMbU7C1U2c7kYuPtQDlutWXOtuBG6mzQwtoYvLNZ/mwARyorXokf38SoeGYpc52h4FEqtTZpDb1aOROMJCAYGunznYiF4CPuNkFKB9uWdLpqbMduJE6mzgOoc2az/JhAzhQW/VI0gY7VK3slTpbuaF8wEikSp1NalOPRu4EAwkItnbqbCdyAfiIikGAMn99LemlznbgRups4jiENms+y4cN4EBt1SP5+9OAMKmz3WEgkSp1NqlNPRq5EwwkINjaUGf/1n/9/WEdg1MM9pTguB45wcmJ31gBynV9vuns8se164LUenF6OZJt6uy+9gx/Tin5N5/lwxhGnxkbXCjYAZvU2e4wkHicOpvUph6N3AkGEhBsbaizD7sYHAGWSx9mPXKCkxO/twKU6yC76ew6X7EXp5cj2U6gs3/6j78mpgd/fLraYM1n+dDw6DPTBQFSZ7vDQOLxL37vz8rfVkty4BoNvbW5zVC1dycYSECwtVNnq7KCHgzAR1QAApQPtyzp9NTZdDjVLIfe2OCyIzGwjrcBvJrP8qEnaoR1CtQFf1Jnu8NApR9YPVQXht3QW5vRB31Td4KBBARbO3W2PjVIEQF8qbNPOkBq4oBGQ29scNnx+X9CkrBBBBv7oJjrmhB9dOqqVvZKna3cUD65qTwGq4fqwrAbemsz+qBv6k4wkIBga6fO1qcGKSKAjyggBCjz19eSXn6fTUJS12jojQ0uOz7/iWMSwqz5LB82gC5r20frgj+ps91hoDIPrB6qC8Nu6K3N6IO+qTvBQAKCrf3m07c/99d/4KqoQCGMO1If0bYR+VULUD7csqTTXVnRFo1+Tht6Y4PLjsTAOt4G8Go+y4ee9MP4uky64E/qbHcYqOwBq4fqwrAbemsz+qBv6k4wkIBga9+0lKuiAoWkzn7SAQHKh1uW1PMPv/+tOkcNL/2JjRFx6I0NLjsSAzWI1OVBzWf50MkY03CdZRewps52h+GaIftPwOrZf6DyauitrdKh2iDuBAMJCLZ26uxaAgj9AHxPtDX8SIDy4Zblnw4zafEsbG9Y96E39nvf/voKTP8MtMzQf5ZXHKL+tESHvN9SZ7vDQOVv6mxqp/qycycYSECwtVNnO9EKwEdc6wKUU2c7ocw/dmidDdrB5z9xTEKY+c8ygCLkYxf8SZ3tDgOVvKmzqZ3qy86dYCABwdZOne1EKwAfURkIUE6d7YQy/9jU2cRxCG3mP8t8Zvblwd+fBoRJne0OA5WVqbOpnerLzp1gIAHB1k6d7UQrAB/xAhCgnDrbCWX+samzieMQ2sx/lvnM7MuDvz8NCJM62x0GKiu/+MHPUE0r7GbZ2hWtEbq4EwwkINjaqbOFPKh1B/ARLwAByqmza2Fq7jfLxubznzgmIcz8Z7k5sZUP7II/qbPdYVCmVWW4WbZ2ZXsEbu4EAwkItnbqbAEHJK4APqIyEKCcOlsCVVPfWTY2n//EMQlh5j/LTUltcFgX/Emd7Q6DAbUqQs6ytStaI3RxJxhIQLC1U2cLeVDrDuAjKgMByqmza2Fq7jfLxubznzgmIcz8Z7k5sZUP7II/qbPdYVCmVWW4WbZ2ZXsEbu4EAwkItnbqbAEHJK4APqIyEKCcOlsCVVPfWTY2n//EMQlh5j/LTUltcFgX/Emd7Q6DAbUqQs6ytStaI3RxJxhIQLC1U2cLeVDrDuAjKgMByqmza2Fq7jfLxubznzgmIcz8Z7k5sZUP7II/qbPdYVCmVWW4WbZ2ZXsEbu4EAwkItnbqbAEHJK4APqIyEKCcOlsCVVPfWTY2n//EMQlh5j/LTUltcFgX/Emd7Q6DAbUqQs6ytStaI3RxJxhIQLC1U2cLeVDrDuAjKgMByqmza2Fq7jfLxubznzgmIcz8Z7k5sZUP7II/qbPdYVCmVWW4WbZ2ZXsEbu4EAwkItnbqbAEHJK4APqIyEKCcOlsCVVPfWTY2n//EMQlh5j/LTUltcFgX/Emd7Q6DAbUqQs6ytStaI3RxJxhIQLC1bzr7t//3n6NJMSF87u4APqIyEKAcDdxX7vC4JTDLxubznzgmIcz8Z9mN4EoHd8Gf1NnuMCjRSRhmlq0tbFOFuzvBQAKCrX3T2anDKhggcwHwEZWBAOXEVwZWQ+9ZNjaf/8QxCWHmP8sNKW1yVBf8SZ3tDoMJudhBZ9na7MaIHdwJBhIQbO3U2WIm1AUA8BGVgQDl1Nl1IDl4zbKx+fwnjkkIM/9ZdqC26pFd8Cd1tjsMqqSqDjbL1q5uULWjO8FAAoKt/cv/9pcBRdgAf64AwEdUBgKUA0JcPZjBHWfZ2Hz+E8ckhJn/LAcfkz5QTp3tPsZ98HiWrd2+2+4EAwn4b22QTKMN2B5x3RP5HZsLZd1ux4k2y8bm87/RYmmSmP8sx5mI80ybwIRRLnW2Owzn7Gj97ixbu3Vf+/qC0H9rtx+39ojrnsjv2Fwo63Y7TrRZNjaf/5jo6WsnP8/Wf5bjTMR5pl3wJ3W2Owzn7Gj97ixbu3Vf+9rp/lu7/bi1R1z3RH7H5kJZt9txos2ysfn8f65cY33qP8txJuI80y74kzrbHYZzdrR+d5at3bqvqbO9O9Aecd0T+QvK/27m51yvfnS7HSfaLBu7JZf6O8t/luNMxHmmXWD6Dn4LSpE+rz7fXTvQBQ9eS1Huo4r629ou/xXnHn7OcjfDXtsh2yYyrIX2PBfKbVDo75RZNjaN86Na+c9yf8zn3fJdMCN1tjsMffB4lq3dvtvuBAMJ+G9tkEyjx/aI657Ib9NcKOt2O060WTY2n/8jefjPcpyJONffXbAhdbY7DH3weJat3b7b7gQDCfhvbZBMo8f2iOueyG/TXCjrdjtOtFk2Np//I3n4z3KciUidPRLztWvpg8ezbO323dbmiySe/9aWZF/n2x5x3RP5Vc+Fsm6340SbZWPz+T+Sh/8sx5mI1NkjMV+7lj54PMvWbt9tbb5I4vlvbUn2db7tEdc9kV/1XCjrdjtOtFk2Np//I3n4z3KciUidPRLztWvpg8ezbO323dbmiySe/9aWZF/n2x5x3RP5Vc+Fsm6340SbZWPz+T+Sh/8sx5mI1NkjMV+7lj54PMvWbt9tbb5I4vlvbUn2db7tEdc9kV/1XCjrdjtOtFk2Np//I3n4z3KciUidPRLztWvpg8ezbO323dbmiySe/9aWZF/n2x5x3RP5Vc+Fsm6340SbZWPz+T+Sh/8sx5mI1NkjMV+7lj54PMvWbt9tbb5I4vlvbUn2db7tEdc9kV/1XCjrdjtOtFk2Np//I3n4z3KciUidPRLztWvpg8ezbO323dbmiySe/9aWZF/n2x5x3RP5Vc+Fsm6340SbZWPz+T+Sh/8sx5mI1NkjMV+7lj54PMvWbt9tbb5I4vlvbUn2db7tEdc9kV/1XCjrdjtOtFk2Np//I3n4z3KciUidPRLztWvpg8ezbO323dbmiySe/9aWZF/n2x5x3RP5Vc+Fsm6340SbZWPz+T+Sh/8sx5mI1NkjMV+7lj54PMvWbt9tbb5I4vlvbUn2db7tEdc9kV/1XCjrdjtOtFk2Np//I3n4z3KciUidPRLztWvpg8ezbO323dbmiySe/9aWZF/n2x5x3RP5Vc+Fsm6340SbZWPz+T+Sh/8sx5mI1NkjMV+7lj54PMvWbt9tbb5I4vlvbUn2db7tEdc9kV/1XCjrdjtOtFk2Np//I3n4z3KciUidPRLztWvpg8ezbO323dbmiySe/9aWZF/n2x5x3RP5Vc+Fsm6340SbZWPz+T+Sh/8sx5mI1NkjMV+7lj54PMvWbt9tbb5I4vlvbUn2db7tEdc9kV/1XCjrdjtOtFk2Np//I3n4z3KciUidPRLztWvpg8ezbO323dbmiySe/9aWZF/n2x5x3RP5Vc+Fsm6340SbZWPz+T+Sh/8sx5mI1NkjMV+7lj54PMvWbt9tbb5I4vlvbUn2db7tEdc9kV/1XCjrdjtOtFk2Np//I3n4z3KciUidPRLztWvpg8ezbO323dbmiySe/9aWZF/n2x5x3RP5Vc+Fsm6340SbZWPz+T+Sh/8sx5mI1NkjMV+7lj54PMvWbt9tbb5I4vlvbUn2db7tEdc9kV/1XCjrdjtOtFk2Np//I3n4z3KciUidPRLztWvpg8ezbO323dbmiySe/9aWZF/n2x5x3RP5Vc+Fsm6340SbZWPz+T+Sh/8sx5mI1NkjMV+7lj54PMvWbt9tbb5I4vlvbUn2db7tEdc9kV/1XCjrdjtOtFk2Np//I3n4z3KciUidPRLztWvpg8ezbO323dbmiySe/9aWZF/n2x5x3RP5Vc+Fsm6340SbZWPz+T+Sh/8sx5mI1NkjMV+7lj54PMvWbt9tbb5I4vlvbUn2db7tEdc9kV/1XCjrdjtOtFk2Np//I3n4z3KciUidPRLztWvpg8ezbO323dbmiySe/9aWZF/n2x5x3RP5Vc+Fsm6340SbZWPz+T+Sh/8sx5mI1NkjMV+7lj54PMvWbt9tbb5I4vlvbUn2db7tEdc9kV/1XCjrdjtOtFk2Np//I3n4z3KciUidPRLztWvpg8ezbO323dbmiySe/9aWZF/n2x5x3RP5Vc+Fsm6340SbZWPz+T+Sh/8sx5mI1NkjMV+7lj54PMvWbt9tbb5I4vlvbUn2db7tEdc9kV/1XCjrdjtOtFk2Np//I3n4z3KciUidPRLztWvpg8ezbO323dbmiySe/9aWZF/n2x5x3RP5Vc+Fsm6340SbZWPz+T+Sh/8sx5mI1NkjMV+7lj54PMvWbt9tbb5I4vlvbUn2db7tEdc9kV/1XCjrdjtOtFk2Np//I3n4z3KciUidPRLztWvpg8ezbO323dbmiySe/9aWZF/n2x5x3RP5Vc+Fsm6340SbZWPz+T+Sh/8sx5mIvnU2xkp/pJ9naM2D56fLP+0j/35Rtu7PTPFnuZshpvIJjRaBN8uwVxbP1t2zyBnGtM6/Nj4VZVhLPkfrgP/GruXnLH4kRr2Dd4M6z3gkGwtSna/Pf69D8bXJeotKyUFis5307KlflCW1p+++A/5be59P/VTS4zxj/Zif8WaZ3sk6S+se12VF97LOvzY+FWV6pWnZXwf8N3YtP2fxI3EmdTbaJmu+oAkIDWj5U7c2LZqmlbD8dAcd8N/aIJkWIvuVJhOjxOLNsjUi1l2Lnn9tf6goW/cn41t2wH9j1/JzFj8S+qmz0TZZ8wVNQGhAy5+6tWnRNK2E5ac76ID/1gbJpM7WHBMQizfL1oiAxEweo+df2xQqytb9yfiWHfDf2LX8nMWPhH7qbLRN1nxBExAa0PKnbm1aNE0rYfnpDjrgv7VBMqmzNccExOLNsjUiIDGTx+j51zaFirJ1fzK+ZQf8N3YtP2fxI6H//zKA0eeP8bxaAAAAAElFTkSuQmCC;" vertex="1" parent="1">
          <mxGeometry x="229.76" y="331" width="72.48" height="40" as="geometry" />
        </mxCell>
        <mxCell id="0uOWNtAEGyTlKklBFvYf-21" style="edgeStyle=orthogonalEdgeStyle;rounded=0;orthogonalLoop=1;jettySize=auto;html=1;exitX=0.5;exitY=0;exitDx=0;exitDy=0;entryX=0.5;entryY=1;entryDx=0;entryDy=0;" edge="1" parent="1" source="0uOWNtAEGyTlKklBFvYf-20" target="0uOWNtAEGyTlKklBFvYf-3">
          <mxGeometry relative="1" as="geometry" />
        </mxCell>
        <mxCell id="0uOWNtAEGyTlKklBFvYf-20" value="Speech Encoder" style="rounded=1;whiteSpace=wrap;html=1;fontStyle=1;fillColor=#d5e8d4;strokeColor=#82b366;fontSize=14;" vertex="1" parent="1">
          <mxGeometry x="206" y="273" width="120" height="31" as="geometry" />
        </mxCell>
      </root>
    </mxGraphModel>
  </diagram>
</mxfile>
